<?xml version="1.0" encoding="UTF-8" standalone="no"?>
<!DOCTYPE svg PUBLIC "-//W3C//DTD SVG 1.1//EN"
 "http://www.w3.org/Graphics/SVG/1.1/DTD/svg11.dtd">
<!-- Generated by graphviz version 2.43.0 (0)
 -->
<!-- Title: src/ArduinoLoggerAdapter.cpp Pages: 1 -->
<svg width="294pt" height="258pt"
 viewBox="0.00 0.00 293.50 258.00" xmlns="http://www.w3.org/2000/svg" xmlns:xlink="http://www.w3.org/1999/xlink">
<g id="graph0" class="graph" transform="scale(1 1) rotate(0) translate(4 254)">
<title>src/ArduinoLoggerAdapter.cpp</title>
<!-- Node1 -->
<g id="Node000001" class="node">
<title>Node1</title>
<g id="a_Node000001"><a xlink:title="Implementation of the HardwareSerial&#45;backed logger.">
<polygon fill="#999999" stroke="#666666" points="167.5,-250 5.5,-250 5.5,-231 167.5,-231 167.5,-250"/>
<text text-anchor="middle" x="86.5" y="-238" font-family="Helvetica,sans-Serif" font-size="10.00">src/ArduinoLoggerAdapter.cpp</text>
</a>
</g>
</g>
<!-- Node2 -->
<g id="Node000002" class="node">
<title>Node2</title>
<g id="a_Node000002"><a xlink:href="ArduinoLoggerAdapter_8h.html" target="_top" xlink:title="Concrete CW_Logger over HardwareSerial for development builds.">
<polygon fill="white" stroke="#666666" points="153.5,-195 19.5,-195 19.5,-176 153.5,-176 153.5,-195"/>
<text text-anchor="middle" x="86.5" y="-183" font-family="Helvetica,sans-Serif" font-size="10.00">ArduinoLoggerAdapter.h</text>
</a>
</g>
</g>
<!-- Node1&#45;&gt;Node2 -->
<g id="edge1_Node000001_Node000002" class="edge">
<title>Node1&#45;&gt;Node2</title>
<g id="a_edge1_Node000001_Node000002"><a xlink:title=" ">
<path fill="none" stroke="#63b8ff" d="M86.5,-230.75C86.5,-223.8 86.5,-213.85 86.5,-205.13"/>
<polygon fill="#63b8ff" stroke="#63b8ff" points="90,-205.09 86.5,-195.09 83,-205.09 90,-205.09"/>
</a>
</g>
</g>
<!-- Node3 -->
<g id="Node000003" class="node">
<title>Node3</title>
<g id="a_Node000003"><a xlink:title=" ">
<polygon fill="#e0e0e0" stroke="#999999" points="63,-134.5 0,-134.5 0,-115.5 63,-115.5 63,-134.5"/>
<text text-anchor="middle" x="31.5" y="-122.5" font-family="Helvetica,sans-Serif" font-size="10.00">Arduino.h</text>
</a>
</g>
</g>
<!-- Node2&#45;&gt;Node3 -->
<g id="edge2_Node000002_Node000003" class="edge">
<title>Node2&#45;&gt;Node3</title>
<g id="a_edge2_Node000002_Node000003"><a xlink:title=" ">
<path fill="none" stroke="#63b8ff" d="M78.38,-175.87C70.1,-167.05 57.03,-153.16 46.8,-142.27"/>
<polygon fill="#63b8ff" stroke="#63b8ff" points="49.05,-139.56 39.65,-134.67 43.95,-144.35 49.05,-139.56"/>
</a>
</g>
</g>
<!-- Node4 -->
<g id="Node000004" class="node">
<title>Node4</title>
<g id="a_Node000004"><a xlink:href="CW__Logger_8h.html" target="_top" xlink:title="Abstract logging interface.">
<polygon fill="white" stroke="#666666" points="202,-140 81,-140 81,-110 202,-110 202,-140"/>
<text text-anchor="start" x="89" y="-128" font-family="Helvetica,sans-Serif" font-size="10.00">cryptnox&#45;sdk&#45;cpp/CW</text>
<text text-anchor="middle" x="141.5" y="-117" font-family="Helvetica,sans-Serif" font-size="10.00">_Logger.h</text>
</a>
</g>
</g>
<!-- Node2&#45;&gt;Node4 -->
<g id="edge3_Node000002_Node000004" class="edge">
<title>Node2&#45;&gt;Node4</title>
<g id="a_edge3_Node000002_Node000004"><a xlink:title=" ">
<path fill="none" stroke="#63b8ff" d="M94.62,-175.87C101.59,-168.44 111.96,-157.42 121.18,-147.62"/>
<polygon fill="#63b8ff" stroke="#63b8ff" points="123.93,-149.8 128.23,-140.11 118.83,-145 123.93,-149.8"/>
</a>
</g>
</g>
<!-- Node5 -->
<g id="Node000005" class="node">
<title>Node5</title>
<g id="a_Node000005"><a xlink:href="platform__compat_8h.html" target="_top" xlink:title="Arduino compatibility shims for non&#45;Arduino (plain C++) builds.">
<polygon fill="white" stroke="#666666" points="196.5,-74 86.5,-74 86.5,-55 196.5,-55 196.5,-74"/>
<text text-anchor="middle" x="141.5" y="-62" font-family="Helvetica,sans-Serif" font-size="10.00">platform_compat.h</text>
</a>
</g>
</g>
<!-- Node4&#45;&gt;Node5 -->
<g id="edge4_Node000004_Node000005" class="edge">
<title>Node4&#45;&gt;Node5</title>
<g id="a_edge4_Node000004_Node000005"><a xlink:title=" ">
<path fill="none" stroke="#63b8ff" d="M141.5,-109.84C141.5,-102.21 141.5,-92.7 141.5,-84.45"/>
<polygon fill="#63b8ff" stroke="#63b8ff" points="145,-84.27 141.5,-74.27 138,-84.27 145,-84.27"/>
</a>
</g>
</g>
<!-- Node6 -->
<g id="Node000006" class="node">
<title>Node6</title>
<g id="a_Node000006"><a xlink:title=" ">
<polygon fill="#e0e0e0" stroke="#999999" points="59,-19 6,-19 6,0 59,0 59,-19"/>
<text text-anchor="middle" x="32.5" y="-7" font-family="Helvetica,sans-Serif" font-size="10.00">stdint.h</text>
</a>
</g>
</g>
<!-- Node5&#45;&gt;Node6 -->
<g id="edge5_Node000005_Node000006" class="edge">
<title>Node5&#45;&gt;Node6</title>
<g id="a_edge5_Node000005_Node000006"><a xlink:title=" ">
<path fill="none" stroke="#63b8ff" d="M123.99,-54.98C106.53,-46.5 79.49,-33.35 59.33,-23.54"/>
<polygon fill="#63b8ff" stroke="#63b8ff" points="60.86,-20.4 50.33,-19.17 57.79,-26.69 60.86,-20.4"/>
</a>
</g>
</g>
<!-- Node7 -->
<g id="Node000007" class="node">
<title>Node7</title>
<g id="a_Node000007"><a xlink:title=" ">
<polygon fill="#e0e0e0" stroke="#999999" points="133.5,-19 77.5,-19 77.5,0 133.5,0 133.5,-19"/>
<text text-anchor="middle" x="105.5" y="-7" font-family="Helvetica,sans-Serif" font-size="10.00">stddef.h</text>
</a>
</g>
</g>
<!-- Node5&#45;&gt;Node7 -->
<g id="edge6_Node000005_Node000007" class="edge">
<title>Node5&#45;&gt;Node7</title>
<g id="a_edge6_Node000005_Node000007"><a xlink:title=" ">
<path fill="none" stroke="#63b8ff" d="M135.56,-54.75C130.52,-47.34 123.16,-36.5 116.99,-27.41"/>
<polygon fill="#63b8ff" stroke="#63b8ff" points="119.85,-25.39 111.33,-19.09 114.06,-29.33 119.85,-25.39"/>
</a>
</g>
</g>
<!-- Node8 -->
<g id="Node000008" class="node">
<title>Node8</title>
<g id="a_Node000008"><a xlink:title=" ">
<polygon fill="#e0e0e0" stroke="#999999" points="205,-19 152,-19 152,0 205,0 205,-19"/>
<text text-anchor="middle" x="178.5" y="-7" font-family="Helvetica,sans-Serif" font-size="10.00">string.h</text>
</a>
</g>
</g>
<!-- Node5&#45;&gt;Node8 -->
<g id="edge7_Node000005_Node000008" class="edge">
<title>Node5&#45;&gt;Node8</title>
<g id="a_edge7_Node000005_Node000008"><a xlink:title=" ">
<path fill="none" stroke="#63b8ff" d="M147.61,-54.75C152.78,-47.34 160.35,-36.5 166.69,-27.41"/>
<polygon fill="#63b8ff" stroke="#63b8ff" points="169.65,-29.29 172.5,-19.09 163.91,-25.29 169.65,-29.29"/>
</a>
</g>
</g>
<!-- Node9 -->
<g id="Node000009" class="node">
<title>Node9</title>
<g id="a_Node000009"><a xlink:title=" ">
<polygon fill="#e0e0e0" stroke="#999999" points="285.5,-19 223.5,-19 223.5,0 285.5,0 285.5,-19"/>
<text text-anchor="middle" x="254.5" y="-7" font-family="Helvetica,sans-Serif" font-size="10.00">stdbool.h</text>
</a>
</g>
</g>
<!-- Node5&#45;&gt;Node9 -->
<g id="edge8_Node000005_Node000009" class="edge">
<title>Node5&#45;&gt;Node9</title>
<g id="a_edge8_Node000005_Node000009"><a xlink:title=" ">
<path fill="none" stroke="#63b8ff" d="M159.66,-54.98C177.75,-46.5 205.78,-33.35 226.69,-23.54"/>
<polygon fill="#63b8ff" stroke="#63b8ff" points="228.45,-26.59 236.01,-19.17 225.47,-20.25 228.45,-26.59"/>
</a>
</g>
</g>
</g>
</svg>
