<?xml version="1.0" encoding="UTF-8" standalone="no"?>
<!DOCTYPE svg PUBLIC "-//W3C//DTD SVG 1.1//EN"
 "http://www.w3.org/Graphics/SVG/1.1/DTD/svg11.dtd">
<!-- Generated by graphviz version 2.43.0 (0)
 -->
<!-- Title: src/ArduinoLoggerAdapter.h Pages: 1 -->
<svg width="306pt" height="82pt"
 viewBox="0.00 0.00 306.00 82.00" xmlns="http://www.w3.org/2000/svg" xmlns:xlink="http://www.w3.org/1999/xlink">
<g id="graph0" class="graph" transform="scale(1 1) rotate(0) translate(4 78)">
<title>src/ArduinoLoggerAdapter.h</title>
<!-- Node1 -->
<g id="Node000001" class="node">
<title>Node1</title>
<g id="a_Node000001"><a xlink:title="Concrete CW_Logger over HardwareSerial for development builds.">
<polygon fill="#999999" stroke="#666666" points="235.5,-74 84.5,-74 84.5,-55 235.5,-55 235.5,-74"/>
<text text-anchor="middle" x="160" y="-62" font-family="Helvetica,sans-Serif" font-size="10.00">src/ArduinoLoggerAdapter.h</text>
</a>
</g>
</g>
<!-- Node2 -->
<g id="Node000002" class="node">
<title>Node2</title>
<g id="a_Node000002"><a xlink:href="ArduinoLoggerAdapter_8cpp.html" target="_top" xlink:title="Implementation of the HardwareSerial&#45;backed logger.">
<polygon fill="white" stroke="#666666" points="162,-19 0,-19 0,0 162,0 162,-19"/>
<text text-anchor="middle" x="81" y="-7" font-family="Helvetica,sans-Serif" font-size="10.00">src/ArduinoLoggerAdapter.cpp</text>
</a>
</g>
</g>
<!-- Node1&#45;&gt;Node2 -->
<g id="edge1_Node000001_Node000002" class="edge">
<title>Node1&#45;&gt;Node2</title>
<g id="a_edge1_Node000001_Node000002"><a xlink:title=" ">
<path fill="none" stroke="#63b8ff" d="M138.61,-49.15C124.33,-39.57 106.03,-27.29 93.92,-19.17"/>
<polygon fill="#63b8ff" stroke="#63b8ff" points="137.05,-52.32 147.31,-54.98 140.95,-46.51 137.05,-52.32"/>
</a>
</g>
</g>
<!-- Node3 -->
<g id="Node000003" class="node">
<title>Node3</title>
<g id="a_Node000003"><a xlink:href="CryptnoxWallet_8h.html" target="_top" xlink:title="Umbrella include and module&#45;group anchor for the CryptnoxWallet Arduino library.">
<polygon fill="white" stroke="#666666" points="298,-19 180,-19 180,0 298,0 298,-19"/>
<text text-anchor="middle" x="239" y="-7" font-family="Helvetica,sans-Serif" font-size="10.00">src/CryptnoxWallet.h</text>
</a>
</g>
</g>
<!-- Node1&#45;&gt;Node3 -->
<g id="edge2_Node000001_Node000003" class="edge">
<title>Node1&#45;&gt;Node3</title>
<g id="a_edge2_Node000001_Node000003"><a xlink:title=" ">
<path fill="none" stroke="#63b8ff" d="M181.39,-49.15C195.67,-39.57 213.97,-27.29 226.08,-19.17"/>
<polygon fill="#63b8ff" stroke="#63b8ff" points="179.05,-46.51 172.69,-54.98 182.95,-52.32 179.05,-46.51"/>
</a>
</g>
</g>
</g>
</svg>
