<?xml version="1.0" encoding="UTF-8" standalone="no"?>
<!DOCTYPE svg PUBLIC "-//W3C//DTD SVG 1.1//EN"
 "http://www.w3.org/Graphics/SVG/1.1/DTD/svg11.dtd">
<!-- Generated by graphviz version 2.43.0 (0)
 -->
<!-- Title: src/ArduinoCryptoProvider.cpp Pages: 1 -->
<svg width="524pt" height="368pt"
 viewBox="0.00 0.00 523.50 368.00" xmlns="http://www.w3.org/2000/svg" xmlns:xlink="http://www.w3.org/1999/xlink">
<g id="graph0" class="graph" transform="scale(1 1) rotate(0) translate(4 364)">
<title>src/ArduinoCryptoProvider.cpp</title>
<!-- Node1 -->
<g id="Node000001" class="node">
<title>Node1</title>
<g id="a_Node000001"><a xlink:title="Implementation of the Arduino UNO R4 concrete crypto provider.">
<polygon fill="#999999" stroke="#666666" points="421.5,-360 257.5,-360 257.5,-341 421.5,-341 421.5,-360"/>
<text text-anchor="middle" x="339.5" y="-348" font-family="Helvetica,sans-Serif" font-size="10.00">src/ArduinoCryptoProvider.cpp</text>
</a>
</g>
</g>
<!-- Node2 -->
<g id="Node000002" class="node">
<title>Node2</title>
<g id="a_Node000002"><a xlink:href="ArduinoCryptoProvider_8h.html" target="_top" xlink:title="Concrete CW_CryptoProvider for the Arduino UNO R4 (RA4M1).">
<polygon fill="white" stroke="#666666" points="226,-305 91,-305 91,-286 226,-286 226,-305"/>
<text text-anchor="middle" x="158.5" y="-293" font-family="Helvetica,sans-Serif" font-size="10.00">ArduinoCryptoProvider.h</text>
</a>
</g>
</g>
<!-- Node1&#45;&gt;Node2 -->
<g id="edge1_Node000001_Node000002" class="edge">
<title>Node1&#45;&gt;Node2</title>
<g id="a_edge1_Node000001_Node000002"><a xlink:title=" ">
<path fill="none" stroke="#63b8ff" d="M310.42,-340.98C279.9,-332.05 231.74,-317.94 197.84,-308.02"/>
<polygon fill="#63b8ff" stroke="#63b8ff" points="198.39,-304.53 187.81,-305.08 196.42,-311.25 198.39,-304.53"/>
</a>
</g>
</g>
<!-- Node14 -->
<g id="Node000014" class="node">
<title>Node14</title>
<g id="a_Node000014"><a xlink:title=" ">
<polygon fill="#e0e0e0" stroke="#999999" points="289,-305 244,-305 244,-286 289,-286 289,-305"/>
<text text-anchor="middle" x="266.5" y="-293" font-family="Helvetica,sans-Serif" font-size="10.00">trng.h</text>
</a>
</g>
</g>
<!-- Node1&#45;&gt;Node14 -->
<g id="edge15_Node000001_Node000014" class="edge">
<title>Node1&#45;&gt;Node14</title>
<g id="a_edge15_Node000001_Node000014"><a xlink:title=" ">
<path fill="none" stroke="#63b8ff" d="M327.77,-340.98C316.77,-333 300.08,-320.88 286.9,-311.31"/>
<polygon fill="#63b8ff" stroke="#63b8ff" points="288.59,-308.21 278.44,-305.17 284.48,-313.88 288.59,-308.21"/>
</a>
</g>
</g>
<!-- Node15 -->
<g id="Node000015" class="node">
<title>Node15</title>
<g id="a_Node000015"><a xlink:title=" ">
<polygon fill="#e0e0e0" stroke="#999999" points="371.5,-305 307.5,-305 307.5,-286 371.5,-286 371.5,-305"/>
<text text-anchor="middle" x="339.5" y="-293" font-family="Helvetica,sans-Serif" font-size="10.00">SHA256.h</text>
</a>
</g>
</g>
<!-- Node1&#45;&gt;Node15 -->
<g id="edge16_Node000001_Node000015" class="edge">
<title>Node1&#45;&gt;Node15</title>
<g id="a_edge16_Node000001_Node000015"><a xlink:title=" ">
<path fill="none" stroke="#63b8ff" d="M339.5,-340.75C339.5,-333.8 339.5,-323.85 339.5,-315.13"/>
<polygon fill="#63b8ff" stroke="#63b8ff" points="343,-315.09 339.5,-305.09 336,-315.09 343,-315.09"/>
</a>
</g>
</g>
<!-- Node16 -->
<g id="Node000016" class="node">
<title>Node16</title>
<g id="a_Node000016"><a xlink:title=" ">
<polygon fill="#e0e0e0" stroke="#999999" points="453.5,-305 389.5,-305 389.5,-286 453.5,-286 453.5,-305"/>
<text text-anchor="middle" x="421.5" y="-293" font-family="Helvetica,sans-Serif" font-size="10.00">SHA512.h</text>
</a>
</g>
</g>
<!-- Node1&#45;&gt;Node16 -->
<g id="edge17_Node000001_Node000016" class="edge">
<title>Node1&#45;&gt;Node16</title>
<g id="a_edge17_Node000001_Node000016"><a xlink:title=" ">
<path fill="none" stroke="#63b8ff" d="M352.67,-340.98C365.27,-332.84 384.5,-320.41 399.44,-310.76"/>
<polygon fill="#63b8ff" stroke="#63b8ff" points="401.59,-313.54 408.09,-305.17 397.79,-307.66 401.59,-313.54"/>
</a>
</g>
</g>
<!-- Node17 -->
<g id="Node000017" class="node">
<title>Node17</title>
<g id="a_Node000017"><a xlink:title=" ">
<polygon fill="#e0e0e0" stroke="#999999" points="515.5,-305 471.5,-305 471.5,-286 515.5,-286 515.5,-305"/>
<text text-anchor="middle" x="493.5" y="-293" font-family="Helvetica,sans-Serif" font-size="10.00">AES.h</text>
</a>
</g>
</g>
<!-- Node1&#45;&gt;Node17 -->
<g id="edge18_Node000001_Node000017" class="edge">
<title>Node1&#45;&gt;Node17</title>
<g id="a_edge18_Node000001_Node000017"><a xlink:title=" ">
<path fill="none" stroke="#63b8ff" d="M364.24,-340.98C390.71,-331.88 432.78,-317.4 461.69,-307.45"/>
<polygon fill="#63b8ff" stroke="#63b8ff" points="463,-310.7 471.32,-304.13 460.72,-304.08 463,-310.7"/>
</a>
</g>
</g>
<!-- Node3 -->
<g id="Node000003" class="node">
<title>Node3</title>
<g id="a_Node000003"><a xlink:title=" ">
<polygon fill="#e0e0e0" stroke="#999999" points="63,-244.5 0,-244.5 0,-225.5 63,-225.5 63,-244.5"/>
<text text-anchor="middle" x="31.5" y="-232.5" font-family="Helvetica,sans-Serif" font-size="10.00">Arduino.h</text>
</a>
</g>
</g>
<!-- Node2&#45;&gt;Node3 -->
<g id="edge2_Node000002_Node000003" class="edge">
<title>Node2&#45;&gt;Node3</title>
<g id="a_edge2_Node000002_Node000003"><a xlink:title=" ">
<path fill="none" stroke="#63b8ff" d="M140.03,-285.99C118.78,-276.2 83.65,-260.02 59.13,-248.73"/>
<polygon fill="#63b8ff" stroke="#63b8ff" points="60.54,-245.52 49.99,-244.52 57.61,-251.88 60.54,-245.52"/>
</a>
</g>
</g>
<!-- Node4 -->
<g id="Node000004" class="node">
<title>Node4</title>
<g id="a_Node000004"><a xlink:title=" ">
<polygon fill="#e0e0e0" stroke="#999999" points="132,-244.5 81,-244.5 81,-225.5 132,-225.5 132,-244.5"/>
<text text-anchor="middle" x="106.5" y="-232.5" font-family="Helvetica,sans-Serif" font-size="10.00">uECC.h</text>
</a>
</g>
</g>
<!-- Node2&#45;&gt;Node4 -->
<g id="edge3_Node000002_Node000004" class="edge">
<title>Node2&#45;&gt;Node4</title>
<g id="a_edge3_Node000002_Node000004"><a xlink:title=" ">
<path fill="none" stroke="#63b8ff" d="M150.83,-285.87C142.99,-277.05 130.64,-263.16 120.96,-252.27"/>
<polygon fill="#63b8ff" stroke="#63b8ff" points="123.46,-249.82 114.2,-244.67 118.23,-254.47 123.46,-249.82"/>
</a>
</g>
</g>
<!-- Node5 -->
<g id="Node000005" class="node">
<title>Node5</title>
<g id="a_Node000005"><a xlink:href="CW__CryptoProvider_8h.html" target="_top" xlink:title="Abstract cryptographic primitives interface.">
<polygon fill="white" stroke="#666666" points="271,-250 150,-250 150,-220 271,-220 271,-250"/>
<text text-anchor="start" x="158" y="-238" font-family="Helvetica,sans-Serif" font-size="10.00">cryptnox&#45;sdk&#45;cpp/CW</text>
<text text-anchor="middle" x="210.5" y="-227" font-family="Helvetica,sans-Serif" font-size="10.00">_CryptoProvider.h</text>
</a>
</g>
</g>
<!-- Node2&#45;&gt;Node5 -->
<g id="edge4_Node000002_Node000005" class="edge">
<title>Node2&#45;&gt;Node5</title>
<g id="a_edge4_Node000002_Node000005"><a xlink:title=" ">
<path fill="none" stroke="#63b8ff" d="M166.17,-285.87C172.77,-278.44 182.57,-267.42 191.28,-257.62"/>
<polygon fill="#63b8ff" stroke="#63b8ff" points="193.93,-259.91 197.95,-250.11 188.69,-255.26 193.93,-259.91"/>
</a>
</g>
</g>
<!-- Node13 -->
<g id="Node000013" class="node">
<title>Node13</title>
<g id="a_Node000013"><a xlink:title=" ">
<polygon fill="#e0e0e0" stroke="#999999" points="348,-244.5 289,-244.5 289,-225.5 348,-225.5 348,-244.5"/>
<text text-anchor="middle" x="318.5" y="-232.5" font-family="Helvetica,sans-Serif" font-size="10.00">AESLib.h</text>
</a>
</g>
</g>
<!-- Node2&#45;&gt;Node13 -->
<g id="edge14_Node000002_Node000013" class="edge">
<title>Node2&#45;&gt;Node13</title>
<g id="a_edge14_Node000002_Node000013"><a xlink:title=" ">
<path fill="none" stroke="#63b8ff" d="M181.77,-285.99C209.14,-275.99 254.77,-259.3 285.72,-247.99"/>
<polygon fill="#63b8ff" stroke="#63b8ff" points="287.02,-251.24 295.21,-244.52 284.61,-244.66 287.02,-251.24"/>
</a>
</g>
</g>
<!-- Node6 -->
<g id="Node000006" class="node">
<title>Node6</title>
<g id="a_Node000006"><a xlink:href="platform__compat_8h.html" target="_top" xlink:title="Arduino compatibility shims for non&#45;Arduino (plain C++) builds.">
<polygon fill="white" stroke="#666666" points="271.5,-74 161.5,-74 161.5,-55 271.5,-55 271.5,-74"/>
<text text-anchor="middle" x="216.5" y="-62" font-family="Helvetica,sans-Serif" font-size="10.00">platform_compat.h</text>
</a>
</g>
</g>
<!-- Node5&#45;&gt;Node6 -->
<g id="edge5_Node000005_Node000006" class="edge">
<title>Node5&#45;&gt;Node6</title>
<g id="a_edge5_Node000005_Node000006"><a xlink:title=" ">
<path fill="none" stroke="#63b8ff" d="M205.76,-219.75C202.72,-209.85 199.07,-196.28 197.5,-184 192.94,-148.32 203.17,-106.86 210.32,-83.66"/>
<polygon fill="#63b8ff" stroke="#63b8ff" points="213.66,-84.69 213.41,-74.1 207,-82.53 213.66,-84.69"/>
</a>
</g>
</g>
<!-- Node11 -->
<g id="Node000011" class="node">
<title>Node11</title>
<g id="a_Node000011"><a xlink:href="CW__Defs_8h.html" target="_top" xlink:title="Shared constants, error codes, and session state for the SDK.">
<polygon fill="white" stroke="#666666" points="276.5,-184 206.5,-184 206.5,-165 276.5,-165 276.5,-184"/>
<text text-anchor="middle" x="241.5" y="-172" font-family="Helvetica,sans-Serif" font-size="10.00">CW_Defs.h</text>
</a>
</g>
</g>
<!-- Node5&#45;&gt;Node11 -->
<g id="edge10_Node000005_Node000011" class="edge">
<title>Node5&#45;&gt;Node11</title>
<g id="a_edge10_Node000005_Node000011"><a xlink:title=" ">
<path fill="none" stroke="#63b8ff" d="M218,-219.84C222.23,-211.87 227.54,-201.84 232.05,-193.33"/>
<polygon fill="#63b8ff" stroke="#63b8ff" points="235.27,-194.74 236.85,-184.27 229.08,-191.46 235.27,-194.74"/>
</a>
</g>
</g>
<!-- Node7 -->
<g id="Node000007" class="node">
<title>Node7</title>
<g id="a_Node000007"><a xlink:title=" ">
<polygon fill="#e0e0e0" stroke="#999999" points="134,-19 81,-19 81,0 134,0 134,-19"/>
<text text-anchor="middle" x="107.5" y="-7" font-family="Helvetica,sans-Serif" font-size="10.00">stdint.h</text>
</a>
</g>
</g>
<!-- Node6&#45;&gt;Node7 -->
<g id="edge6_Node000006_Node000007" class="edge">
<title>Node6&#45;&gt;Node7</title>
<g id="a_edge6_Node000006_Node000007"><a xlink:title=" ">
<path fill="none" stroke="#63b8ff" d="M198.99,-54.98C181.53,-46.5 154.49,-33.35 134.33,-23.54"/>
<polygon fill="#63b8ff" stroke="#63b8ff" points="135.86,-20.4 125.33,-19.17 132.79,-26.69 135.86,-20.4"/>
</a>
</g>
</g>
<!-- Node8 -->
<g id="Node000008" class="node">
<title>Node8</title>
<g id="a_Node000008"><a xlink:title=" ">
<polygon fill="#e0e0e0" stroke="#999999" points="208.5,-19 152.5,-19 152.5,0 208.5,0 208.5,-19"/>
<text text-anchor="middle" x="180.5" y="-7" font-family="Helvetica,sans-Serif" font-size="10.00">stddef.h</text>
</a>
</g>
</g>
<!-- Node6&#45;&gt;Node8 -->
<g id="edge7_Node000006_Node000008" class="edge">
<title>Node6&#45;&gt;Node8</title>
<g id="a_edge7_Node000006_Node000008"><a xlink:title=" ">
<path fill="none" stroke="#63b8ff" d="M210.56,-54.75C205.52,-47.34 198.16,-36.5 191.99,-27.41"/>
<polygon fill="#63b8ff" stroke="#63b8ff" points="194.85,-25.39 186.33,-19.09 189.06,-29.33 194.85,-25.39"/>
</a>
</g>
</g>
<!-- Node9 -->
<g id="Node000009" class="node">
<title>Node9</title>
<g id="a_Node000009"><a xlink:title=" ">
<polygon fill="#e0e0e0" stroke="#999999" points="280,-19 227,-19 227,0 280,0 280,-19"/>
<text text-anchor="middle" x="253.5" y="-7" font-family="Helvetica,sans-Serif" font-size="10.00">string.h</text>
</a>
</g>
</g>
<!-- Node6&#45;&gt;Node9 -->
<g id="edge8_Node000006_Node000009" class="edge">
<title>Node6&#45;&gt;Node9</title>
<g id="a_edge8_Node000006_Node000009"><a xlink:title=" ">
<path fill="none" stroke="#63b8ff" d="M222.61,-54.75C227.78,-47.34 235.35,-36.5 241.69,-27.41"/>
<polygon fill="#63b8ff" stroke="#63b8ff" points="244.65,-29.29 247.5,-19.09 238.91,-25.29 244.65,-29.29"/>
</a>
</g>
</g>
<!-- Node10 -->
<g id="Node000010" class="node">
<title>Node10</title>
<g id="a_Node000010"><a xlink:title=" ">
<polygon fill="#e0e0e0" stroke="#999999" points="360.5,-19 298.5,-19 298.5,0 360.5,0 360.5,-19"/>
<text text-anchor="middle" x="329.5" y="-7" font-family="Helvetica,sans-Serif" font-size="10.00">stdbool.h</text>
</a>
</g>
</g>
<!-- Node6&#45;&gt;Node10 -->
<g id="edge9_Node000006_Node000010" class="edge">
<title>Node6&#45;&gt;Node10</title>
<g id="a_edge9_Node000006_Node000010"><a xlink:title=" ">
<path fill="none" stroke="#63b8ff" d="M234.66,-54.98C252.75,-46.5 280.78,-33.35 301.69,-23.54"/>
<polygon fill="#63b8ff" stroke="#63b8ff" points="303.45,-26.59 311.01,-19.17 300.47,-20.25 303.45,-26.59"/>
</a>
</g>
</g>
<!-- Node11&#45;&gt;Node6 -->
<g id="edge11_Node000011_Node000006" class="edge">
<title>Node11&#45;&gt;Node6</title>
<g id="a_edge11_Node000011_Node000006"><a xlink:title=" ">
<path fill="none" stroke="#63b8ff" d="M239.45,-164.66C235.39,-147.09 226.21,-107.45 220.77,-83.95"/>
<polygon fill="#63b8ff" stroke="#63b8ff" points="224.17,-83.11 218.5,-74.16 217.35,-84.69 224.17,-83.11"/>
</a>
</g>
</g>
<!-- Node12 -->
<g id="Node000012" class="node">
<title>Node12</title>
<g id="a_Node000012"><a xlink:href="CW__Utils_8h.html" target="_top" xlink:title="Platform&#45;independent security and memory utilities.">
<polygon fill="white" stroke="#666666" points="314.5,-129 244.5,-129 244.5,-110 314.5,-110 314.5,-129"/>
<text text-anchor="middle" x="279.5" y="-117" font-family="Helvetica,sans-Serif" font-size="10.00">CW_Utils.h</text>
</a>
</g>
</g>
<!-- Node11&#45;&gt;Node12 -->
<g id="edge12_Node000011_Node000012" class="edge">
<title>Node11&#45;&gt;Node12</title>
<g id="a_edge12_Node000011_Node000012"><a xlink:title=" ">
<path fill="none" stroke="#63b8ff" d="M247.77,-164.75C253.09,-157.34 260.86,-146.5 267.38,-137.41"/>
<polygon fill="#63b8ff" stroke="#63b8ff" points="270.36,-139.26 273.34,-129.09 264.67,-135.18 270.36,-139.26"/>
</a>
</g>
</g>
<!-- Node12&#45;&gt;Node6 -->
<g id="edge13_Node000012_Node000006" class="edge">
<title>Node12&#45;&gt;Node6</title>
<g id="a_edge13_Node000012_Node000006"><a xlink:title=" ">
<path fill="none" stroke="#63b8ff" d="M269.38,-109.98C260.06,-102.15 246.03,-90.34 234.76,-80.86"/>
<polygon fill="#63b8ff" stroke="#63b8ff" points="236.71,-77.93 226.81,-74.17 232.21,-83.29 236.71,-77.93"/>
</a>
</g>
</g>
</g>
</svg>
