<?xml version="1.0" encoding="UTF-8" standalone="no"?>
<!DOCTYPE svg PUBLIC "-//W3C//DTD SVG 1.1//EN"
 "http://www.w3.org/Graphics/SVG/1.1/DTD/svg11.dtd">
<!-- Generated by graphviz version 2.43.0 (0)
 -->
<!-- Title: PN532Adapter Pages: 1 -->
<svg width="198pt" height="99pt"
 viewBox="0.00 0.00 197.50 99.00" xmlns="http://www.w3.org/2000/svg" xmlns:xlink="http://www.w3.org/1999/xlink">
<g id="graph0" class="graph" transform="scale(1 1) rotate(0) translate(4 95)">
<title>PN532Adapter</title>
<!-- Node1 -->
<g id="Node000001" class="node">
<title>Node1</title>
<g id="a_Node000001"><a xlink:title="CW_NfcTransport implementation over the Adafruit_PN532 driver.">
<polygon fill="#999999" stroke="#666666" points="145,-19 59,-19 59,0 145,0 145,-19"/>
<text text-anchor="middle" x="102" y="-7" font-family="Helvetica,sans-Serif" font-size="10.00">PN532Adapter</text>
</a>
</g>
</g>
<!-- Node2 -->
<g id="Node000002" class="node">
<title>Node2</title>
<g id="a_Node000002"><a xlink:href="classCW__NfcTransport.html" target="_top" xlink:title="Abstract interface for NFC transport operations.">
<polygon fill="white" stroke="#666666" points="100,-91 0,-91 0,-72 100,-72 100,-91"/>
<text text-anchor="middle" x="50" y="-79" font-family="Helvetica,sans-Serif" font-size="10.00">CW_NfcTransport</text>
</a>
</g>
</g>
<!-- Node2&#45;&gt;Node1 -->
<g id="edge1_Node000001_Node000002" class="edge">
<title>Node2&#45;&gt;Node1</title>
<g id="a_edge1_Node000001_Node000002"><a xlink:title=" ">
<path fill="none" stroke="#63b8ff" d="M62.54,-63.62C72.96,-49.59 87.36,-30.21 95.57,-19.15"/>
<polygon fill="#63b8ff" stroke="#63b8ff" points="59.53,-61.8 56.38,-71.92 65.15,-65.98 59.53,-61.8"/>
</a>
</g>
</g>
<!-- Node3 -->
<g id="Node000003" class="node">
<title>Node3</title>
<g id="a_Node000003"><a xlink:href="classCW__Logger.html" target="_top" xlink:title="Abstract interface for serial/debug output.">
<polygon fill="white" stroke="#666666" points="189.5,-91 118.5,-91 118.5,-72 189.5,-72 189.5,-91"/>
<text text-anchor="middle" x="154" y="-79" font-family="Helvetica,sans-Serif" font-size="10.00">CW_Logger</text>
</a>
</g>
</g>
<!-- Node3&#45;&gt;Node1 -->
<g id="edge2_Node000001_Node000003" class="edge">
<title>Node3&#45;&gt;Node1</title>
<g id="a_edge2_Node000001_Node000003"><a xlink:title=" ">
<path fill="none" stroke="#9a32cd" stroke-dasharray="5,2" d="M141.46,-63.62C131.04,-49.59 116.64,-30.21 108.43,-19.15"/>
<polygon fill="#9a32cd" stroke="#9a32cd" points="138.85,-65.98 147.62,-71.92 144.47,-61.8 138.85,-65.98"/>
</a>
</g>
<text text-anchor="start" x="137.5" y="-42.5" font-family="Helvetica,sans-Serif" font-size="10.00" fill="grey">_logger</text>
</g>
</g>
</svg>
