<?xml version="1.0" encoding="UTF-8" standalone="no"?>
<!DOCTYPE svg PUBLIC "-//W3C//DTD SVG 1.1//EN"
 "http://www.w3.org/Graphics/SVG/1.1/DTD/svg11.dtd">
<!-- Generated by graphviz version 2.43.0 (0)
 -->
<!-- Title: CryptnoxWallet Pages: 1 -->
<svg width="433pt" height="171pt"
 viewBox="0.00 0.00 433.00 171.00" xmlns="http://www.w3.org/2000/svg" xmlns:xlink="http://www.w3.org/1999/xlink">
<g id="graph0" class="graph" transform="scale(1 1) rotate(0) translate(4 167)">
<title>CryptnoxWallet</title>
<!-- Node1 -->
<g id="Node000001" class="node">
<title>Node1</title>
<g id="a_Node000001"><a xlink:title="High&#45;level interface for interacting with a Cryptnox Hardware Wallet over NFC.">
<polygon fill="#999999" stroke="#666666" points="182,-19 90,-19 90,0 182,0 182,-19"/>
<text text-anchor="middle" x="136" y="-7" font-family="Helvetica,sans-Serif" font-size="10.00">CryptnoxWallet</text>
</a>
</g>
</g>
<!-- Node2 -->
<g id="Node000002" class="node">
<title>Node2</title>
<g id="a_Node000002"><a xlink:href="classCW__Logger.html" target="_top" xlink:title="Abstract interface for serial/debug output.">
<polygon fill="white" stroke="#666666" points="173.5,-163 102.5,-163 102.5,-144 173.5,-144 173.5,-163"/>
<text text-anchor="middle" x="138" y="-151" font-family="Helvetica,sans-Serif" font-size="10.00">CW_Logger</text>
</a>
</g>
</g>
<!-- Node2&#45;&gt;Node1 -->
<g id="edge1_Node000001_Node000002" class="edge">
<title>Node2&#45;&gt;Node1</title>
<g id="a_edge1_Node000001_Node000002"><a xlink:title=" ">
<path fill="none" stroke="#9a32cd" stroke-dasharray="5,2" d="M137.73,-133.61C137.29,-102.43 136.44,-41.43 136.12,-19.02"/>
<polygon fill="#9a32cd" stroke="#9a32cd" points="134.23,-133.67 137.87,-143.62 141.23,-133.57 134.23,-133.67"/>
</a>
</g>
<text text-anchor="start" x="141.5" y="-78.5" font-family="Helvetica,sans-Serif" font-size="10.00" fill="grey">_logger</text>
</g>
<!-- Node4 -->
<g id="Node000004" class="node">
<title>Node4</title>
<g id="a_Node000004"><a xlink:href="classCW__SecureChannel.html" target="_top" xlink:title="Implements the Cryptnox secure channel protocol over NFC.">
<polygon fill="white" stroke="#666666" points="308.5,-91 197.5,-91 197.5,-72 308.5,-72 308.5,-91"/>
<text text-anchor="middle" x="253" y="-79" font-family="Helvetica,sans-Serif" font-size="10.00">CW_SecureChannel</text>
</a>
</g>
</g>
<!-- Node2&#45;&gt;Node4 -->
<g id="edge5_Node000004_Node000002" class="edge">
<title>Node2&#45;&gt;Node4</title>
<g id="a_edge5_Node000004_Node000002"><a xlink:title=" ">
<path fill="none" stroke="#9a32cd" stroke-dasharray="5,2" d="M159,-137.99C171.82,-129.3 188.65,-118.19 204,-109 214.46,-102.74 226.49,-96.23 236.02,-91.22"/>
<polygon fill="#9a32cd" stroke="#9a32cd" points="156.73,-135.3 150.44,-143.83 160.68,-141.08 156.73,-135.3"/>
</a>
</g>
<text text-anchor="start" x="207.5" y="-114.5" font-family="Helvetica,sans-Serif" font-size="10.00" fill="grey">_logger</text>
</g>
<!-- Node3 -->
<g id="Node000003" class="node">
<title>Node3</title>
<g id="a_Node000003"><a xlink:href="classCW__Platform.html" target="_top" xlink:title="Abstract interface for platform&#45;specific operations used by the SDK.">
<polygon fill="white" stroke="#666666" points="80,-163 0,-163 0,-144 80,-144 80,-163"/>
<text text-anchor="middle" x="40" y="-151" font-family="Helvetica,sans-Serif" font-size="10.00">CW_Platform</text>
</a>
</g>
</g>
<!-- Node3&#45;&gt;Node1 -->
<g id="edge2_Node000001_Node000003" class="edge">
<title>Node3&#45;&gt;Node1</title>
<g id="a_edge2_Node000001_Node000003"><a xlink:title=" ">
<path fill="none" stroke="#9a32cd" stroke-dasharray="5,2" d="M47.19,-133.82C54.1,-116.94 65.49,-91.78 79,-72 93.12,-51.32 114,-30.67 126.18,-19.34"/>
<polygon fill="#9a32cd" stroke="#9a32cd" points="43.75,-133 43.31,-143.58 50.25,-135.58 43.75,-133"/>
</a>
</g>
<text text-anchor="start" x="82" y="-78.5" font-family="Helvetica,sans-Serif" font-size="10.00" fill="grey">_platform</text>
</g>
<!-- Node3&#45;&gt;Node4 -->
<g id="edge7_Node000004_Node000003" class="edge">
<title>Node3&#45;&gt;Node4</title>
<g id="a_edge7_Node000004_Node000003"><a xlink:title=" ">
<path fill="none" stroke="#9a32cd" stroke-dasharray="5,2" d="M61.72,-138.55C77.58,-128.94 99.91,-116.59 121,-109 145.41,-100.21 173.47,-94.06 197.42,-89.92"/>
<polygon fill="#9a32cd" stroke="#9a32cd" points="59.85,-135.59 53.19,-143.83 63.53,-141.55 59.85,-135.59"/>
</a>
</g>
<text text-anchor="start" x="124" y="-114.5" font-family="Helvetica,sans-Serif" font-size="10.00" fill="grey">_platform</text>
</g>
<!-- Node4&#45;&gt;Node1 -->
<g id="edge3_Node000001_Node000004" class="edge">
<title>Node4&#45;&gt;Node1</title>
<g id="a_edge3_Node000001_Node000004"><a xlink:title=" ">
<path fill="none" stroke="#9a32cd" stroke-dasharray="5,2" d="M229.97,-66.72C206.36,-52.59 170.35,-31.05 150.46,-19.15"/>
<polygon fill="#9a32cd" stroke="#9a32cd" points="228.28,-69.79 238.65,-71.92 231.87,-63.78 228.28,-69.79"/>
</a>
</g>
<text text-anchor="start" x="212" y="-42.5" font-family="Helvetica,sans-Serif" font-size="10.00" fill="grey">_secure</text>
</g>
<!-- Node5 -->
<g id="Node000005" class="node">
<title>Node5</title>
<g id="a_Node000005"><a xlink:href="classCW__NfcTransport.html" target="_top" xlink:title="Abstract interface for NFC transport operations.">
<polygon fill="white" stroke="#666666" points="425,-163 325,-163 325,-144 425,-144 425,-163"/>
<text text-anchor="middle" x="375" y="-151" font-family="Helvetica,sans-Serif" font-size="10.00">CW_NfcTransport</text>
</a>
</g>
</g>
<!-- Node5&#45;&gt;Node4 -->
<g id="edge4_Node000004_Node000005" class="edge">
<title>Node5&#45;&gt;Node4</title>
<g id="a_edge4_Node000004_Node000005"><a xlink:title=" ">
<path fill="none" stroke="#9a32cd" stroke-dasharray="5,2" d="M351.31,-138.91C326.69,-124.78 288.91,-103.1 268.08,-91.15"/>
<polygon fill="#9a32cd" stroke="#9a32cd" points="349.62,-141.98 360.04,-143.92 353.11,-135.9 349.62,-141.98"/>
</a>
</g>
<text text-anchor="start" x="331" y="-114.5" font-family="Helvetica,sans-Serif" font-size="10.00" fill="grey">_driver</text>
</g>
<!-- Node6 -->
<g id="Node000006" class="node">
<title>Node6</title>
<g id="a_Node000006"><a xlink:href="classCW__CryptoProvider.html" target="_top" xlink:title="Abstract interface for cryptographic operations used by CW_SecureChannel.">
<polygon fill="white" stroke="#666666" points="306.5,-163 195.5,-163 195.5,-144 306.5,-144 306.5,-163"/>
<text text-anchor="middle" x="251" y="-151" font-family="Helvetica,sans-Serif" font-size="10.00">CW_CryptoProvider</text>
</a>
</g>
</g>
<!-- Node6&#45;&gt;Node4 -->
<g id="edge6_Node000004_Node000006" class="edge">
<title>Node6&#45;&gt;Node4</title>
<g id="a_edge6_Node000004_Node000006"><a xlink:title=" ">
<path fill="none" stroke="#9a32cd" stroke-dasharray="5,2" d="M251.54,-133.58C251.94,-119.76 252.45,-101.68 252.75,-91.15"/>
<polygon fill="#9a32cd" stroke="#9a32cd" points="248.03,-133.82 251.25,-143.92 255.03,-134.02 248.03,-133.82"/>
</a>
</g>
<text text-anchor="start" x="255.5" y="-114.5" font-family="Helvetica,sans-Serif" font-size="10.00" fill="grey">_crypto</text>
</g>
</g>
</svg>
