<?xml version="1.0" encoding="UTF-8" standalone="no"?>
<!DOCTYPE svg PUBLIC "-//W3C//DTD SVG 1.1//EN"
 "http://www.w3.org/Graphics/SVG/1.1/DTD/svg11.dtd">
<!-- Generated by graphviz version 2.43.0 (0)
 -->
<!-- Title: CW_NfcTransport Pages: 1 -->
<svg width="168pt" height="82pt"
 viewBox="0.00 0.00 167.50 82.00" xmlns="http://www.w3.org/2000/svg" xmlns:xlink="http://www.w3.org/1999/xlink">
<g id="graph0" class="graph" transform="scale(1 1) rotate(0) translate(4 78)">
<title>CW_NfcTransport</title>
<!-- Node1 -->
<g id="Node000001" class="node">
<title>Node1</title>
<g id="a_Node000001"><a xlink:title="Abstract interface for NFC transport operations.">
<polygon fill="#999999" stroke="#666666" points="137,-74 37,-74 37,-55 137,-55 137,-74"/>
<text text-anchor="middle" x="87" y="-62" font-family="Helvetica,sans-Serif" font-size="10.00">CW_NfcTransport</text>
</a>
</g>
</g>
<!-- Node2 -->
<g id="Node000002" class="node">
<title>Node2</title>
<g id="a_Node000002"><a xlink:href="classPN532Adapter.html" target="_top" xlink:title="CW_NfcTransport implementation over the Adafruit_PN532 driver.">
<polygon fill="white" stroke="#666666" points="86,-19 0,-19 0,0 86,0 86,-19"/>
<text text-anchor="middle" x="43" y="-7" font-family="Helvetica,sans-Serif" font-size="10.00">PN532Adapter</text>
</a>
</g>
</g>
<!-- Node1&#45;&gt;Node2 -->
<g id="edge1_Node000001_Node000002" class="edge">
<title>Node1&#45;&gt;Node2</title>
<g id="a_edge1_Node000001_Node000002"><a xlink:title=" ">
<path fill="none" stroke="#63b8ff" d="M73.27,-46.96C65.6,-37.72 56.37,-26.6 50.13,-19.09"/>
<polygon fill="#63b8ff" stroke="#63b8ff" points="70.65,-49.29 79.73,-54.75 76.04,-44.82 70.65,-49.29"/>
</a>
</g>
</g>
<!-- Node3 -->
<g id="Node000003" class="node">
<title>Node3</title>
<g id="a_Node000003"><a xlink:href="classStubNfc.html" target="_top" xlink:title=" ">
<polygon fill="white" stroke="#666666" points="159.5,-19 104.5,-19 104.5,0 159.5,0 159.5,-19"/>
<text text-anchor="middle" x="132" y="-7" font-family="Helvetica,sans-Serif" font-size="10.00">StubNfc</text>
</a>
</g>
</g>
<!-- Node1&#45;&gt;Node3 -->
<g id="edge2_Node000001_Node000003" class="edge">
<title>Node1&#45;&gt;Node3</title>
<g id="a_edge2_Node000001_Node000003"><a xlink:title=" ">
<path fill="none" stroke="#63b8ff" d="M101.05,-46.96C108.89,-37.72 118.33,-26.6 124.71,-19.09"/>
<polygon fill="#63b8ff" stroke="#63b8ff" points="98.24,-44.86 94.43,-54.75 103.57,-49.39 98.24,-44.86"/>
</a>
</g>
</g>
</g>
</svg>
