<?xml version="1.0" encoding="UTF-8" standalone="no"?>
<!DOCTYPE svg PUBLIC "-//W3C//DTD SVG 1.1//EN"
 "http://www.w3.org/Graphics/SVG/1.1/DTD/svg11.dtd">
<!-- Generated by graphviz version 2.43.0 (0)
 -->
<!-- Title: CW_Logger Pages: 1 -->
<svg width="347pt" height="82pt"
 viewBox="0.00 0.00 347.00 82.00" xmlns="http://www.w3.org/2000/svg" xmlns:xlink="http://www.w3.org/1999/xlink">
<g id="graph0" class="graph" transform="scale(1 1) rotate(0) translate(4 78)">
<title>CW_Logger</title>
<!-- Node1 -->
<g id="Node000001" class="node">
<title>Node1</title>
<g id="a_Node000001"><a xlink:title="Abstract interface for serial/debug output.">
<polygon fill="#999999" stroke="#666666" points="232,-74 161,-74 161,-55 232,-55 232,-74"/>
<text text-anchor="middle" x="196.5" y="-62" font-family="Helvetica,sans-Serif" font-size="10.00">CW_Logger</text>
</a>
</g>
</g>
<!-- Node2 -->
<g id="Node000002" class="node">
<title>Node2</title>
<g id="a_Node000002"><a xlink:href="classArduinoLoggerAdapter.html" target="_top" xlink:title="CW_Logger implementation wrapping Arduino&#39;s HardwareSerial.">
<polygon fill="white" stroke="#666666" points="125,-19 0,-19 0,0 125,0 125,-19"/>
<text text-anchor="middle" x="62.5" y="-7" font-family="Helvetica,sans-Serif" font-size="10.00">ArduinoLoggerAdapter</text>
</a>
</g>
</g>
<!-- Node1&#45;&gt;Node2 -->
<g id="edge1_Node000001_Node000002" class="edge">
<title>Node1&#45;&gt;Node2</title>
<g id="a_edge1_Node000001_Node000002"><a xlink:title=" ">
<path fill="none" stroke="#63b8ff" d="M165.63,-51.29C140.8,-41.47 106.51,-27.91 84.42,-19.17"/>
<polygon fill="#63b8ff" stroke="#63b8ff" points="164.38,-54.56 174.97,-54.98 166.96,-48.05 164.38,-54.56"/>
</a>
</g>
</g>
<!-- Node3 -->
<g id="Node000003" class="node">
<title>Node3</title>
<g id="a_Node000003"><a xlink:href="classNullLoggerAdapter.html" target="_top" xlink:title="No&#45;op CW_Logger — guarantees nothing reaches the serial port.">
<polygon fill="white" stroke="#666666" points="250,-19 143,-19 143,0 250,0 250,-19"/>
<text text-anchor="middle" x="196.5" y="-7" font-family="Helvetica,sans-Serif" font-size="10.00">NullLoggerAdapter</text>
</a>
</g>
</g>
<!-- Node1&#45;&gt;Node3 -->
<g id="edge2_Node000001_Node000003" class="edge">
<title>Node1&#45;&gt;Node3</title>
<g id="a_edge2_Node000001_Node000003"><a xlink:title=" ">
<path fill="none" stroke="#63b8ff" d="M196.5,-44.66C196.5,-35.93 196.5,-25.99 196.5,-19.09"/>
<polygon fill="#63b8ff" stroke="#63b8ff" points="193,-44.75 196.5,-54.75 200,-44.75 193,-44.75"/>
</a>
</g>
</g>
<!-- Node4 -->
<g id="Node000004" class="node">
<title>Node4</title>
<g id="a_Node000004"><a xlink:href="classStubLogger.html" target="_top" xlink:title=" ">
<polygon fill="white" stroke="#666666" points="339,-19 268,-19 268,0 339,0 339,-19"/>
<text text-anchor="middle" x="303.5" y="-7" font-family="Helvetica,sans-Serif" font-size="10.00">StubLogger</text>
</a>
</g>
</g>
<!-- Node1&#45;&gt;Node4 -->
<g id="edge3_Node000001_Node000004" class="edge">
<title>Node1&#45;&gt;Node4</title>
<g id="a_edge3_Node000001_Node000004"><a xlink:title=" ">
<path fill="none" stroke="#63b8ff" d="M222.74,-50.5C242.43,-40.75 268.82,-27.68 286,-19.17"/>
<polygon fill="#63b8ff" stroke="#63b8ff" points="221.1,-47.41 213.69,-54.98 224.21,-53.68 221.1,-47.41"/>
</a>
</g>
</g>
</g>
</svg>
