<?xml version="1.0" encoding="UTF-8" standalone="no"?>
<!DOCTYPE svg PUBLIC "-//W3C//DTD SVG 1.1//EN"
 "http://www.w3.org/Graphics/SVG/1.1/DTD/svg11.dtd">
<!-- Generated by graphviz version 2.43.0 (0)
 -->
<!-- Title: CW_SecureChannel Pages: 1 -->
<svg width="425pt" height="99pt"
 viewBox="0.00 0.00 425.00 99.00" xmlns="http://www.w3.org/2000/svg" xmlns:xlink="http://www.w3.org/1999/xlink">
<g id="graph0" class="graph" transform="scale(1 1) rotate(0) translate(4 95)">
<title>CW_SecureChannel</title>
<!-- Node1 -->
<g id="Node000001" class="node">
<title>Node1</title>
<g id="a_Node000001"><a xlink:title="Implements the Cryptnox secure channel protocol over NFC.">
<polygon fill="#999999" stroke="#666666" points="263.5,-19 152.5,-19 152.5,0 263.5,0 263.5,-19"/>
<text text-anchor="middle" x="208" y="-7" font-family="Helvetica,sans-Serif" font-size="10.00">CW_SecureChannel</text>
</a>
</g>
</g>
<!-- Node2 -->
<g id="Node000002" class="node">
<title>Node2</title>
<g id="a_Node000002"><a xlink:href="classCW__NfcTransport.html" target="_top" xlink:title="Abstract interface for NFC transport operations.">
<polygon fill="white" stroke="#666666" points="100,-91 0,-91 0,-72 100,-72 100,-91"/>
<text text-anchor="middle" x="50" y="-79" font-family="Helvetica,sans-Serif" font-size="10.00">CW_NfcTransport</text>
</a>
</g>
</g>
<!-- Node2&#45;&gt;Node1 -->
<g id="edge1_Node000001_Node000002" class="edge">
<title>Node2&#45;&gt;Node1</title>
<g id="a_edge1_Node000001_Node000002"><a xlink:title=" ">
<path fill="none" stroke="#9a32cd" stroke-dasharray="5,2" d="M73.37,-66.65C89.29,-57.54 111.02,-45.74 131,-37 146.8,-30.09 165.03,-23.75 179.78,-19"/>
<polygon fill="#9a32cd" stroke="#9a32cd" points="71.18,-63.87 64.28,-71.92 74.69,-69.93 71.18,-63.87"/>
</a>
</g>
<text text-anchor="start" x="134" y="-42.5" font-family="Helvetica,sans-Serif" font-size="10.00" fill="grey">_driver</text>
</g>
<!-- Node3 -->
<g id="Node000003" class="node">
<title>Node3</title>
<g id="a_Node000003"><a xlink:href="classCW__Logger.html" target="_top" xlink:title="Abstract interface for serial/debug output.">
<polygon fill="white" stroke="#666666" points="189.5,-91 118.5,-91 118.5,-72 189.5,-72 189.5,-91"/>
<text text-anchor="middle" x="154" y="-79" font-family="Helvetica,sans-Serif" font-size="10.00">CW_Logger</text>
</a>
</g>
</g>
<!-- Node3&#45;&gt;Node1 -->
<g id="edge2_Node000001_Node000003" class="edge">
<title>Node3&#45;&gt;Node1</title>
<g id="a_edge2_Node000001_Node000003"><a xlink:title=" ">
<path fill="none" stroke="#9a32cd" stroke-dasharray="5,2" d="M167.03,-63.62C177.84,-49.59 192.8,-30.21 201.32,-19.15"/>
<polygon fill="#9a32cd" stroke="#9a32cd" points="163.96,-61.86 160.62,-71.92 169.5,-66.14 163.96,-61.86"/>
</a>
</g>
<text text-anchor="start" x="190.5" y="-42.5" font-family="Helvetica,sans-Serif" font-size="10.00" fill="grey">_logger</text>
</g>
<!-- Node4 -->
<g id="Node000004" class="node">
<title>Node4</title>
<g id="a_Node000004"><a xlink:href="classCW__CryptoProvider.html" target="_top" xlink:title="Abstract interface for cryptographic operations used by CW_SecureChannel.">
<polygon fill="white" stroke="#666666" points="318.5,-91 207.5,-91 207.5,-72 318.5,-72 318.5,-91"/>
<text text-anchor="middle" x="263" y="-79" font-family="Helvetica,sans-Serif" font-size="10.00">CW_CryptoProvider</text>
</a>
</g>
</g>
<!-- Node4&#45;&gt;Node1 -->
<g id="edge3_Node000001_Node000004" class="edge">
<title>Node4&#45;&gt;Node1</title>
<g id="a_edge3_Node000001_Node000004"><a xlink:title=" ">
<path fill="none" stroke="#9a32cd" stroke-dasharray="5,2" d="M252.48,-63.13C247.26,-54.94 240.66,-45.2 234,-37 228.96,-30.8 222.71,-24.38 217.59,-19.42"/>
<polygon fill="#9a32cd" stroke="#9a32cd" points="249.64,-65.18 257.89,-71.83 255.58,-61.49 249.64,-65.18"/>
</a>
</g>
<text text-anchor="start" x="248.5" y="-42.5" font-family="Helvetica,sans-Serif" font-size="10.00" fill="grey">_crypto</text>
</g>
<!-- Node5 -->
<g id="Node000005" class="node">
<title>Node5</title>
<g id="a_Node000005"><a xlink:href="classCW__Platform.html" target="_top" xlink:title="Abstract interface for platform&#45;specific operations used by the SDK.">
<polygon fill="white" stroke="#666666" points="417,-91 337,-91 337,-72 417,-72 417,-91"/>
<text text-anchor="middle" x="377" y="-79" font-family="Helvetica,sans-Serif" font-size="10.00">CW_Platform</text>
</a>
</g>
</g>
<!-- Node5&#45;&gt;Node1 -->
<g id="edge4_Node000001_Node000005" class="edge">
<title>Node5&#45;&gt;Node1</title>
<g id="a_edge4_Node000001_Node000005"><a xlink:title=" ">
<path fill="none" stroke="#9a32cd" stroke-dasharray="5,2" d="M352.93,-66.81C336.19,-57.63 313.15,-45.68 292,-37 275.02,-30.04 255.5,-23.78 239.56,-19.09"/>
<polygon fill="#9a32cd" stroke="#9a32cd" points="351.57,-70.06 362.01,-71.85 354.96,-63.94 351.57,-70.06"/>
</a>
</g>
<text text-anchor="start" x="330" y="-42.5" font-family="Helvetica,sans-Serif" font-size="10.00" fill="grey">_platform</text>
</g>
</g>
</svg>
