<?xml version="1.0" encoding="UTF-8" standalone="no"?>
<!DOCTYPE svg PUBLIC "-//W3C//DTD SVG 1.1//EN"
 "http://www.w3.org/Graphics/SVG/1.1/DTD/svg11.dtd">
<!-- Generated by graphviz version 2.43.0 (0)
 -->
<!-- Title: CW_CryptoProvider Pages: 1 -->
<svg width="224pt" height="82pt"
 viewBox="0.00 0.00 224.00 82.00" xmlns="http://www.w3.org/2000/svg" xmlns:xlink="http://www.w3.org/1999/xlink">
<g id="graph0" class="graph" transform="scale(1 1) rotate(0) translate(4 78)">
<title>CW_CryptoProvider</title>
<!-- Node1 -->
<g id="Node000001" class="node">
<title>Node1</title>
<g id="a_Node000001"><a xlink:title="Abstract interface for cryptographic operations used by CW_SecureChannel.">
<polygon fill="#999999" stroke="#666666" points="177,-74 66,-74 66,-55 177,-55 177,-74"/>
<text text-anchor="middle" x="121.5" y="-62" font-family="Helvetica,sans-Serif" font-size="10.00">CW_CryptoProvider</text>
</a>
</g>
</g>
<!-- Node2 -->
<g id="Node000002" class="node">
<title>Node2</title>
<g id="a_Node000002"><a xlink:href="classArduinoCryptoProvider.html" target="_top" xlink:title="CW_CryptoProvider implementation for the Arduino UNO R4 (RA4M1).">
<polygon fill="white" stroke="#666666" points="127,-19 0,-19 0,0 127,0 127,-19"/>
<text text-anchor="middle" x="63.5" y="-7" font-family="Helvetica,sans-Serif" font-size="10.00">ArduinoCryptoProvider</text>
</a>
</g>
</g>
<!-- Node1&#45;&gt;Node2 -->
<g id="edge1_Node000001_Node000002" class="edge">
<title>Node1&#45;&gt;Node2</title>
<g id="a_edge1_Node000001_Node000002"><a xlink:title=" ">
<path fill="none" stroke="#63b8ff" d="M104.59,-48.04C94.3,-38.64 81.53,-26.98 72.99,-19.17"/>
<polygon fill="#63b8ff" stroke="#63b8ff" points="102.44,-50.82 112.18,-54.98 107.16,-45.66 102.44,-50.82"/>
</a>
</g>
</g>
<!-- Node3 -->
<g id="Node000003" class="node">
<title>Node3</title>
<g id="a_Node000003"><a xlink:href="classStubCrypto.html" target="_top" xlink:title=" ">
<polygon fill="white" stroke="#666666" points="216,-19 145,-19 145,0 216,0 216,-19"/>
<text text-anchor="middle" x="180.5" y="-7" font-family="Helvetica,sans-Serif" font-size="10.00">StubCrypto</text>
</a>
</g>
</g>
<!-- Node1&#45;&gt;Node3 -->
<g id="edge2_Node000001_Node000003" class="edge">
<title>Node1&#45;&gt;Node3</title>
<g id="a_edge2_Node000001_Node000003"><a xlink:title=" ">
<path fill="none" stroke="#63b8ff" d="M138.7,-48.04C149.17,-38.64 162.15,-26.98 170.85,-19.17"/>
<polygon fill="#63b8ff" stroke="#63b8ff" points="136.08,-45.7 130.98,-54.98 140.76,-50.91 136.08,-45.7"/>
</a>
</g>
</g>
</g>
</svg>
