<?xml version="1.0" encoding="UTF-8" standalone="no"?>
<!DOCTYPE svg PUBLIC "-//W3C//DTD SVG 1.1//EN"
 "http://www.w3.org/Graphics/SVG/1.1/DTD/svg11.dtd">
<!-- Generated by graphviz version 2.43.0 (0)
 -->
<!-- Title: src/CryptnoxWallet.h Pages: 1 -->
<svg width="1249pt" height="456pt"
 viewBox="0.00 0.00 1248.97 456.00" xmlns="http://www.w3.org/2000/svg" xmlns:xlink="http://www.w3.org/1999/xlink">
<g id="graph0" class="graph" transform="scale(1 1) rotate(0) translate(4 452)">
<title>src/CryptnoxWallet.h</title>
<!-- Node1 -->
<g id="Node000001" class="node">
<title>Node1</title>
<g id="a_Node000001"><a xlink:title="Umbrella include and module&#45;group anchor for the CryptnoxWallet Arduino library.">
<polygon fill="#999999" stroke="#666666" points="603,-448 485,-448 485,-429 603,-429 603,-448"/>
<text text-anchor="middle" x="544" y="-436" font-family="Helvetica,sans-Serif" font-size="10.00">src/CryptnoxWallet.h</text>
</a>
</g>
</g>
<!-- Node2 -->
<g id="Node000002" class="node">
<title>Node2</title>
<g id="a_Node000002"><a xlink:href="CW__Defs_8h.html" target="_top" xlink:title="Shared constants, error codes, and session state for the SDK.">
<polygon fill="white" stroke="#666666" points="393.5,-195 272.5,-195 272.5,-165 393.5,-165 393.5,-195"/>
<text text-anchor="start" x="280.5" y="-183" font-family="Helvetica,sans-Serif" font-size="10.00">cryptnox&#45;sdk&#45;cpp/CW</text>
<text text-anchor="middle" x="333" y="-172" font-family="Helvetica,sans-Serif" font-size="10.00">_Defs.h</text>
</a>
</g>
</g>
<!-- Node1&#45;&gt;Node2 -->
<g id="edge1_Node000001_Node000002" class="edge">
<title>Node1&#45;&gt;Node2</title>
<g id="a_edge1_Node000001_Node000002"><a xlink:title=" ">
<path fill="none" stroke="#63b8ff" d="M484.97,-435.29C378.14,-430.67 161.66,-418.29 139,-393 104.85,-354.89 79.2,-332.79 179,-231 201.01,-208.55 233.19,-196.17 262.45,-189.35"/>
<polygon fill="#63b8ff" stroke="#63b8ff" points="263.2,-192.77 272.24,-187.24 261.72,-185.93 263.2,-192.77"/>
</a>
</g>
</g>
<!-- Node8 -->
<g id="Node000008" class="node">
<title>Node8</title>
<g id="a_Node000008"><a xlink:href="CW__Utils_8h.html" target="_top" xlink:title="Platform&#45;independent security and memory utilities.">
<polygon fill="white" stroke="#666666" points="70,-129 0,-129 0,-110 70,-110 70,-129"/>
<text text-anchor="middle" x="35" y="-117" font-family="Helvetica,sans-Serif" font-size="10.00">CW_Utils.h</text>
</a>
</g>
</g>
<!-- Node1&#45;&gt;Node8 -->
<g id="edge26_Node000001_Node000008" class="edge">
<title>Node1&#45;&gt;Node8</title>
<g id="a_edge26_Node000001_Node000008"><a xlink:title=" ">
<path fill="none" stroke="#63b8ff" d="M484.93,-435.88C382.68,-432.34 177.38,-421.78 112,-393 63.02,-371.44 22,-366.52 22,-313 22,-313 22,-313 22,-245 22,-207.29 27.97,-163.5 31.82,-139.2"/>
<polygon fill="#63b8ff" stroke="#63b8ff" points="35.29,-139.66 33.46,-129.22 28.39,-138.52 35.29,-139.66"/>
</a>
</g>
</g>
<!-- Node9 -->
<g id="Node000009" class="node">
<title>Node9</title>
<g id="a_Node000009"><a xlink:href="CW__NfcTransport_8h.html" target="_top" xlink:title="Abstract NFC transport interface.">
<polygon fill="white" stroke="#666666" points="825.5,-261 704.5,-261 704.5,-231 825.5,-231 825.5,-261"/>
<text text-anchor="start" x="712.5" y="-249" font-family="Helvetica,sans-Serif" font-size="10.00">cryptnox&#45;sdk&#45;cpp/CW</text>
<text text-anchor="middle" x="765" y="-238" font-family="Helvetica,sans-Serif" font-size="10.00">_NfcTransport.h</text>
</a>
</g>
</g>
<!-- Node1&#45;&gt;Node9 -->
<g id="edge9_Node000001_Node000009" class="edge">
<title>Node1&#45;&gt;Node9</title>
<g id="a_edge9_Node000001_Node000009"><a xlink:title=" ">
<path fill="none" stroke="#63b8ff" d="M585.81,-428.94C636.25,-416.19 719.23,-386.99 759,-327 769.8,-310.72 770.56,-288.26 769.05,-271.28"/>
<polygon fill="#63b8ff" stroke="#63b8ff" points="772.48,-270.54 767.81,-261.04 765.54,-271.39 772.48,-270.54"/>
</a>
</g>
</g>
<!-- Node10 -->
<g id="Node000010" class="node">
<title>Node10</title>
<g id="a_Node000010"><a xlink:href="CW__Logger_8h.html" target="_top" xlink:title="Abstract logging interface.">
<polygon fill="white" stroke="#666666" points="1203.5,-261 1082.5,-261 1082.5,-231 1203.5,-231 1203.5,-261"/>
<text text-anchor="start" x="1090.5" y="-249" font-family="Helvetica,sans-Serif" font-size="10.00">cryptnox&#45;sdk&#45;cpp/CW</text>
<text text-anchor="middle" x="1143" y="-238" font-family="Helvetica,sans-Serif" font-size="10.00">_Logger.h</text>
</a>
</g>
</g>
<!-- Node1&#45;&gt;Node10 -->
<g id="edge12_Node000001_Node000010" class="edge">
<title>Node1&#45;&gt;Node10</title>
<g id="a_edge12_Node000001_Node000010"><a xlink:title=" ">
<path fill="none" stroke="#63b8ff" d="M603.02,-437.7C755.62,-436.8 1156.81,-424.99 1235,-327 1254.29,-302.83 1221.61,-280.2 1189.99,-265.21"/>
<polygon fill="#63b8ff" stroke="#63b8ff" points="1191.26,-261.95 1180.7,-261.01 1188.37,-268.32 1191.26,-261.95"/>
</a>
</g>
</g>
<!-- Node11 -->
<g id="Node000011" class="node">
<title>Node11</title>
<g id="a_Node000011"><a xlink:href="CW__CryptoProvider_8h.html" target="_top" xlink:title="Abstract cryptographic primitives interface.">
<polygon fill="white" stroke="#666666" points="501.5,-261 380.5,-261 380.5,-231 501.5,-231 501.5,-261"/>
<text text-anchor="start" x="388.5" y="-249" font-family="Helvetica,sans-Serif" font-size="10.00">cryptnox&#45;sdk&#45;cpp/CW</text>
<text text-anchor="middle" x="441" y="-238" font-family="Helvetica,sans-Serif" font-size="10.00">_CryptoProvider.h</text>
</a>
</g>
</g>
<!-- Node1&#45;&gt;Node11 -->
<g id="edge14_Node000001_Node000011" class="edge">
<title>Node1&#45;&gt;Node11</title>
<g id="a_edge14_Node000001_Node000011"><a xlink:title=" ">
<path fill="none" stroke="#63b8ff" d="M505.34,-428.91C457.46,-415.96 377.96,-386.36 343,-327 336.23,-315.51 336.04,-308.37 343,-297 351.59,-282.97 365.49,-272.72 380.16,-265.3"/>
<polygon fill="#63b8ff" stroke="#63b8ff" points="381.76,-268.42 389.35,-261.03 378.81,-262.07 381.76,-268.42"/>
</a>
</g>
</g>
<!-- Node12 -->
<g id="Node000012" class="node">
<title>Node12</title>
<g id="a_Node000012"><a xlink:href="CW__Platform_8h.html" target="_top" xlink:title="Abstract platform interface for timing primitives.">
<polygon fill="white" stroke="#666666" points="323.5,-261 202.5,-261 202.5,-231 323.5,-231 323.5,-261"/>
<text text-anchor="start" x="210.5" y="-249" font-family="Helvetica,sans-Serif" font-size="10.00">cryptnox&#45;sdk&#45;cpp/CW</text>
<text text-anchor="middle" x="263" y="-238" font-family="Helvetica,sans-Serif" font-size="10.00">_Platform.h</text>
</a>
</g>
</g>
<!-- Node1&#45;&gt;Node12 -->
<g id="edge17_Node000001_Node000012" class="edge">
<title>Node1&#45;&gt;Node12</title>
<g id="a_edge17_Node000001_Node000012"><a xlink:title=" ">
<path fill="none" stroke="#63b8ff" d="M484.67,-432.45C448.95,-427.07 403.97,-415.96 370,-393 323.52,-361.58 289.83,-302.98 273.7,-270.39"/>
<polygon fill="#63b8ff" stroke="#63b8ff" points="276.75,-268.66 269.26,-261.17 270.44,-271.69 276.75,-268.66"/>
</a>
</g>
</g>
<!-- Node13 -->
<g id="Node000013" class="node">
<title>Node13</title>
<g id="a_Node000013"><a xlink:href="CW__SecureChannel_8h.html" target="_top" xlink:title="Cryptnox secure channel protocol over NFC.">
<polygon fill="white" stroke="#666666" points="473.5,-327 352.5,-327 352.5,-297 473.5,-297 473.5,-327"/>
<text text-anchor="start" x="360.5" y="-315" font-family="Helvetica,sans-Serif" font-size="10.00">cryptnox&#45;sdk&#45;cpp/CW</text>
<text text-anchor="middle" x="413" y="-304" font-family="Helvetica,sans-Serif" font-size="10.00">_SecureChannel.h</text>
</a>
</g>
</g>
<!-- Node1&#45;&gt;Node13 -->
<g id="edge19_Node000001_Node000013" class="edge">
<title>Node1&#45;&gt;Node13</title>
<g id="a_edge19_Node000001_Node000013"><a xlink:title=" ">
<path fill="none" stroke="#63b8ff" d="M535,-428.94C514.62,-409.58 464.47,-361.92 435.21,-334.11"/>
<polygon fill="#63b8ff" stroke="#63b8ff" points="437.56,-331.51 427.9,-327.16 432.74,-336.59 437.56,-331.51"/>
</a>
</g>
</g>
<!-- Node14 -->
<g id="Node000014" class="node">
<title>Node14</title>
<g id="a_Node000014"><a xlink:href="cryptnox-sdk-cpp_2CryptnoxWallet_8h.html" target="_top" xlink:title="High&#45;level API for interacting with a Cryptnox Hardware Wallet over NFC.">
<polygon fill="white" stroke="#666666" points="297.5,-393 148.5,-393 148.5,-363 297.5,-363 297.5,-393"/>
<text text-anchor="start" x="156.5" y="-381" font-family="Helvetica,sans-Serif" font-size="10.00">cryptnox&#45;sdk&#45;cpp/Cryptnox</text>
<text text-anchor="middle" x="223" y="-370" font-family="Helvetica,sans-Serif" font-size="10.00">Wallet.h</text>
</a>
</g>
</g>
<!-- Node1&#45;&gt;Node14 -->
<g id="edge27_Node000001_Node000014" class="edge">
<title>Node1&#45;&gt;Node14</title>
<g id="a_edge27_Node000001_Node000014"><a xlink:title=" ">
<path fill="none" stroke="#63b8ff" d="M497.32,-428.99C447.74,-419.96 368.31,-405.48 307.65,-394.43"/>
<polygon fill="#63b8ff" stroke="#63b8ff" points="308.17,-390.96 297.7,-392.61 306.91,-397.85 308.17,-390.96"/>
</a>
</g>
</g>
<!-- Node15 -->
<g id="Node000015" class="node">
<title>Node15</title>
<g id="a_Node000015"><a xlink:href="ArduinoLoggerAdapter_8h.html" target="_top" xlink:title="Concrete CW_Logger over HardwareSerial for development builds.">
<polygon fill="white" stroke="#666666" points="1054,-321.5 920,-321.5 920,-302.5 1054,-302.5 1054,-321.5"/>
<text text-anchor="middle" x="987" y="-309.5" font-family="Helvetica,sans-Serif" font-size="10.00">ArduinoLoggerAdapter.h</text>
</a>
</g>
</g>
<!-- Node1&#45;&gt;Node15 -->
<g id="edge34_Node000001_Node000015" class="edge">
<title>Node1&#45;&gt;Node15</title>
<g id="a_edge34_Node000001_Node000015"><a xlink:title=" ">
<path fill="none" stroke="#63b8ff" d="M603.19,-433.08C660.27,-427.64 748.57,-416.12 822,-393 875.39,-376.19 933.27,-344.74 964.29,-326.68"/>
<polygon fill="#63b8ff" stroke="#63b8ff" points="966.18,-329.63 973.02,-321.54 962.63,-323.6 966.18,-329.63"/>
</a>
</g>
</g>
<!-- Node17 -->
<g id="Node000017" class="node">
<title>Node17</title>
<g id="a_Node000017"><a xlink:href="NullLoggerAdapter_8h.html" target="_top" xlink:title="Silent CW_Logger for production firmware.">
<polygon fill="white" stroke="#666666" points="1226,-321.5 1110,-321.5 1110,-302.5 1226,-302.5 1226,-321.5"/>
<text text-anchor="middle" x="1168" y="-309.5" font-family="Helvetica,sans-Serif" font-size="10.00">NullLoggerAdapter.h</text>
</a>
</g>
</g>
<!-- Node1&#45;&gt;Node17 -->
<g id="edge37_Node000001_Node000017" class="edge">
<title>Node1&#45;&gt;Node17</title>
<g id="a_edge37_Node000001_Node000017"><a xlink:title=" ">
<path fill="none" stroke="#63b8ff" d="M603.27,-431.69C668.89,-424.73 777.61,-411.63 870,-393 965.16,-373.81 1074.93,-341.7 1130.93,-324.58"/>
<polygon fill="#63b8ff" stroke="#63b8ff" points="1132.22,-327.85 1140.75,-321.56 1130.16,-321.15 1132.22,-327.85"/>
</a>
</g>
</g>
<!-- Node18 -->
<g id="Node000018" class="node">
<title>Node18</title>
<g id="a_Node000018"><a xlink:href="ArduinoCryptoProvider_8h.html" target="_top" xlink:title="Concrete CW_CryptoProvider for the Arduino UNO R4 (RA4M1).">
<polygon fill="white" stroke="#666666" points="749.5,-321.5 614.5,-321.5 614.5,-302.5 749.5,-302.5 749.5,-321.5"/>
<text text-anchor="middle" x="682" y="-309.5" font-family="Helvetica,sans-Serif" font-size="10.00">ArduinoCryptoProvider.h</text>
</a>
</g>
</g>
<!-- Node1&#45;&gt;Node18 -->
<g id="edge40_Node000001_Node000018" class="edge">
<title>Node1&#45;&gt;Node18</title>
<g id="a_edge40_Node000001_Node000018"><a xlink:title=" ">
<path fill="none" stroke="#63b8ff" d="M553.49,-428.94C576.43,-408.24 635.21,-355.21 664.65,-328.65"/>
<polygon fill="#63b8ff" stroke="#63b8ff" points="667.37,-330.91 672.45,-321.62 662.68,-325.72 667.37,-330.91"/>
</a>
</g>
</g>
<!-- Node21 -->
<g id="Node000021" class="node">
<title>Node21</title>
<g id="a_Node000021"><a xlink:href="ArduinoPlatform_8h.html" target="_top" xlink:title="Concrete CW_Platform over Arduino&#39;s delay().">
<polygon fill="white" stroke="#666666" points="596.5,-321.5 491.5,-321.5 491.5,-302.5 596.5,-302.5 596.5,-321.5"/>
<text text-anchor="middle" x="544" y="-309.5" font-family="Helvetica,sans-Serif" font-size="10.00">ArduinoPlatform.h</text>
</a>
</g>
</g>
<!-- Node1&#45;&gt;Node21 -->
<g id="edge45_Node000001_Node000021" class="edge">
<title>Node1&#45;&gt;Node21</title>
<g id="a_edge45_Node000001_Node000021"><a xlink:title=" ">
<path fill="none" stroke="#63b8ff" d="M544,-428.94C544,-409.04 544,-359.26 544,-331.85"/>
<polygon fill="#63b8ff" stroke="#63b8ff" points="547.5,-331.62 544,-321.62 540.5,-331.62 547.5,-331.62"/>
</a>
</g>
</g>
<!-- Node22 -->
<g id="Node000022" class="node">
<title>Node22</title>
<g id="a_Node000022"><a xlink:href="PN532Adapter_8h.html" target="_top" xlink:title="Concrete CW_NfcTransport over Adafruit_PN532 (SPI / I2C / UART).">
<polygon fill="white" stroke="#666666" points="901.5,-321.5 806.5,-321.5 806.5,-302.5 901.5,-302.5 901.5,-321.5"/>
<text text-anchor="middle" x="854" y="-309.5" font-family="Helvetica,sans-Serif" font-size="10.00">PN532Adapter.h</text>
</a>
</g>
</g>
<!-- Node1&#45;&gt;Node22 -->
<g id="edge48_Node000001_Node000022" class="edge">
<title>Node1&#45;&gt;Node22</title>
<g id="a_edge48_Node000001_Node000022"><a xlink:title=" ">
<path fill="none" stroke="#63b8ff" d="M603.17,-431.81C666.17,-424.9 760.99,-411.78 792,-393 816.72,-378.03 835.26,-349.28 845.37,-330.63"/>
<polygon fill="#63b8ff" stroke="#63b8ff" points="848.5,-332.19 849.98,-321.7 842.28,-328.98 848.5,-332.19"/>
</a>
</g>
</g>
<!-- Node3 -->
<g id="Node000003" class="node">
<title>Node3</title>
<g id="a_Node000003"><a xlink:href="platform__compat_8h.html" target="_top" xlink:title="Arduino compatibility shims for non&#45;Arduino (plain C++) builds.">
<polygon fill="white" stroke="#666666" points="515,-74 405,-74 405,-55 515,-55 515,-74"/>
<text text-anchor="middle" x="460" y="-62" font-family="Helvetica,sans-Serif" font-size="10.00">platform_compat.h</text>
</a>
</g>
</g>
<!-- Node2&#45;&gt;Node3 -->
<g id="edge2_Node000002_Node000003" class="edge">
<title>Node2&#45;&gt;Node3</title>
<g id="a_edge2_Node000002_Node000003"><a xlink:title=" ">
<path fill="none" stroke="#63b8ff" d="M348.08,-164.83C363.12,-150.77 386.96,-128.67 408,-110 419.11,-100.14 431.77,-89.3 441.81,-80.79"/>
<polygon fill="#63b8ff" stroke="#63b8ff" points="444.16,-83.38 449.55,-74.26 439.65,-78.04 444.16,-83.38"/>
</a>
</g>
</g>
<!-- Node2&#45;&gt;Node8 -->
<g id="edge7_Node000002_Node000008" class="edge">
<title>Node2&#45;&gt;Node8</title>
<g id="a_edge7_Node000002_Node000008"><a xlink:title=" ">
<path fill="none" stroke="#63b8ff" d="M272.34,-167.09C215.5,-155.93 131.82,-139.51 80.51,-129.43"/>
<polygon fill="#63b8ff" stroke="#63b8ff" points="80.87,-125.94 70.38,-127.45 79.52,-132.81 80.87,-125.94"/>
</a>
</g>
</g>
<!-- Node4 -->
<g id="Node000004" class="node">
<title>Node4</title>
<g id="a_Node000004"><a xlink:title=" ">
<polygon fill="#e0e0e0" stroke="#999999" points="689.5,-19 636.5,-19 636.5,0 689.5,0 689.5,-19"/>
<text text-anchor="middle" x="663" y="-7" font-family="Helvetica,sans-Serif" font-size="10.00">stdint.h</text>
</a>
</g>
</g>
<!-- Node3&#45;&gt;Node4 -->
<g id="edge3_Node000003_Node000004" class="edge">
<title>Node3&#45;&gt;Node4</title>
<g id="a_edge3_Node000003_Node000004"><a xlink:title=" ">
<path fill="none" stroke="#63b8ff" d="M492.62,-54.98C529.09,-45.46 588.02,-30.08 626.14,-20.12"/>
<polygon fill="#63b8ff" stroke="#63b8ff" points="627.51,-23.38 636.3,-17.47 625.74,-16.61 627.51,-23.38"/>
</a>
</g>
</g>
<!-- Node5 -->
<g id="Node000005" class="node">
<title>Node5</title>
<g id="a_Node000005"><a xlink:title=" ">
<polygon fill="#e0e0e0" stroke="#999999" points="565,-19 509,-19 509,0 565,0 565,-19"/>
<text text-anchor="middle" x="537" y="-7" font-family="Helvetica,sans-Serif" font-size="10.00">stddef.h</text>
</a>
</g>
</g>
<!-- Node3&#45;&gt;Node5 -->
<g id="edge4_Node000003_Node000005" class="edge">
<title>Node3&#45;&gt;Node5</title>
<g id="a_edge4_Node000003_Node000005"><a xlink:title=" ">
<path fill="none" stroke="#63b8ff" d="M472.37,-54.98C484.09,-46.92 501.92,-34.65 515.89,-25.03"/>
<polygon fill="#63b8ff" stroke="#63b8ff" points="518.15,-27.72 524.4,-19.17 514.18,-21.96 518.15,-27.72"/>
</a>
</g>
</g>
<!-- Node6 -->
<g id="Node000006" class="node">
<title>Node6</title>
<g id="a_Node000006"><a xlink:title=" ">
<polygon fill="#e0e0e0" stroke="#999999" points="410.5,-19 357.5,-19 357.5,0 410.5,0 410.5,-19"/>
<text text-anchor="middle" x="384" y="-7" font-family="Helvetica,sans-Serif" font-size="10.00">string.h</text>
</a>
</g>
</g>
<!-- Node3&#45;&gt;Node6 -->
<g id="edge5_Node000003_Node000006" class="edge">
<title>Node3&#45;&gt;Node6</title>
<g id="a_edge5_Node000003_Node000006"><a xlink:title=" ">
<path fill="none" stroke="#63b8ff" d="M447.79,-54.98C436.22,-46.92 418.62,-34.65 404.84,-25.03"/>
<polygon fill="#63b8ff" stroke="#63b8ff" points="406.64,-22.02 396.43,-19.17 402.63,-27.76 406.64,-22.02"/>
</a>
</g>
</g>
<!-- Node7 -->
<g id="Node000007" class="node">
<title>Node7</title>
<g id="a_Node000007"><a xlink:title=" ">
<polygon fill="#e0e0e0" stroke="#999999" points="491,-19 429,-19 429,0 491,0 491,-19"/>
<text text-anchor="middle" x="460" y="-7" font-family="Helvetica,sans-Serif" font-size="10.00">stdbool.h</text>
</a>
</g>
</g>
<!-- Node3&#45;&gt;Node7 -->
<g id="edge6_Node000003_Node000007" class="edge">
<title>Node3&#45;&gt;Node7</title>
<g id="a_edge6_Node000003_Node000007"><a xlink:title=" ">
<path fill="none" stroke="#63b8ff" d="M460,-54.75C460,-47.8 460,-37.85 460,-29.13"/>
<polygon fill="#63b8ff" stroke="#63b8ff" points="463.5,-29.09 460,-19.09 456.5,-29.09 463.5,-29.09"/>
</a>
</g>
</g>
<!-- Node8&#45;&gt;Node3 -->
<g id="edge8_Node000008_Node000003" class="edge">
<title>Node8&#45;&gt;Node3</title>
<g id="a_edge8_Node000008_Node000003"><a xlink:title=" ">
<path fill="none" stroke="#63b8ff" d="M70.03,-112.19C74.72,-111.41 79.47,-110.66 84,-110 192.56,-94.17 319.38,-80.07 394.52,-72.17"/>
<polygon fill="#63b8ff" stroke="#63b8ff" points="395.18,-75.62 404.77,-71.09 394.46,-68.65 395.18,-75.62"/>
</a>
</g>
</g>
<!-- Node9&#45;&gt;Node3 -->
<g id="edge10_Node000009_Node000003" class="edge">
<title>Node9&#45;&gt;Node3</title>
<g id="a_edge10_Node000009_Node000003"><a xlink:title=" ">
<path fill="none" stroke="#63b8ff" d="M743,-230.94C703.56,-205.88 618.03,-152.17 544,-110 524.82,-99.08 502.75,-87.42 486.05,-78.78"/>
<polygon fill="#63b8ff" stroke="#63b8ff" points="487.39,-75.53 476.9,-74.07 484.19,-81.76 487.39,-75.53"/>
</a>
</g>
</g>
<!-- Node9&#45;&gt;Node4 -->
<g id="edge11_Node000009_Node000004" class="edge">
<title>Node9&#45;&gt;Node4</title>
<g id="a_edge11_Node000009_Node000004"><a xlink:title=" ">
<path fill="none" stroke="#63b8ff" d="M758.77,-230.68C741.07,-189.99 690.49,-73.7 670.89,-28.64"/>
<polygon fill="#63b8ff" stroke="#63b8ff" points="674.01,-27.03 666.81,-19.26 667.59,-29.82 674.01,-27.03"/>
</a>
</g>
</g>
<!-- Node10&#45;&gt;Node3 -->
<g id="edge13_Node000010_Node000003" class="edge">
<title>Node10&#45;&gt;Node3</title>
<g id="a_edge13_Node000010_Node000003"><a xlink:title=" ">
<path fill="none" stroke="#63b8ff" d="M1089.69,-230.99C958.36,-196.48 621.31,-107.89 502.35,-76.63"/>
<polygon fill="#63b8ff" stroke="#63b8ff" points="503.07,-73.2 492.51,-74.04 501.29,-79.97 503.07,-73.2"/>
</a>
</g>
</g>
<!-- Node11&#45;&gt;Node2 -->
<g id="edge16_Node000011_Node000002" class="edge">
<title>Node11&#45;&gt;Node2</title>
<g id="a_edge16_Node000011_Node000002"><a xlink:title=" ">
<path fill="none" stroke="#63b8ff" d="M417.3,-230.95C402.11,-221.95 382.18,-210.14 365.52,-200.27"/>
<polygon fill="#63b8ff" stroke="#63b8ff" points="367.03,-197.1 356.65,-195.01 363.46,-203.12 367.03,-197.1"/>
</a>
</g>
</g>
<!-- Node11&#45;&gt;Node3 -->
<g id="edge15_Node000011_Node000003" class="edge">
<title>Node11&#45;&gt;Node3</title>
<g id="a_edge15_Node000011_Node000003"><a xlink:title=" ">
<path fill="none" stroke="#63b8ff" d="M442.49,-230.91C445.89,-198.85 454.19,-120.38 458.01,-84.26"/>
<polygon fill="#63b8ff" stroke="#63b8ff" points="461.51,-84.45 459.09,-74.13 454.55,-83.71 461.51,-84.45"/>
</a>
</g>
</g>
<!-- Node12&#45;&gt;Node3 -->
<g id="edge18_Node000012_Node000003" class="edge">
<title>Node12&#45;&gt;Node3</title>
<g id="a_edge18_Node000012_Node000003"><a xlink:title=" ">
<path fill="none" stroke="#63b8ff" d="M323.72,-234.36C350.39,-227.07 380.46,-214.96 402,-195 419.13,-179.12 442.71,-115.7 453.78,-83.89"/>
<polygon fill="#63b8ff" stroke="#63b8ff" points="457.21,-84.68 457.15,-74.09 450.59,-82.41 457.21,-84.68"/>
</a>
</g>
</g>
<!-- Node13&#45;&gt;Node2 -->
<g id="edge25_Node000013_Node000002" class="edge">
<title>Node13&#45;&gt;Node2</title>
<g id="a_edge25_Node000013_Node000002"><a xlink:title=" ">
<path fill="none" stroke="#63b8ff" d="M399.46,-296.89C390.67,-287.27 379.33,-273.97 371,-261 359.44,-243 349.22,-220.94 342.3,-204.54"/>
<polygon fill="#63b8ff" stroke="#63b8ff" points="345.48,-203.07 338.43,-195.16 339,-205.74 345.48,-203.07"/>
</a>
</g>
</g>
<!-- Node13&#45;&gt;Node3 -->
<g id="edge20_Node000013_Node000003" class="edge">
<title>Node13&#45;&gt;Node3</title>
<g id="a_edge20_Node000013_Node000003"><a xlink:title=" ">
<path fill="none" stroke="#63b8ff" d="M463.88,-296.95C481.64,-289.34 499.7,-277.91 510,-261 545.82,-202.24 497.22,-118.54 472.67,-82.78"/>
<polygon fill="#63b8ff" stroke="#63b8ff" points="475.38,-80.54 466.75,-74.39 469.66,-84.58 475.38,-80.54"/>
</a>
</g>
</g>
<!-- Node13&#45;&gt;Node9 -->
<g id="edge21_Node000013_Node000009" class="edge">
<title>Node13&#45;&gt;Node9</title>
<g id="a_edge21_Node000013_Node000009"><a xlink:title=" ">
<path fill="none" stroke="#63b8ff" d="M473.68,-298.75C476.83,-298.15 479.95,-297.56 483,-297 574.28,-280.16 599.92,-278.63 694.45,-261.25"/>
<polygon fill="#63b8ff" stroke="#63b8ff" points="695.24,-264.67 704.44,-259.4 693.97,-257.78 695.24,-264.67"/>
</a>
</g>
</g>
<!-- Node13&#45;&gt;Node10 -->
<g id="edge22_Node000013_Node000010" class="edge">
<title>Node13&#45;&gt;Node10</title>
<g id="a_edge22_Node000013_Node000010"><a xlink:title=" ">
<path fill="none" stroke="#63b8ff" d="M473.62,-298.35C476.79,-297.85 479.93,-297.4 483,-297 740.65,-263.55 811.3,-294.44 1072.33,-261.09"/>
<polygon fill="#63b8ff" stroke="#63b8ff" points="1073.03,-264.53 1082.5,-259.77 1072.13,-257.59 1073.03,-264.53"/>
</a>
</g>
</g>
<!-- Node13&#45;&gt;Node11 -->
<g id="edge23_Node000013_Node000011" class="edge">
<title>Node13&#45;&gt;Node11</title>
<g id="a_edge23_Node000013_Node000011"><a xlink:title=" ">
<path fill="none" stroke="#63b8ff" d="M419.21,-296.8C422.59,-289.09 426.84,-279.37 430.69,-270.56"/>
<polygon fill="#63b8ff" stroke="#63b8ff" points="434,-271.73 434.8,-261.16 427.59,-268.92 434,-271.73"/>
</a>
</g>
</g>
<!-- Node13&#45;&gt;Node12 -->
<g id="edge24_Node000013_Node000012" class="edge">
<title>Node13&#45;&gt;Node12</title>
<g id="a_edge24_Node000013_Node000012"><a xlink:title=" ">
<path fill="none" stroke="#63b8ff" d="M380.08,-296.95C358.1,-287.58 328.99,-275.16 305.29,-265.05"/>
<polygon fill="#63b8ff" stroke="#63b8ff" points="306.41,-261.72 295.84,-261.01 303.67,-268.16 306.41,-261.72"/>
</a>
</g>
</g>
<!-- Node14&#45;&gt;Node2 -->
<g id="edge29_Node000014_Node000002" class="edge">
<title>Node14&#45;&gt;Node2</title>
<g id="a_edge29_Node000014_Node000002"><a xlink:title=" ">
<path fill="none" stroke="#63b8ff" d="M213.48,-362.68C196.22,-334.72 164.08,-272.04 193,-231 208.95,-208.36 236.12,-195.92 262.31,-189.1"/>
<polygon fill="#63b8ff" stroke="#63b8ff" points="263.34,-192.45 272.27,-186.75 261.74,-185.64 263.34,-192.45"/>
</a>
</g>
</g>
<!-- Node14&#45;&gt;Node3 -->
<g id="edge28_Node000014_Node000003" class="edge">
<title>Node14&#45;&gt;Node3</title>
<g id="a_edge28_Node000014_Node000003"><a xlink:title=" ">
<path fill="none" stroke="#63b8ff" d="M194.01,-362.99C157.08,-342.89 98,-302.11 98,-247 98,-247 98,-247 98,-179 98,-117.57 290.21,-85.4 394.51,-72.47"/>
<polygon fill="#63b8ff" stroke="#63b8ff" points="395.12,-75.92 404.63,-71.24 394.28,-68.97 395.12,-75.92"/>
</a>
</g>
</g>
<!-- Node14&#45;&gt;Node8 -->
<g id="edge33_Node000014_Node000008" class="edge">
<title>Node14&#45;&gt;Node8</title>
<g id="a_edge33_Node000014_Node000008"><a xlink:title=" ">
<path fill="none" stroke="#63b8ff" d="M148.29,-364.68C124.79,-357.34 100.66,-345.65 84,-327 58.99,-299.01 42.75,-184.78 37.17,-139.31"/>
<polygon fill="#63b8ff" stroke="#63b8ff" points="40.63,-138.84 35.98,-129.32 33.68,-139.67 40.63,-138.84"/>
</a>
</g>
</g>
<!-- Node14&#45;&gt;Node10 -->
<g id="edge30_Node000014_Node000010" class="edge">
<title>Node14&#45;&gt;Node10</title>
<g id="a_edge30_Node000014_Node000010"><a xlink:title=" ">
<path fill="none" stroke="#63b8ff" d="M297.71,-375.58C490.45,-371.47 994.25,-357.9 1063,-327 1077.54,-320.47 1105.79,-290.07 1124.53,-268.69"/>
<polygon fill="#63b8ff" stroke="#63b8ff" points="1127.28,-270.85 1131.19,-261.01 1122,-266.27 1127.28,-270.85"/>
</a>
</g>
</g>
<!-- Node14&#45;&gt;Node12 -->
<g id="edge31_Node000014_Node000012" class="edge">
<title>Node14&#45;&gt;Node12</title>
<g id="a_edge31_Node000014_Node000012"><a xlink:title=" ">
<path fill="none" stroke="#63b8ff" d="M227.36,-362.84C234.15,-340.76 247.34,-297.89 255.63,-270.94"/>
<polygon fill="#63b8ff" stroke="#63b8ff" points="259.05,-271.73 258.65,-261.14 252.36,-269.67 259.05,-271.73"/>
</a>
</g>
</g>
<!-- Node14&#45;&gt;Node13 -->
<g id="edge32_Node000014_Node000013" class="edge">
<title>Node14&#45;&gt;Node13</title>
<g id="a_edge32_Node000014_Node000013"><a xlink:title=" ">
<path fill="none" stroke="#63b8ff" d="M264.7,-362.95C293.28,-353.33 331.39,-340.49 361.81,-330.24"/>
<polygon fill="#63b8ff" stroke="#63b8ff" points="363.04,-333.52 371.4,-327.01 360.81,-326.89 363.04,-333.52"/>
</a>
</g>
</g>
<!-- Node15&#45;&gt;Node10 -->
<g id="edge36_Node000015_Node000010" class="edge">
<title>Node15&#45;&gt;Node10</title>
<g id="a_edge36_Node000015_Node000010"><a xlink:title=" ">
<path fill="none" stroke="#63b8ff" d="M1008.04,-302.37C1031.3,-292.82 1069.43,-277.18 1099.24,-264.95"/>
<polygon fill="#63b8ff" stroke="#63b8ff" points="1100.67,-268.15 1108.59,-261.12 1098.01,-261.67 1100.67,-268.15"/>
</a>
</g>
</g>
<!-- Node16 -->
<g id="Node000016" class="node">
<title>Node16</title>
<g id="a_Node000016"><a xlink:title=" ">
<polygon fill="#e0e0e0" stroke="#999999" points="945.5,-255.5 882.5,-255.5 882.5,-236.5 945.5,-236.5 945.5,-255.5"/>
<text text-anchor="middle" x="914" y="-243.5" font-family="Helvetica,sans-Serif" font-size="10.00">Arduino.h</text>
</a>
</g>
</g>
<!-- Node15&#45;&gt;Node16 -->
<g id="edge35_Node000015_Node000016" class="edge">
<title>Node15&#45;&gt;Node16</title>
<g id="a_edge35_Node000015_Node000016"><a xlink:title=" ">
<path fill="none" stroke="#63b8ff" d="M977.15,-302.37C965.57,-292.21 946.12,-275.16 931.86,-262.65"/>
<polygon fill="#63b8ff" stroke="#63b8ff" points="933.98,-259.87 924.16,-255.91 929.37,-265.13 933.98,-259.87"/>
</a>
</g>
</g>
<!-- Node17&#45;&gt;Node10 -->
<g id="edge39_Node000017_Node000010" class="edge">
<title>Node17&#45;&gt;Node10</title>
<g id="a_edge39_Node000017_Node000010"><a xlink:title=" ">
<path fill="none" stroke="#63b8ff" d="M1164.63,-302.37C1161.49,-294.32 1156.65,-281.94 1152.35,-270.93"/>
<polygon fill="#63b8ff" stroke="#63b8ff" points="1155.51,-269.4 1148.61,-261.36 1148.99,-271.95 1155.51,-269.4"/>
</a>
</g>
</g>
<!-- Node17&#45;&gt;Node16 -->
<g id="edge38_Node000017_Node000016" class="edge">
<title>Node17&#45;&gt;Node16</title>
<g id="a_edge38_Node000017_Node000016"><a xlink:title=" ">
<path fill="none" stroke="#63b8ff" d="M1126.06,-302.43C1082.87,-293.31 1013.78,-277.89 955,-261 952.53,-260.29 950,-259.52 947.45,-258.72"/>
<polygon fill="#63b8ff" stroke="#63b8ff" points="948.32,-255.32 937.72,-255.54 946.14,-261.98 948.32,-255.32"/>
</a>
</g>
</g>
<!-- Node18&#45;&gt;Node11 -->
<g id="edge43_Node000018_Node000011" class="edge">
<title>Node18&#45;&gt;Node11</title>
<g id="a_edge43_Node000018_Node000011"><a xlink:title=" ">
<path fill="none" stroke="#63b8ff" d="M649.5,-302.37C612.31,-292.49 550.55,-276.09 503.87,-263.7"/>
<polygon fill="#63b8ff" stroke="#63b8ff" points="504.72,-260.3 494.15,-261.12 502.92,-267.07 504.72,-260.3"/>
</a>
</g>
</g>
<!-- Node18&#45;&gt;Node16 -->
<g id="edge41_Node000018_Node000016" class="edge">
<title>Node18&#45;&gt;Node16</title>
<g id="a_edge41_Node000018_Node000016"><a xlink:title=" ">
<path fill="none" stroke="#63b8ff" d="M713.29,-302.37C754.57,-290.98 827.32,-270.91 872.97,-258.32"/>
<polygon fill="#63b8ff" stroke="#63b8ff" points="874.13,-261.63 882.84,-255.6 872.27,-254.88 874.13,-261.63"/>
</a>
</g>
</g>
<!-- Node19 -->
<g id="Node000019" class="node">
<title>Node19</title>
<g id="a_Node000019"><a xlink:title=" ">
<polygon fill="#e0e0e0" stroke="#999999" points="609.5,-255.5 558.5,-255.5 558.5,-236.5 609.5,-236.5 609.5,-255.5"/>
<text text-anchor="middle" x="584" y="-243.5" font-family="Helvetica,sans-Serif" font-size="10.00">uECC.h</text>
</a>
</g>
</g>
<!-- Node18&#45;&gt;Node19 -->
<g id="edge42_Node000018_Node000019" class="edge">
<title>Node18&#45;&gt;Node19</title>
<g id="a_edge42_Node000018_Node000019"><a xlink:title=" ">
<path fill="none" stroke="#63b8ff" d="M668.78,-302.37C652.64,-291.82 625.09,-273.84 605.79,-261.23"/>
<polygon fill="#63b8ff" stroke="#63b8ff" points="607.61,-258.24 597.32,-255.7 603.78,-264.1 607.61,-258.24"/>
</a>
</g>
</g>
<!-- Node20 -->
<g id="Node000020" class="node">
<title>Node20</title>
<g id="a_Node000020"><a xlink:title=" ">
<polygon fill="#e0e0e0" stroke="#999999" points="686.5,-255.5 627.5,-255.5 627.5,-236.5 686.5,-236.5 686.5,-255.5"/>
<text text-anchor="middle" x="657" y="-243.5" font-family="Helvetica,sans-Serif" font-size="10.00">AESLib.h</text>
</a>
</g>
</g>
<!-- Node18&#45;&gt;Node20 -->
<g id="edge44_Node000018_Node000020" class="edge">
<title>Node18&#45;&gt;Node20</title>
<g id="a_edge44_Node000018_Node000020"><a xlink:title=" ">
<path fill="none" stroke="#63b8ff" d="M678.63,-302.37C674.96,-292.97 668.98,-277.67 664.24,-265.53"/>
<polygon fill="#63b8ff" stroke="#63b8ff" points="667.38,-263.95 660.48,-255.91 660.86,-266.49 667.38,-263.95"/>
</a>
</g>
</g>
<!-- Node21&#45;&gt;Node12 -->
<g id="edge47_Node000021_Node000012" class="edge">
<title>Node21&#45;&gt;Node12</title>
<g id="a_edge47_Node000021_Node000012"><a xlink:title=" ">
<path fill="none" stroke="#63b8ff" d="M506.39,-302.44C462.33,-292.4 388.37,-275.55 333.52,-263.06"/>
<polygon fill="#63b8ff" stroke="#63b8ff" points="334.04,-259.59 323.51,-260.78 332.48,-266.42 334.04,-259.59"/>
</a>
</g>
</g>
<!-- Node21&#45;&gt;Node16 -->
<g id="edge46_Node000021_Node000016" class="edge">
<title>Node21&#45;&gt;Node16</title>
<g id="a_edge46_Node000021_Node000016"><a xlink:title=" ">
<path fill="none" stroke="#63b8ff" d="M579.98,-302.45C588.49,-300.55 597.55,-298.62 606,-297 707.19,-277.64 733.38,-277.99 835,-261 847.01,-258.99 860.02,-256.72 871.96,-254.61"/>
<polygon fill="#63b8ff" stroke="#63b8ff" points="872.89,-258 882.12,-252.8 871.66,-251.1 872.89,-258"/>
</a>
</g>
</g>
<!-- Node22&#45;&gt;Node2 -->
<g id="edge53_Node000022_Node000002" class="edge">
<title>Node22&#45;&gt;Node2</title>
<g id="a_edge53_Node000022_Node000002"><a xlink:title=" ">
<path fill="none" stroke="#63b8ff" d="M854.87,-302.4C856.01,-285.77 855.85,-249.23 835,-231 803.22,-203.22 534.63,-188.92 403.91,-183.56"/>
<polygon fill="#63b8ff" stroke="#63b8ff" points="403.73,-180.05 393.6,-183.14 403.45,-187.04 403.73,-180.05"/>
</a>
</g>
</g>
<!-- Node22&#45;&gt;Node9 -->
<g id="edge51_Node000022_Node000009" class="edge">
<title>Node22&#45;&gt;Node9</title>
<g id="a_edge51_Node000022_Node000009"><a xlink:title=" ">
<path fill="none" stroke="#63b8ff" d="M842,-302.37C829.47,-293.36 809.39,-278.92 792.88,-267.05"/>
<polygon fill="#63b8ff" stroke="#63b8ff" points="794.79,-264.11 784.63,-261.12 790.7,-269.8 794.79,-264.11"/>
</a>
</g>
</g>
<!-- Node22&#45;&gt;Node10 -->
<g id="edge52_Node000022_Node000010" class="edge">
<title>Node22&#45;&gt;Node10</title>
<g id="a_edge52_Node000022_Node000010"><a xlink:title=" ">
<path fill="none" stroke="#63b8ff" d="M888.02,-302.48C895.58,-300.63 903.55,-298.72 911,-297 965.05,-284.54 1026.41,-271.36 1072.45,-261.66"/>
<polygon fill="#63b8ff" stroke="#63b8ff" points="1073.26,-265.06 1082.32,-259.58 1071.82,-258.21 1073.26,-265.06"/>
</a>
</g>
</g>
<!-- Node22&#45;&gt;Node16 -->
<g id="edge49_Node000022_Node000016" class="edge">
<title>Node22&#45;&gt;Node16</title>
<g id="a_edge49_Node000022_Node000016"><a xlink:title=" ">
<path fill="none" stroke="#63b8ff" d="M862.09,-302.37C871.43,-292.4 887.01,-275.79 898.66,-263.36"/>
<polygon fill="#63b8ff" stroke="#63b8ff" points="901.37,-265.59 905.65,-255.91 896.26,-260.81 901.37,-265.59"/>
</a>
</g>
</g>
<!-- Node23 -->
<g id="Node000023" class="node">
<title>Node23</title>
<g id="a_Node000023"><a xlink:title=" ">
<polygon fill="#e0e0e0" stroke="#999999" points="1064.5,-255.5 963.5,-255.5 963.5,-236.5 1064.5,-236.5 1064.5,-255.5"/>
<text text-anchor="middle" x="1014" y="-243.5" font-family="Helvetica,sans-Serif" font-size="10.00">Adafruit_PN532.h</text>
</a>
</g>
</g>
<!-- Node22&#45;&gt;Node23 -->
<g id="edge50_Node000022_Node000023" class="edge">
<title>Node22&#45;&gt;Node23</title>
<g id="a_edge50_Node000022_Node000023"><a xlink:title=" ">
<path fill="none" stroke="#63b8ff" d="M875.58,-302.37C903.21,-291.32 951.29,-272.08 982.88,-259.45"/>
<polygon fill="#63b8ff" stroke="#63b8ff" points="984.52,-262.56 992.51,-255.6 981.92,-256.06 984.52,-262.56"/>
</a>
</g>
</g>
</g>
</svg>
