<?xml version="1.0" encoding="UTF-8" standalone="no"?>
<!DOCTYPE svg PUBLIC "-//W3C//DTD SVG 1.1//EN"
 "http://www.w3.org/Graphics/SVG/1.1/DTD/svg11.dtd">
<!-- Generated by graphviz version 2.43.0 (0)
 -->
<!-- Title: src/cryptnox&#45;sdk&#45;cpp/CryptnoxWallet.h Pages: 1 -->
<svg width="264pt" height="104pt"
 viewBox="0.00 0.00 263.50 104.00" xmlns="http://www.w3.org/2000/svg" xmlns:xlink="http://www.w3.org/1999/xlink">
<g id="graph0" class="graph" transform="scale(1 1) rotate(0) translate(4 100)">
<title>src/cryptnox&#45;sdk&#45;cpp/CryptnoxWallet.h</title>
<!-- Node1 -->
<g id="Node000001" class="node">
<title>Node1</title>
<g id="a_Node000001"><a xlink:title="High&#45;level API for interacting with a Cryptnox Hardware Wallet over NFC.">
<polygon fill="#999999" stroke="#666666" points="186.5,-96 67.5,-96 67.5,-66 186.5,-66 186.5,-96"/>
<text text-anchor="start" x="75.5" y="-84" font-family="Helvetica,sans-Serif" font-size="10.00">src/cryptnox&#45;sdk&#45;cpp</text>
<text text-anchor="middle" x="127" y="-73" font-family="Helvetica,sans-Serif" font-size="10.00">/CryptnoxWallet.h</text>
</a>
</g>
</g>
<!-- Node2 -->
<g id="Node000002" class="node">
<title>Node2</title>
<g id="a_Node000002"><a xlink:href="CryptnoxWallet_8h.html" target="_top" xlink:title="Umbrella include and module&#45;group anchor for the CryptnoxWallet Arduino library.">
<polygon fill="white" stroke="#666666" points="118,-24.5 0,-24.5 0,-5.5 118,-5.5 118,-24.5"/>
<text text-anchor="middle" x="59" y="-12.5" font-family="Helvetica,sans-Serif" font-size="10.00">src/CryptnoxWallet.h</text>
</a>
</g>
</g>
<!-- Node1&#45;&gt;Node2 -->
<g id="edge1_Node000001_Node000002" class="edge">
<title>Node1&#45;&gt;Node2</title>
<g id="a_edge1_Node000001_Node000002"><a xlink:title=" ">
<path fill="none" stroke="#63b8ff" d="M104.62,-58.93C92.31,-47.35 77.71,-33.61 68.4,-24.84"/>
<polygon fill="#63b8ff" stroke="#63b8ff" points="102.23,-61.49 111.91,-65.8 107.03,-56.39 102.23,-61.49"/>
</a>
</g>
</g>
<!-- Node3 -->
<g id="Node000003" class="node">
<title>Node3</title>
<g id="a_Node000003"><a xlink:href="CryptnoxWallet_8cpp.html" target="_top" xlink:title="Implementation of the high&#45;level CryptnoxWallet API.">
<polygon fill="white" stroke="#666666" points="255.5,-30 136.5,-30 136.5,0 255.5,0 255.5,-30"/>
<text text-anchor="start" x="144.5" y="-18" font-family="Helvetica,sans-Serif" font-size="10.00">src/cryptnox&#45;sdk&#45;cpp</text>
<text text-anchor="middle" x="196" y="-7" font-family="Helvetica,sans-Serif" font-size="10.00">/CryptnoxWallet.cpp</text>
</a>
</g>
</g>
<!-- Node1&#45;&gt;Node3 -->
<g id="edge2_Node000001_Node000003" class="edge">
<title>Node1&#45;&gt;Node3</title>
<g id="a_edge2_Node000001_Node000003"><a xlink:title=" ">
<path fill="none" stroke="#63b8ff" d="M149.72,-58.92C159.9,-49.49 171.63,-38.61 180.73,-30.16"/>
<polygon fill="#63b8ff" stroke="#63b8ff" points="147.26,-56.43 142.31,-65.8 152.03,-61.56 147.26,-56.43"/>
</a>
</g>
</g>
</g>
</svg>
