<?xml version="1.0" encoding="UTF-8" standalone="no"?>
<!DOCTYPE svg PUBLIC "-//W3C//DTD SVG 1.1//EN"
 "http://www.w3.org/Graphics/SVG/1.1/DTD/svg11.dtd">
<!-- Generated by graphviz version 2.43.0 (0)
 -->
<!-- Title: src/cryptnox&#45;sdk&#45;cpp/CW_Logger.h Pages: 1 -->
<svg width="857pt" height="236pt"
 viewBox="0.00 0.00 857.02 236.00" xmlns="http://www.w3.org/2000/svg" xmlns:xlink="http://www.w3.org/1999/xlink">
<g id="graph0" class="graph" transform="scale(1 1) rotate(0) translate(4 232)">
<title>src/cryptnox&#45;sdk&#45;cpp/CW_Logger.h</title>
<!-- Node1 -->
<g id="Node000001" class="node">
<title>Node1</title>
<g id="a_Node000001"><a xlink:title="Abstract logging interface.">
<polygon fill="#999999" stroke="#666666" points="540.02,-228 421.02,-228 421.02,-198 540.02,-198 540.02,-228"/>
<text text-anchor="start" x="429.02" y="-216" font-family="Helvetica,sans-Serif" font-size="10.00">src/cryptnox&#45;sdk&#45;cpp</text>
<text text-anchor="middle" x="480.52" y="-205" font-family="Helvetica,sans-Serif" font-size="10.00">/CW_Logger.h</text>
</a>
</g>
</g>
<!-- Node2 -->
<g id="Node000002" class="node">
<title>Node2</title>
<g id="a_Node000002"><a xlink:href="ArduinoLoggerAdapter_8h.html" target="_top" xlink:title="Concrete CW_Logger over HardwareSerial for development builds.">
<polygon fill="white" stroke="#666666" points="172.02,-156.5 21.02,-156.5 21.02,-137.5 172.02,-137.5 172.02,-156.5"/>
<text text-anchor="middle" x="96.52" y="-144.5" font-family="Helvetica,sans-Serif" font-size="10.00">src/ArduinoLoggerAdapter.h</text>
</a>
</g>
</g>
<!-- Node1&#45;&gt;Node2 -->
<g id="edge1_Node000001_Node000002" class="edge">
<title>Node1&#45;&gt;Node2</title>
<g id="a_edge1_Node000001_Node000002"><a xlink:title=" ">
<path fill="none" stroke="#63b8ff" d="M410.99,-200.41C335.09,-187.76 215.35,-167.81 147.63,-156.52"/>
<polygon fill="#63b8ff" stroke="#63b8ff" points="410.5,-203.88 420.94,-202.07 411.65,-196.97 410.5,-203.88"/>
</a>
</g>
</g>
<!-- Node4 -->
<g id="Node000004" class="node">
<title>Node4</title>
<g id="a_Node000004"><a xlink:href="CryptnoxWallet_8h.html" target="_top" xlink:title="Umbrella include and module&#45;group anchor for the CryptnoxWallet Arduino library.">
<polygon fill="white" stroke="#666666" points="458.52,-24.5 340.52,-24.5 340.52,-5.5 458.52,-5.5 458.52,-24.5"/>
<text text-anchor="middle" x="399.52" y="-12.5" font-family="Helvetica,sans-Serif" font-size="10.00">src/CryptnoxWallet.h</text>
</a>
</g>
</g>
<!-- Node1&#45;&gt;Node4 -->
<g id="edge4_Node000001_Node000004" class="edge">
<title>Node1&#45;&gt;Node4</title>
<g id="a_edge4_Node000001_Node000004"><a xlink:title=" ">
<path fill="none" stroke="#63b8ff" d="M437.14,-192.72C424.79,-185 412.73,-174.84 405.52,-162 379.67,-116 391.86,-48.37 397.34,-24.62"/>
<polygon fill="#63b8ff" stroke="#63b8ff" points="435.72,-195.93 446.13,-197.9 439.22,-189.87 435.72,-195.93"/>
</a>
</g>
</g>
<!-- Node5 -->
<g id="Node000005" class="node">
<title>Node5</title>
<g id="a_Node000005"><a xlink:href="NullLoggerAdapter_8h.html" target="_top" xlink:title="Silent CW_Logger for production firmware.">
<polygon fill="white" stroke="#666666" points="547.02,-156.5 414.02,-156.5 414.02,-137.5 547.02,-137.5 547.02,-156.5"/>
<text text-anchor="middle" x="480.52" y="-144.5" font-family="Helvetica,sans-Serif" font-size="10.00">src/NullLoggerAdapter.h</text>
</a>
</g>
</g>
<!-- Node1&#45;&gt;Node5 -->
<g id="edge5_Node000001_Node000005" class="edge">
<title>Node1&#45;&gt;Node5</title>
<g id="a_edge5_Node000001_Node000005"><a xlink:title=" ">
<path fill="none" stroke="#63b8ff" d="M480.52,-187.6C480.52,-176.8 480.52,-164.78 480.52,-156.84"/>
<polygon fill="#63b8ff" stroke="#63b8ff" points="477.02,-187.8 480.52,-197.8 484.02,-187.8 477.02,-187.8"/>
</a>
</g>
</g>
<!-- Node6 -->
<g id="Node000006" class="node">
<title>Node6</title>
<g id="a_Node000006"><a xlink:href="PN532Adapter_8h.html" target="_top" xlink:title="Concrete CW_NfcTransport over Adafruit_PN532 (SPI / I2C / UART).">
<polygon fill="white" stroke="#666666" points="351.52,-156.5 239.52,-156.5 239.52,-137.5 351.52,-137.5 351.52,-156.5"/>
<text text-anchor="middle" x="295.52" y="-144.5" font-family="Helvetica,sans-Serif" font-size="10.00">src/PN532Adapter.h</text>
</a>
</g>
</g>
<!-- Node1&#45;&gt;Node6 -->
<g id="edge7_Node000001_Node000006" class="edge">
<title>Node1&#45;&gt;Node6</title>
<g id="a_edge7_Node000001_Node000006"><a xlink:title=" ">
<path fill="none" stroke="#63b8ff" d="M430.15,-194.58C394.45,-182.23 348.09,-166.19 320.14,-156.52"/>
<polygon fill="#63b8ff" stroke="#63b8ff" points="429.32,-197.99 439.92,-197.95 431.61,-191.38 429.32,-197.99"/>
</a>
</g>
</g>
<!-- Node8 -->
<g id="Node000008" class="node">
<title>Node8</title>
<g id="a_Node000008"><a xlink:href="CW__SecureChannel_8h.html" target="_top" xlink:title="Cryptnox secure channel protocol over NFC.">
<polygon fill="white" stroke="#666666" points="727.02,-162 604.02,-162 604.02,-132 727.02,-132 727.02,-162"/>
<text text-anchor="start" x="612.02" y="-150" font-family="Helvetica,sans-Serif" font-size="10.00">src/cryptnox&#45;sdk&#45;cpp</text>
<text text-anchor="middle" x="665.52" y="-139" font-family="Helvetica,sans-Serif" font-size="10.00">/CW_SecureChannel.h</text>
</a>
</g>
</g>
<!-- Node1&#45;&gt;Node8 -->
<g id="edge10_Node000001_Node000008" class="edge">
<title>Node1&#45;&gt;Node8</title>
<g id="a_edge10_Node000001_Node000008"><a xlink:title=" ">
<path fill="none" stroke="#63b8ff" d="M530.84,-194.59C560.42,-184.36 597.32,-171.59 625.01,-162.01"/>
<polygon fill="#63b8ff" stroke="#63b8ff" points="529.42,-191.38 521.12,-197.95 531.71,-197.99 529.42,-191.38"/>
</a>
</g>
</g>
<!-- Node10 -->
<g id="Node000010" class="node">
<title>Node10</title>
<g id="a_Node000010"><a xlink:href="fuzz__der_8cpp.html" target="_top" xlink:title=" ">
<polygon fill="white" stroke="#666666" points="849.02,-30 730.02,-30 730.02,0 849.02,0 849.02,-30"/>
<text text-anchor="start" x="738.02" y="-18" font-family="Helvetica,sans-Serif" font-size="10.00">src/cryptnox&#45;sdk&#45;cpp</text>
<text text-anchor="middle" x="789.52" y="-7" font-family="Helvetica,sans-Serif" font-size="10.00">/fuzz/fuzz_der.cpp</text>
</a>
</g>
</g>
<!-- Node1&#45;&gt;Node10 -->
<g id="edge19_Node000001_Node000010" class="edge">
<title>Node1&#45;&gt;Node10</title>
<g id="a_edge19_Node000001_Node000010"><a xlink:title=" ">
<path fill="none" stroke="#63b8ff" d="M550.35,-210.88C604.51,-207.18 679.68,-195.64 736.52,-162 769.37,-142.55 778.52,-131.9 791.52,-96 799.46,-74.05 796.12,-46.46 792.88,-30.08"/>
<polygon fill="#63b8ff" stroke="#63b8ff" points="549.92,-207.4 540.15,-211.5 550.34,-214.39 549.92,-207.4"/>
</a>
</g>
</g>
<!-- Node11 -->
<g id="Node000011" class="node">
<title>Node11</title>
<g id="a_Node000011"><a xlink:href="cryptnox-sdk-cpp_2CryptnoxWallet_8h.html" target="_top" xlink:title="High&#45;level API for interacting with a Cryptnox Hardware Wallet over NFC.">
<polygon fill="white" stroke="#666666" points="609.02,-96 490.02,-96 490.02,-66 609.02,-66 609.02,-96"/>
<text text-anchor="start" x="498.02" y="-84" font-family="Helvetica,sans-Serif" font-size="10.00">src/cryptnox&#45;sdk&#45;cpp</text>
<text text-anchor="middle" x="549.52" y="-73" font-family="Helvetica,sans-Serif" font-size="10.00">/CryptnoxWallet.h</text>
</a>
</g>
</g>
<!-- Node1&#45;&gt;Node11 -->
<g id="edge18_Node000001_Node000011" class="edge">
<title>Node1&#45;&gt;Node11</title>
<g id="a_edge18_Node000001_Node000011"><a xlink:title=" ">
<path fill="none" stroke="#63b8ff" d="M525.1,-192.81C537.52,-185.14 549.52,-174.98 556.52,-162 567.7,-141.26 561.07,-113.04 555.27,-96.25"/>
<polygon fill="#63b8ff" stroke="#63b8ff" points="523,-189.98 516.04,-197.96 526.47,-196.06 523,-189.98"/>
</a>
</g>
</g>
<!-- Node3 -->
<g id="Node000003" class="node">
<title>Node3</title>
<g id="a_Node000003"><a xlink:href="ArduinoLoggerAdapter_8cpp.html" target="_top" xlink:title="Implementation of the HardwareSerial&#45;backed logger.">
<polygon fill="white" stroke="#666666" points="177.52,-90.5 15.52,-90.5 15.52,-71.5 177.52,-71.5 177.52,-90.5"/>
<text text-anchor="middle" x="96.52" y="-78.5" font-family="Helvetica,sans-Serif" font-size="10.00">src/ArduinoLoggerAdapter.cpp</text>
</a>
</g>
</g>
<!-- Node2&#45;&gt;Node3 -->
<g id="edge2_Node000002_Node000003" class="edge">
<title>Node2&#45;&gt;Node3</title>
<g id="a_edge2_Node000002_Node000003"><a xlink:title=" ">
<path fill="none" stroke="#63b8ff" d="M96.52,-127.08C96.52,-115.13 96.52,-100.22 96.52,-90.91"/>
<polygon fill="#63b8ff" stroke="#63b8ff" points="93.02,-127.37 96.52,-137.37 100.02,-127.37 93.02,-127.37"/>
</a>
</g>
</g>
<!-- Node2&#45;&gt;Node4 -->
<g id="edge3_Node000002_Node000004" class="edge">
<title>Node2&#45;&gt;Node4</title>
<g id="a_edge3_Node000002_Node000004"><a xlink:title=" ">
<path fill="none" stroke="#63b8ff" d="M63.81,-133.53C29.42,-118.63 -16.72,-92.38 6.52,-66 28.2,-41.39 235.76,-25.69 340.16,-19.29"/>
<polygon fill="#63b8ff" stroke="#63b8ff" points="62.55,-136.8 73.13,-137.43 65.25,-130.34 62.55,-136.8"/>
</a>
</g>
</g>
<!-- Node5&#45;&gt;Node4 -->
<g id="edge6_Node000005_Node000004" class="edge">
<title>Node5&#45;&gt;Node4</title>
<g id="a_edge6_Node000005_Node000004"><a xlink:title=" ">
<path fill="none" stroke="#63b8ff" d="M468.8,-128.65C462.41,-119.08 454.42,-106.96 447.52,-96 431.47,-70.51 413.4,-39.83 404.72,-24.95"/>
<polygon fill="#63b8ff" stroke="#63b8ff" points="466.08,-130.87 474.56,-137.22 471.89,-126.97 466.08,-130.87"/>
</a>
</g>
</g>
<!-- Node6&#45;&gt;Node4 -->
<g id="edge8_Node000006_Node000004" class="edge">
<title>Node6&#45;&gt;Node4</title>
<g id="a_edge8_Node000006_Node000004"><a xlink:title=" ">
<path fill="none" stroke="#63b8ff" d="M268.58,-132.47C241.41,-117.01 205.93,-90.64 224.52,-66 238.98,-46.83 297.96,-32.8 343.5,-24.56"/>
<polygon fill="#63b8ff" stroke="#63b8ff" points="266.93,-135.56 277.39,-137.28 270.29,-129.42 266.93,-135.56"/>
</a>
</g>
</g>
<!-- Node7 -->
<g id="Node000007" class="node">
<title>Node7</title>
<g id="a_Node000007"><a xlink:href="PN532Adapter_8cpp.html" target="_top" xlink:title="Implementation of the PN532 transport adapter.">
<polygon fill="white" stroke="#666666" points="357.02,-90.5 234.02,-90.5 234.02,-71.5 357.02,-71.5 357.02,-90.5"/>
<text text-anchor="middle" x="295.52" y="-78.5" font-family="Helvetica,sans-Serif" font-size="10.00">src/PN532Adapter.cpp</text>
</a>
</g>
</g>
<!-- Node6&#45;&gt;Node7 -->
<g id="edge9_Node000006_Node000007" class="edge">
<title>Node6&#45;&gt;Node7</title>
<g id="a_edge9_Node000006_Node000007"><a xlink:title=" ">
<path fill="none" stroke="#63b8ff" d="M295.52,-127.08C295.52,-115.13 295.52,-100.22 295.52,-90.91"/>
<polygon fill="#63b8ff" stroke="#63b8ff" points="292.02,-127.37 295.52,-137.37 299.02,-127.37 292.02,-127.37"/>
</a>
</g>
</g>
<!-- Node8&#45;&gt;Node4 -->
<g id="edge11_Node000008_Node000004" class="edge">
<title>Node8&#45;&gt;Node4</title>
<g id="a_edge11_Node000008_Node000004"><a xlink:title=" ">
<path fill="none" stroke="#63b8ff" d="M593.87,-135.3C558.41,-127.88 515.93,-115.67 481.52,-96 472.8,-91.02 426.78,-44.09 407.76,-24.51"/>
<polygon fill="#63b8ff" stroke="#63b8ff" points="593.19,-138.73 603.68,-137.27 594.56,-131.87 593.19,-138.73"/>
</a>
</g>
</g>
<!-- Node9 -->
<g id="Node000009" class="node">
<title>Node9</title>
<g id="a_Node000009"><a xlink:href="CW__SecureChannel_8cpp.html" target="_top" xlink:title="Implementation of the Cryptnox secure channel protocol.">
<polygon fill="white" stroke="#666666" points="761.52,-96 627.52,-96 627.52,-66 761.52,-66 761.52,-96"/>
<text text-anchor="start" x="635.52" y="-84" font-family="Helvetica,sans-Serif" font-size="10.00">src/cryptnox&#45;sdk&#45;cpp</text>
<text text-anchor="middle" x="694.52" y="-73" font-family="Helvetica,sans-Serif" font-size="10.00">/CW_SecureChannel.cpp</text>
</a>
</g>
</g>
<!-- Node8&#45;&gt;Node9 -->
<g id="edge12_Node000008_Node000009" class="edge">
<title>Node8&#45;&gt;Node9</title>
<g id="a_edge12_Node000008_Node000009"><a xlink:title=" ">
<path fill="none" stroke="#63b8ff" d="M676.08,-122.68C680.11,-113.79 684.57,-103.95 688.1,-96.16"/>
<polygon fill="#63b8ff" stroke="#63b8ff" points="672.89,-121.24 671.95,-131.8 679.27,-124.13 672.89,-121.24"/>
</a>
</g>
</g>
<!-- Node8&#45;&gt;Node10 -->
<g id="edge17_Node000008_Node000010" class="edge">
<title>Node8&#45;&gt;Node10</title>
<g id="a_edge17_Node000008_Node000010"><a xlink:title=" ">
<path fill="none" stroke="#63b8ff" d="M726.6,-127.88C742.93,-120.38 759.16,-110.05 770.52,-96 785.95,-76.9 789.22,-47.36 789.71,-30.02"/>
<polygon fill="#63b8ff" stroke="#63b8ff" points="724.84,-124.83 717.02,-131.98 727.59,-131.27 724.84,-124.83"/>
</a>
</g>
</g>
<!-- Node8&#45;&gt;Node11 -->
<g id="edge14_Node000008_Node000011" class="edge">
<title>Node8&#45;&gt;Node11</title>
<g id="a_edge14_Node000008_Node000011"><a xlink:title=" ">
<path fill="none" stroke="#63b8ff" d="M631.02,-126.97C613.02,-117.03 591.37,-105.09 574.91,-96.01"/>
<polygon fill="#63b8ff" stroke="#63b8ff" points="629.61,-130.19 640.06,-131.95 632.99,-124.06 629.61,-130.19"/>
</a>
</g>
</g>
<!-- Node9&#45;&gt;Node10 -->
<g id="edge13_Node000009_Node000010" class="edge">
<title>Node9&#45;&gt;Node10</title>
<g id="a_edge13_Node000009_Node000010"><a xlink:title=" ">
<path fill="none" stroke="#63b8ff" d="M724.16,-60.03C738.54,-50.34 755.47,-38.94 768.49,-30.16"/>
<polygon fill="#63b8ff" stroke="#63b8ff" points="721.94,-57.31 715.6,-65.8 725.85,-63.11 721.94,-57.31"/>
</a>
</g>
</g>
<!-- Node11&#45;&gt;Node4 -->
<g id="edge15_Node000011_Node000004" class="edge">
<title>Node11&#45;&gt;Node4</title>
<g id="a_edge15_Node000011_Node000004"><a xlink:title=" ">
<path fill="none" stroke="#63b8ff" d="M507.19,-61.94C478.45,-49.68 441.76,-34.02 419.48,-24.52"/>
<polygon fill="#63b8ff" stroke="#63b8ff" points="506.03,-65.25 516.6,-65.95 508.77,-58.81 506.03,-65.25"/>
</a>
</g>
</g>
<!-- Node12 -->
<g id="Node000012" class="node">
<title>Node12</title>
<g id="a_Node000012"><a xlink:href="CryptnoxWallet_8cpp.html" target="_top" xlink:title="Implementation of the high&#45;level CryptnoxWallet API.">
<polygon fill="white" stroke="#666666" points="609.02,-30 490.02,-30 490.02,0 609.02,0 609.02,-30"/>
<text text-anchor="start" x="498.02" y="-18" font-family="Helvetica,sans-Serif" font-size="10.00">src/cryptnox&#45;sdk&#45;cpp</text>
<text text-anchor="middle" x="549.52" y="-7" font-family="Helvetica,sans-Serif" font-size="10.00">/CryptnoxWallet.cpp</text>
</a>
</g>
</g>
<!-- Node11&#45;&gt;Node12 -->
<g id="edge16_Node000011_Node000012" class="edge">
<title>Node11&#45;&gt;Node12</title>
<g id="a_edge16_Node000011_Node000012"><a xlink:title=" ">
<path fill="none" stroke="#63b8ff" d="M549.52,-55.54C549.52,-46.96 549.52,-37.61 549.52,-30.16"/>
<polygon fill="#63b8ff" stroke="#63b8ff" points="546.02,-55.8 549.52,-65.8 553.02,-55.8 546.02,-55.8"/>
</a>
</g>
</g>
</g>
</svg>
