<?xml version="1.0" encoding="UTF-8" standalone="no"?>
<!DOCTYPE svg PUBLIC "-//W3C//DTD SVG 1.1//EN"
 "http://www.w3.org/Graphics/SVG/1.1/DTD/svg11.dtd">
<!-- Generated by graphviz version 2.43.0 (0)
 -->
<!-- Title: src/cryptnox&#45;sdk&#45;cpp/CW_CryptoProvider.h Pages: 1 -->
<svg width="664pt" height="236pt"
 viewBox="0.00 0.00 663.50 236.00" xmlns="http://www.w3.org/2000/svg" xmlns:xlink="http://www.w3.org/1999/xlink">
<g id="graph0" class="graph" transform="scale(1 1) rotate(0) translate(4 232)">
<title>src/cryptnox&#45;sdk&#45;cpp/CW_CryptoProvider.h</title>
<!-- Node1 -->
<g id="Node000001" class="node">
<title>Node1</title>
<g id="a_Node000001"><a xlink:title="Abstract cryptographic primitives interface.">
<polygon fill="#999999" stroke="#666666" points="354,-228 232,-228 232,-198 354,-198 354,-228"/>
<text text-anchor="start" x="240" y="-216" font-family="Helvetica,sans-Serif" font-size="10.00">src/cryptnox&#45;sdk&#45;cpp</text>
<text text-anchor="middle" x="293" y="-205" font-family="Helvetica,sans-Serif" font-size="10.00">/CW_CryptoProvider.h</text>
</a>
</g>
</g>
<!-- Node2 -->
<g id="Node000002" class="node">
<title>Node2</title>
<g id="a_Node000002"><a xlink:href="ArduinoCryptoProvider_8h.html" target="_top" xlink:title="Concrete CW_CryptoProvider for the Arduino UNO R4 (RA4M1).">
<polygon fill="white" stroke="#666666" points="202,-156.5 50,-156.5 50,-137.5 202,-137.5 202,-156.5"/>
<text text-anchor="middle" x="126" y="-144.5" font-family="Helvetica,sans-Serif" font-size="10.00">src/ArduinoCryptoProvider.h</text>
</a>
</g>
</g>
<!-- Node1&#45;&gt;Node2 -->
<g id="edge1_Node000001_Node000002" class="edge">
<title>Node1&#45;&gt;Node2</title>
<g id="a_edge1_Node000001_Node000002"><a xlink:title=" ">
<path fill="none" stroke="#63b8ff" d="M246.71,-194.26C214.59,-181.95 173.25,-166.11 148.22,-156.52"/>
<polygon fill="#63b8ff" stroke="#63b8ff" points="245.76,-197.64 256.35,-197.95 248.27,-191.11 245.76,-197.64"/>
</a>
</g>
</g>
<!-- Node4 -->
<g id="Node000004" class="node">
<title>Node4</title>
<g id="a_Node000004"><a xlink:href="CryptnoxWallet_8h.html" target="_top" xlink:title="Umbrella include and module&#45;group anchor for the CryptnoxWallet Arduino library.">
<polygon fill="white" stroke="#666666" points="289,-24.5 171,-24.5 171,-5.5 289,-5.5 289,-24.5"/>
<text text-anchor="middle" x="230" y="-12.5" font-family="Helvetica,sans-Serif" font-size="10.00">src/CryptnoxWallet.h</text>
</a>
</g>
</g>
<!-- Node1&#45;&gt;Node4 -->
<g id="edge4_Node000001_Node000004" class="edge">
<title>Node1&#45;&gt;Node4</title>
<g id="a_edge4_Node000001_Node000004"><a xlink:title=" ">
<path fill="none" stroke="#63b8ff" d="M285.32,-188.11C271.26,-144.36 241.97,-53.24 232.8,-24.73"/>
<polygon fill="#63b8ff" stroke="#63b8ff" points="282.08,-189.45 288.47,-197.9 288.74,-187.31 282.08,-189.45"/>
</a>
</g>
</g>
<!-- Node5 -->
<g id="Node000005" class="node">
<title>Node5</title>
<g id="a_Node000005"><a xlink:href="CW__SecureChannel_8h.html" target="_top" xlink:title="Cryptnox secure channel protocol over NFC.">
<polygon fill="white" stroke="#666666" points="417.5,-162 294.5,-162 294.5,-132 417.5,-132 417.5,-162"/>
<text text-anchor="start" x="302.5" y="-150" font-family="Helvetica,sans-Serif" font-size="10.00">src/cryptnox&#45;sdk&#45;cpp</text>
<text text-anchor="middle" x="356" y="-139" font-family="Helvetica,sans-Serif" font-size="10.00">/CW_SecureChannel.h</text>
</a>
</g>
</g>
<!-- Node1&#45;&gt;Node5 -->
<g id="edge5_Node000001_Node000005" class="edge">
<title>Node1&#45;&gt;Node5</title>
<g id="a_edge5_Node000001_Node000005"><a xlink:title=" ">
<path fill="none" stroke="#63b8ff" d="M314.02,-190.65C323.25,-181.27 333.83,-170.53 342.06,-162.16"/>
<polygon fill="#63b8ff" stroke="#63b8ff" points="311.5,-188.21 306.98,-197.8 316.49,-193.13 311.5,-188.21"/>
</a>
</g>
</g>
<!-- Node7 -->
<g id="Node000007" class="node">
<title>Node7</title>
<g id="a_Node000007"><a xlink:href="fuzz__der_8cpp.html" target="_top" xlink:title=" ">
<polygon fill="white" stroke="#666666" points="655.5,-30 536.5,-30 536.5,0 655.5,0 655.5,-30"/>
<text text-anchor="start" x="544.5" y="-18" font-family="Helvetica,sans-Serif" font-size="10.00">src/cryptnox&#45;sdk&#45;cpp</text>
<text text-anchor="middle" x="596" y="-7" font-family="Helvetica,sans-Serif" font-size="10.00">/fuzz/fuzz_der.cpp</text>
</a>
</g>
</g>
<!-- Node1&#45;&gt;Node7 -->
<g id="edge13_Node000001_Node000007" class="edge">
<title>Node1&#45;&gt;Node7</title>
<g id="a_edge13_Node000001_Node000007"><a xlink:title=" ">
<path fill="none" stroke="#63b8ff" d="M364.04,-207.32C436.61,-198.3 545.82,-172.08 598,-96 611.44,-76.41 606.03,-47.3 600.96,-30.12"/>
<polygon fill="#63b8ff" stroke="#63b8ff" points="363.58,-203.85 354.06,-208.48 364.39,-210.8 363.58,-203.85"/>
</a>
</g>
</g>
<!-- Node3 -->
<g id="Node000003" class="node">
<title>Node3</title>
<g id="a_Node000003"><a xlink:href="ArduinoCryptoProvider_8cpp.html" target="_top" xlink:title="Implementation of the Arduino UNO R4 concrete crypto provider.">
<polygon fill="white" stroke="#666666" points="164,-90.5 0,-90.5 0,-71.5 164,-71.5 164,-90.5"/>
<text text-anchor="middle" x="82" y="-78.5" font-family="Helvetica,sans-Serif" font-size="10.00">src/ArduinoCryptoProvider.cpp</text>
</a>
</g>
</g>
<!-- Node2&#45;&gt;Node3 -->
<g id="edge2_Node000002_Node000003" class="edge">
<title>Node2&#45;&gt;Node3</title>
<g id="a_edge2_Node000002_Node000003"><a xlink:title=" ">
<path fill="none" stroke="#63b8ff" d="M114.25,-128.91C105.84,-116.68 94.86,-100.7 88.12,-90.91"/>
<polygon fill="#63b8ff" stroke="#63b8ff" points="111.52,-131.11 120.07,-137.37 117.28,-127.15 111.52,-131.11"/>
</a>
</g>
</g>
<!-- Node2&#45;&gt;Node4 -->
<g id="edge3_Node000002_Node000004" class="edge">
<title>Node2&#45;&gt;Node4</title>
<g id="a_edge3_Node000002_Node000004"><a xlink:title=" ">
<path fill="none" stroke="#63b8ff" d="M141.88,-130.22C151.27,-120.62 163.2,-107.95 173,-96 193.33,-71.21 214.54,-39.68 224.37,-24.69"/>
<polygon fill="#63b8ff" stroke="#63b8ff" points="139.24,-127.91 134.69,-137.48 144.22,-132.83 139.24,-127.91"/>
</a>
</g>
</g>
<!-- Node5&#45;&gt;Node4 -->
<g id="edge6_Node000005_Node000004" class="edge">
<title>Node5&#45;&gt;Node4</title>
<g id="a_edge6_Node000005_Node000004"><a xlink:title=" ">
<path fill="none" stroke="#63b8ff" d="M324.67,-126.02C312.54,-117.53 298.97,-107.04 288,-96 265.03,-72.87 244.21,-40.01 235,-24.6"/>
<polygon fill="#63b8ff" stroke="#63b8ff" points="322.95,-129.09 333.19,-131.83 326.9,-123.3 322.95,-129.09"/>
</a>
</g>
</g>
<!-- Node6 -->
<g id="Node000006" class="node">
<title>Node6</title>
<g id="a_Node000006"><a xlink:href="CW__SecureChannel_8cpp.html" target="_top" xlink:title="Implementation of the Cryptnox secure channel protocol.">
<polygon fill="white" stroke="#666666" points="568,-96 434,-96 434,-66 568,-66 568,-96"/>
<text text-anchor="start" x="442" y="-84" font-family="Helvetica,sans-Serif" font-size="10.00">src/cryptnox&#45;sdk&#45;cpp</text>
<text text-anchor="middle" x="501" y="-73" font-family="Helvetica,sans-Serif" font-size="10.00">/CW_SecureChannel.cpp</text>
</a>
</g>
</g>
<!-- Node5&#45;&gt;Node6 -->
<g id="edge7_Node000005_Node000006" class="edge">
<title>Node5&#45;&gt;Node6</title>
<g id="a_edge7_Node000005_Node000006"><a xlink:title=" ">
<path fill="none" stroke="#63b8ff" d="M397.27,-127.78C420.13,-117.69 448.12,-105.34 469.25,-96.01"/>
<polygon fill="#63b8ff" stroke="#63b8ff" points="395.56,-124.71 387.82,-131.95 398.38,-131.12 395.56,-124.71"/>
</a>
</g>
</g>
<!-- Node5&#45;&gt;Node7 -->
<g id="edge12_Node000005_Node000007" class="edge">
<title>Node5&#45;&gt;Node7</title>
<g id="a_edge12_Node000005_Node000007"><a xlink:title=" ">
<path fill="none" stroke="#63b8ff" d="M427.51,-138.05C483.76,-130.35 556.03,-116.75 577,-96 594.56,-78.63 597.06,-48.2 596.84,-30.3"/>
<polygon fill="#63b8ff" stroke="#63b8ff" points="427.02,-134.59 417.57,-139.38 427.94,-141.53 427.02,-134.59"/>
</a>
</g>
</g>
<!-- Node8 -->
<g id="Node000008" class="node">
<title>Node8</title>
<g id="a_Node000008"><a xlink:href="cryptnox-sdk-cpp_2CryptnoxWallet_8h.html" target="_top" xlink:title="High&#45;level API for interacting with a Cryptnox Hardware Wallet over NFC.">
<polygon fill="white" stroke="#666666" points="415.5,-96 296.5,-96 296.5,-66 415.5,-66 415.5,-96"/>
<text text-anchor="start" x="304.5" y="-84" font-family="Helvetica,sans-Serif" font-size="10.00">src/cryptnox&#45;sdk&#45;cpp</text>
<text text-anchor="middle" x="356" y="-73" font-family="Helvetica,sans-Serif" font-size="10.00">/CryptnoxWallet.h</text>
</a>
</g>
</g>
<!-- Node5&#45;&gt;Node8 -->
<g id="edge9_Node000005_Node000008" class="edge">
<title>Node5&#45;&gt;Node8</title>
<g id="a_edge9_Node000005_Node000008"><a xlink:title=" ">
<path fill="none" stroke="#63b8ff" d="M356,-121.54C356,-112.96 356,-103.61 356,-96.16"/>
<polygon fill="#63b8ff" stroke="#63b8ff" points="352.5,-121.8 356,-131.8 359.5,-121.8 352.5,-121.8"/>
</a>
</g>
</g>
<!-- Node6&#45;&gt;Node7 -->
<g id="edge8_Node000006_Node000007" class="edge">
<title>Node6&#45;&gt;Node7</title>
<g id="a_edge8_Node000006_Node000007"><a xlink:title=" ">
<path fill="none" stroke="#63b8ff" d="M530.65,-60.03C545.02,-50.34 561.95,-38.94 574.98,-30.16"/>
<polygon fill="#63b8ff" stroke="#63b8ff" points="528.42,-57.31 522.08,-65.8 532.33,-63.11 528.42,-57.31"/>
</a>
</g>
</g>
<!-- Node8&#45;&gt;Node4 -->
<g id="edge10_Node000008_Node000004" class="edge">
<title>Node8&#45;&gt;Node4</title>
<g id="a_edge10_Node000008_Node000004"><a xlink:title=" ">
<path fill="none" stroke="#63b8ff" d="M319.18,-61.3C295.24,-49.14 265.16,-33.86 246.77,-24.52"/>
<polygon fill="#63b8ff" stroke="#63b8ff" points="317.85,-64.55 328.35,-65.95 321.02,-58.31 317.85,-64.55"/>
</a>
</g>
</g>
<!-- Node9 -->
<g id="Node000009" class="node">
<title>Node9</title>
<g id="a_Node000009"><a xlink:href="CryptnoxWallet_8cpp.html" target="_top" xlink:title="Implementation of the high&#45;level CryptnoxWallet API.">
<polygon fill="white" stroke="#666666" points="426.5,-30 307.5,-30 307.5,0 426.5,0 426.5,-30"/>
<text text-anchor="start" x="315.5" y="-18" font-family="Helvetica,sans-Serif" font-size="10.00">src/cryptnox&#45;sdk&#45;cpp</text>
<text text-anchor="middle" x="367" y="-7" font-family="Helvetica,sans-Serif" font-size="10.00">/CryptnoxWallet.cpp</text>
</a>
</g>
</g>
<!-- Node8&#45;&gt;Node9 -->
<g id="edge11_Node000008_Node000009" class="edge">
<title>Node8&#45;&gt;Node9</title>
<g id="a_edge11_Node000008_Node000009"><a xlink:title=" ">
<path fill="none" stroke="#63b8ff" d="M360.16,-55.83C361.64,-47.17 363.27,-37.7 364.57,-30.16"/>
<polygon fill="#63b8ff" stroke="#63b8ff" points="356.69,-55.35 358.44,-65.8 363.58,-56.53 356.69,-55.35"/>
</a>
</g>
</g>
</g>
</svg>
