<?xml version="1.0" encoding="UTF-8" standalone="no"?>
<!DOCTYPE svg PUBLIC "-//W3C//DTD SVG 1.1//EN"
 "http://www.w3.org/Graphics/SVG/1.1/DTD/svg11.dtd">
<!-- Generated by graphviz version 2.43.0 (0)
 -->
<!-- Title: src/cryptnox&#45;sdk&#45;cpp/CW_NfcTransport.h Pages: 1 -->
<svg width="288pt" height="148pt"
 viewBox="0.00 0.00 287.50 148.00" xmlns="http://www.w3.org/2000/svg" xmlns:xlink="http://www.w3.org/1999/xlink">
<g id="graph0" class="graph" transform="scale(1 1) rotate(0) translate(4 144)">
<title>src/cryptnox&#45;sdk&#45;cpp/CW_NfcTransport.h</title>
<!-- Node1 -->
<g id="Node000001" class="node">
<title>Node1</title>
<g id="a_Node000001"><a xlink:title="Abstract NFC transport interface.">
<polygon fill="#999999" stroke="#666666" points="127,-140 8,-140 8,-110 127,-110 127,-140"/>
<text text-anchor="start" x="16" y="-128" font-family="Helvetica,sans-Serif" font-size="10.00">src/cryptnox&#45;sdk&#45;cpp</text>
<text text-anchor="middle" x="67.5" y="-117" font-family="Helvetica,sans-Serif" font-size="10.00">/CW_NfcTransport.h</text>
</a>
</g>
</g>
<!-- Node2 -->
<g id="Node000002" class="node">
<title>Node2</title>
<g id="a_Node000002"><a xlink:href="platform__compat_8h.html" target="_top" xlink:title="Arduino compatibility shims for non&#45;Arduino (plain C++) builds.">
<polygon fill="white" stroke="#666666" points="164.5,-74 54.5,-74 54.5,-55 164.5,-55 164.5,-74"/>
<text text-anchor="middle" x="109.5" y="-62" font-family="Helvetica,sans-Serif" font-size="10.00">platform_compat.h</text>
</a>
</g>
</g>
<!-- Node1&#45;&gt;Node2 -->
<g id="edge1_Node000001_Node000002" class="edge">
<title>Node1&#45;&gt;Node2</title>
<g id="a_edge1_Node000001_Node000002"><a xlink:title=" ">
<path fill="none" stroke="#63b8ff" d="M77.67,-109.84C83.58,-101.61 91.06,-91.18 97.29,-82.51"/>
<polygon fill="#63b8ff" stroke="#63b8ff" points="100.22,-84.43 103.21,-74.27 94.53,-80.35 100.22,-84.43"/>
</a>
</g>
</g>
<!-- Node3 -->
<g id="Node000003" class="node">
<title>Node3</title>
<g id="a_Node000003"><a xlink:title=" ">
<polygon fill="#e0e0e0" stroke="#999999" points="53,-19 0,-19 0,0 53,0 53,-19"/>
<text text-anchor="middle" x="26.5" y="-7" font-family="Helvetica,sans-Serif" font-size="10.00">stdint.h</text>
</a>
</g>
</g>
<!-- Node1&#45;&gt;Node3 -->
<g id="edge6_Node000001_Node000003" class="edge">
<title>Node1&#45;&gt;Node3</title>
<g id="a_edge6_Node000001_Node000003"><a xlink:title=" ">
<path fill="none" stroke="#63b8ff" d="M60.67,-109.75C56.06,-99.85 50.02,-86.28 45.5,-74 40.03,-59.13 34.95,-41.89 31.42,-29.13"/>
<polygon fill="#63b8ff" stroke="#63b8ff" points="34.73,-27.98 28.75,-19.24 27.98,-29.81 34.73,-27.98"/>
</a>
</g>
</g>
<!-- Node2&#45;&gt;Node3 -->
<g id="edge2_Node000002_Node000003" class="edge">
<title>Node2&#45;&gt;Node3</title>
<g id="a_edge2_Node000002_Node000003"><a xlink:title=" ">
<path fill="none" stroke="#63b8ff" d="M96.16,-54.98C83.41,-46.84 63.95,-34.41 48.83,-24.76"/>
<polygon fill="#63b8ff" stroke="#63b8ff" points="50.39,-21.6 40.08,-19.17 46.62,-27.5 50.39,-21.6"/>
</a>
</g>
</g>
<!-- Node4 -->
<g id="Node000004" class="node">
<title>Node4</title>
<g id="a_Node000004"><a xlink:title=" ">
<polygon fill="#e0e0e0" stroke="#999999" points="127.5,-19 71.5,-19 71.5,0 127.5,0 127.5,-19"/>
<text text-anchor="middle" x="99.5" y="-7" font-family="Helvetica,sans-Serif" font-size="10.00">stddef.h</text>
</a>
</g>
</g>
<!-- Node2&#45;&gt;Node4 -->
<g id="edge3_Node000002_Node000004" class="edge">
<title>Node2&#45;&gt;Node4</title>
<g id="a_edge3_Node000002_Node000004"><a xlink:title=" ">
<path fill="none" stroke="#63b8ff" d="M107.85,-54.75C106.54,-47.8 104.66,-37.85 103.02,-29.13"/>
<polygon fill="#63b8ff" stroke="#63b8ff" points="106.41,-28.27 101.12,-19.09 99.54,-29.56 106.41,-28.27"/>
</a>
</g>
</g>
<!-- Node5 -->
<g id="Node000005" class="node">
<title>Node5</title>
<g id="a_Node000005"><a xlink:title=" ">
<polygon fill="#e0e0e0" stroke="#999999" points="199,-19 146,-19 146,0 199,0 199,-19"/>
<text text-anchor="middle" x="172.5" y="-7" font-family="Helvetica,sans-Serif" font-size="10.00">string.h</text>
</a>
</g>
</g>
<!-- Node2&#45;&gt;Node5 -->
<g id="edge4_Node000002_Node000005" class="edge">
<title>Node2&#45;&gt;Node5</title>
<g id="a_edge4_Node000002_Node000005"><a xlink:title=" ">
<path fill="none" stroke="#63b8ff" d="M119.62,-54.98C128.94,-47.15 142.97,-35.34 154.24,-25.86"/>
<polygon fill="#63b8ff" stroke="#63b8ff" points="156.79,-28.29 162.19,-19.17 152.29,-22.93 156.79,-28.29"/>
</a>
</g>
</g>
<!-- Node6 -->
<g id="Node000006" class="node">
<title>Node6</title>
<g id="a_Node000006"><a xlink:title=" ">
<polygon fill="#e0e0e0" stroke="#999999" points="279.5,-19 217.5,-19 217.5,0 279.5,0 279.5,-19"/>
<text text-anchor="middle" x="248.5" y="-7" font-family="Helvetica,sans-Serif" font-size="10.00">stdbool.h</text>
</a>
</g>
</g>
<!-- Node2&#45;&gt;Node6 -->
<g id="edge5_Node000002_Node000006" class="edge">
<title>Node2&#45;&gt;Node6</title>
<g id="a_edge5_Node000002_Node000006"><a xlink:title=" ">
<path fill="none" stroke="#63b8ff" d="M131.83,-54.98C154.7,-46.27 190.46,-32.63 216.36,-22.75"/>
<polygon fill="#63b8ff" stroke="#63b8ff" points="217.66,-26 225.76,-19.17 215.17,-19.46 217.66,-26"/>
</a>
</g>
</g>
</g>
</svg>
