<?xml version="1.0" encoding="UTF-8" standalone="no"?>
<!DOCTYPE svg PUBLIC "-//W3C//DTD SVG 1.1//EN"
 "http://www.w3.org/Graphics/SVG/1.1/DTD/svg11.dtd">
<!-- Generated by graphviz version 2.43.0 (0)
 -->
<!-- Title: src/cryptnox&#45;sdk&#45;cpp/CW_NfcTransport.h Pages: 1 -->
<svg width="599pt" height="236pt"
 viewBox="0.00 0.00 599.11 236.00" xmlns="http://www.w3.org/2000/svg" xmlns:xlink="http://www.w3.org/1999/xlink">
<g id="graph0" class="graph" transform="scale(1 1) rotate(0) translate(4 232)">
<title>src/cryptnox&#45;sdk&#45;cpp/CW_NfcTransport.h</title>
<!-- Node1 -->
<g id="Node000001" class="node">
<title>Node1</title>
<g id="a_Node000001"><a xlink:title="Abstract NFC transport interface.">
<polygon fill="#999999" stroke="#666666" points="288.11,-228 169.11,-228 169.11,-198 288.11,-198 288.11,-228"/>
<text text-anchor="start" x="177.11" y="-216" font-family="Helvetica,sans-Serif" font-size="10.00">src/cryptnox&#45;sdk&#45;cpp</text>
<text text-anchor="middle" x="228.61" y="-205" font-family="Helvetica,sans-Serif" font-size="10.00">/CW_NfcTransport.h</text>
</a>
</g>
</g>
<!-- Node2 -->
<g id="Node000002" class="node">
<title>Node2</title>
<g id="a_Node000002"><a xlink:href="CryptnoxWallet_8h.html" target="_top" xlink:title="Umbrella include and module&#45;group anchor for the CryptnoxWallet Arduino library.">
<polygon fill="white" stroke="#666666" points="224.61,-24.5 106.61,-24.5 106.61,-5.5 224.61,-5.5 224.61,-24.5"/>
<text text-anchor="middle" x="165.61" y="-12.5" font-family="Helvetica,sans-Serif" font-size="10.00">src/CryptnoxWallet.h</text>
</a>
</g>
</g>
<!-- Node1&#45;&gt;Node2 -->
<g id="edge1_Node000001_Node000002" class="edge">
<title>Node1&#45;&gt;Node2</title>
<g id="a_edge1_Node000001_Node000002"><a xlink:title=" ">
<path fill="none" stroke="#63b8ff" d="M159.19,-198.53C105.03,-183.79 34.21,-154.03 4.61,-96 -18.25,-51.17 51.56,-31.07 106.38,-22.34"/>
<polygon fill="#63b8ff" stroke="#63b8ff" points="158.53,-201.98 169.09,-201.12 160.3,-195.21 158.53,-201.98"/>
</a>
</g>
</g>
<!-- Node3 -->
<g id="Node000003" class="node">
<title>Node3</title>
<g id="a_Node000003"><a xlink:href="PN532Adapter_8h.html" target="_top" xlink:title="Concrete CW_NfcTransport over Adafruit_PN532 (SPI / I2C / UART).">
<polygon fill="white" stroke="#666666" points="216.61,-156.5 104.61,-156.5 104.61,-137.5 216.61,-137.5 216.61,-156.5"/>
<text text-anchor="middle" x="160.61" y="-144.5" font-family="Helvetica,sans-Serif" font-size="10.00">src/PN532Adapter.h</text>
</a>
</g>
</g>
<!-- Node1&#45;&gt;Node3 -->
<g id="edge2_Node000001_Node000003" class="edge">
<title>Node1&#45;&gt;Node3</title>
<g id="a_edge2_Node000001_Node000003"><a xlink:title=" ">
<path fill="none" stroke="#63b8ff" d="M206.23,-190.93C193.93,-179.35 179.32,-165.61 170.01,-156.84"/>
<polygon fill="#63b8ff" stroke="#63b8ff" points="203.84,-193.49 213.52,-197.8 208.64,-188.39 203.84,-193.49"/>
</a>
</g>
</g>
<!-- Node5 -->
<g id="Node000005" class="node">
<title>Node5</title>
<g id="a_Node000005"><a xlink:href="CW__SecureChannel_8h.html" target="_top" xlink:title="Cryptnox secure channel protocol over NFC.">
<polygon fill="white" stroke="#666666" points="358.11,-162 235.11,-162 235.11,-132 358.11,-132 358.11,-162"/>
<text text-anchor="start" x="243.11" y="-150" font-family="Helvetica,sans-Serif" font-size="10.00">src/cryptnox&#45;sdk&#45;cpp</text>
<text text-anchor="middle" x="296.61" y="-139" font-family="Helvetica,sans-Serif" font-size="10.00">/CW_SecureChannel.h</text>
</a>
</g>
</g>
<!-- Node1&#45;&gt;Node5 -->
<g id="edge5_Node000001_Node000005" class="edge">
<title>Node1&#45;&gt;Node5</title>
<g id="a_edge5_Node000001_Node000005"><a xlink:title=" ">
<path fill="none" stroke="#63b8ff" d="M251.01,-190.92C261.03,-181.49 272.59,-170.61 281.56,-162.16"/>
<polygon fill="#63b8ff" stroke="#63b8ff" points="248.59,-188.39 243.7,-197.8 253.39,-193.49 248.59,-188.39"/>
</a>
</g>
</g>
<!-- Node7 -->
<g id="Node000007" class="node">
<title>Node7</title>
<g id="a_Node000007"><a xlink:href="fuzz__der_8cpp.html" target="_top" xlink:title=" ">
<polygon fill="white" stroke="#666666" points="591.11,-30 472.11,-30 472.11,0 591.11,0 591.11,-30"/>
<text text-anchor="start" x="480.11" y="-18" font-family="Helvetica,sans-Serif" font-size="10.00">src/cryptnox&#45;sdk&#45;cpp</text>
<text text-anchor="middle" x="531.61" y="-7" font-family="Helvetica,sans-Serif" font-size="10.00">/fuzz/fuzz_der.cpp</text>
</a>
</g>
</g>
<!-- Node1&#45;&gt;Node7 -->
<g id="edge13_Node000001_Node000007" class="edge">
<title>Node1&#45;&gt;Node7</title>
<g id="a_edge13_Node000001_Node000007"><a xlink:title=" ">
<path fill="none" stroke="#63b8ff" d="M298.22,-207.62C370.9,-198.88 481.44,-172.9 533.61,-96 546.95,-76.34 541.58,-47.25 536.54,-30.1"/>
<polygon fill="#63b8ff" stroke="#63b8ff" points="297.77,-204.14 288.22,-208.74 298.55,-211.1 297.77,-204.14"/>
</a>
</g>
</g>
<!-- Node3&#45;&gt;Node2 -->
<g id="edge3_Node000003_Node000002" class="edge">
<title>Node3&#45;&gt;Node2</title>
<g id="a_edge3_Node000003_Node000002"><a xlink:title=" ">
<path fill="none" stroke="#63b8ff" d="M161.34,-127.23C162.43,-98.72 164.48,-45.59 165.28,-24.73"/>
<polygon fill="#63b8ff" stroke="#63b8ff" points="157.83,-127.34 160.94,-137.47 164.82,-127.61 157.83,-127.34"/>
</a>
</g>
</g>
<!-- Node4 -->
<g id="Node000004" class="node">
<title>Node4</title>
<g id="a_Node000004"><a xlink:href="PN532Adapter_8cpp.html" target="_top" xlink:title="Implementation of the PN532 transport adapter.">
<polygon fill="white" stroke="#666666" points="137.11,-90.5 14.11,-90.5 14.11,-71.5 137.11,-71.5 137.11,-90.5"/>
<text text-anchor="middle" x="75.61" y="-78.5" font-family="Helvetica,sans-Serif" font-size="10.00">src/PN532Adapter.cpp</text>
</a>
</g>
</g>
<!-- Node3&#45;&gt;Node4 -->
<g id="edge4_Node000003_Node000004" class="edge">
<title>Node3&#45;&gt;Node4</title>
<g id="a_edge4_Node000003_Node000004"><a xlink:title=" ">
<path fill="none" stroke="#63b8ff" d="M141.14,-131.33C124.46,-118.78 101.02,-101.13 87.17,-90.7"/>
<polygon fill="#63b8ff" stroke="#63b8ff" points="139.06,-134.15 149.15,-137.37 143.27,-128.56 139.06,-134.15"/>
</a>
</g>
</g>
<!-- Node5&#45;&gt;Node2 -->
<g id="edge6_Node000005_Node000002" class="edge">
<title>Node5&#45;&gt;Node2</title>
<g id="a_edge6_Node000005_Node000002"><a xlink:title=" ">
<path fill="none" stroke="#63b8ff" d="M262.97,-126.42C249.92,-117.97 235.33,-107.41 223.61,-96 200.26,-73.26 179.62,-40.21 170.53,-24.68"/>
<polygon fill="#63b8ff" stroke="#63b8ff" points="261.38,-129.56 271.71,-131.92 265.11,-123.63 261.38,-129.56"/>
</a>
</g>
</g>
<!-- Node6 -->
<g id="Node000006" class="node">
<title>Node6</title>
<g id="a_Node000006"><a xlink:href="CW__SecureChannel_8cpp.html" target="_top" xlink:title="Implementation of the Cryptnox secure channel protocol.">
<polygon fill="white" stroke="#666666" points="503.61,-96 369.61,-96 369.61,-66 503.61,-66 503.61,-96"/>
<text text-anchor="start" x="377.61" y="-84" font-family="Helvetica,sans-Serif" font-size="10.00">src/cryptnox&#45;sdk&#45;cpp</text>
<text text-anchor="middle" x="436.61" y="-73" font-family="Helvetica,sans-Serif" font-size="10.00">/CW_SecureChannel.cpp</text>
</a>
</g>
</g>
<!-- Node5&#45;&gt;Node6 -->
<g id="edge7_Node000005_Node000006" class="edge">
<title>Node5&#45;&gt;Node6</title>
<g id="a_edge7_Node000005_Node000006"><a xlink:title=" ">
<path fill="none" stroke="#63b8ff" d="M336.46,-127.78C358.53,-117.69 385.55,-105.34 405.96,-96.01"/>
<polygon fill="#63b8ff" stroke="#63b8ff" points="334.98,-124.61 327.34,-131.95 337.89,-130.98 334.98,-124.61"/>
</a>
</g>
</g>
<!-- Node5&#45;&gt;Node7 -->
<g id="edge12_Node000005_Node000007" class="edge">
<title>Node5&#45;&gt;Node7</title>
<g id="a_edge12_Node000005_Node000007"><a xlink:title=" ">
<path fill="none" stroke="#63b8ff" d="M368.16,-137.62C422.9,-129.75 492.35,-116.15 512.61,-96 530.13,-78.59 532.65,-48.17 532.44,-30.28"/>
<polygon fill="#63b8ff" stroke="#63b8ff" points="367.55,-134.17 358.13,-139.02 368.51,-141.1 367.55,-134.17"/>
</a>
</g>
</g>
<!-- Node8 -->
<g id="Node000008" class="node">
<title>Node8</title>
<g id="a_Node000008"><a xlink:href="cryptnox-sdk-cpp_2CryptnoxWallet_8h.html" target="_top" xlink:title="High&#45;level API for interacting with a Cryptnox Hardware Wallet over NFC.">
<polygon fill="white" stroke="#666666" points="351.11,-96 232.11,-96 232.11,-66 351.11,-66 351.11,-96"/>
<text text-anchor="start" x="240.11" y="-84" font-family="Helvetica,sans-Serif" font-size="10.00">src/cryptnox&#45;sdk&#45;cpp</text>
<text text-anchor="middle" x="291.61" y="-73" font-family="Helvetica,sans-Serif" font-size="10.00">/CryptnoxWallet.h</text>
</a>
</g>
</g>
<!-- Node5&#45;&gt;Node8 -->
<g id="edge9_Node000005_Node000008" class="edge">
<title>Node5&#45;&gt;Node8</title>
<g id="a_edge9_Node000005_Node000008"><a xlink:title=" ">
<path fill="none" stroke="#63b8ff" d="M294.72,-121.83C294.05,-113.17 293.31,-103.7 292.72,-96.16"/>
<polygon fill="#63b8ff" stroke="#63b8ff" points="291.24,-122.1 295.5,-131.8 298.21,-121.55 291.24,-122.1"/>
</a>
</g>
</g>
<!-- Node6&#45;&gt;Node7 -->
<g id="edge8_Node000006_Node000007" class="edge">
<title>Node6&#45;&gt;Node7</title>
<g id="a_edge8_Node000006_Node000007"><a xlink:title=" ">
<path fill="none" stroke="#63b8ff" d="M466.26,-60.03C480.64,-50.34 497.56,-38.94 510.59,-30.16"/>
<polygon fill="#63b8ff" stroke="#63b8ff" points="464.04,-57.31 457.7,-65.8 467.95,-63.11 464.04,-57.31"/>
</a>
</g>
</g>
<!-- Node8&#45;&gt;Node2 -->
<g id="edge10_Node000008_Node000002" class="edge">
<title>Node8&#45;&gt;Node2</title>
<g id="a_edge10_Node000008_Node000002"><a xlink:title=" ">
<path fill="none" stroke="#63b8ff" d="M254.79,-61.3C230.85,-49.14 200.77,-33.86 182.38,-24.52"/>
<polygon fill="#63b8ff" stroke="#63b8ff" points="253.46,-64.55 263.96,-65.95 256.63,-58.31 253.46,-64.55"/>
</a>
</g>
</g>
<!-- Node9 -->
<g id="Node000009" class="node">
<title>Node9</title>
<g id="a_Node000009"><a xlink:href="CryptnoxWallet_8cpp.html" target="_top" xlink:title="Implementation of the high&#45;level CryptnoxWallet API.">
<polygon fill="white" stroke="#666666" points="362.11,-30 243.11,-30 243.11,0 362.11,0 362.11,-30"/>
<text text-anchor="start" x="251.11" y="-18" font-family="Helvetica,sans-Serif" font-size="10.00">src/cryptnox&#45;sdk&#45;cpp</text>
<text text-anchor="middle" x="302.61" y="-7" font-family="Helvetica,sans-Serif" font-size="10.00">/CryptnoxWallet.cpp</text>
</a>
</g>
</g>
<!-- Node8&#45;&gt;Node9 -->
<g id="edge11_Node000008_Node000009" class="edge">
<title>Node8&#45;&gt;Node9</title>
<g id="a_edge11_Node000008_Node000009"><a xlink:title=" ">
<path fill="none" stroke="#63b8ff" d="M295.77,-55.83C297.26,-47.17 298.88,-37.7 300.18,-30.16"/>
<polygon fill="#63b8ff" stroke="#63b8ff" points="292.3,-55.35 294.05,-65.8 299.2,-56.53 292.3,-55.35"/>
</a>
</g>
</g>
</g>
</svg>
