<?xml version="1.0" encoding="UTF-8" standalone="no"?>
<!DOCTYPE svg PUBLIC "-//W3C//DTD SVG 1.1//EN"
 "http://www.w3.org/Graphics/SVG/1.1/DTD/svg11.dtd">
<!-- Generated by graphviz version 2.43.0 (0)
 -->
<!-- Title: src/cryptnox&#45;sdk&#45;cpp/CW_Defs.h Pages: 1 -->
<svg width="848pt" height="302pt"
 viewBox="0.00 0.00 847.72 302.00" xmlns="http://www.w3.org/2000/svg" xmlns:xlink="http://www.w3.org/1999/xlink">
<g id="graph0" class="graph" transform="scale(1 1) rotate(0) translate(4 298)">
<title>src/cryptnox&#45;sdk&#45;cpp/CW_Defs.h</title>
<!-- Node1 -->
<g id="Node000001" class="node">
<title>Node1</title>
<g id="a_Node000001"><a xlink:title="Shared constants, error codes, and session state for the SDK.">
<polygon fill="#999999" stroke="#666666" points="441.72,-294 322.72,-294 322.72,-264 441.72,-264 441.72,-294"/>
<text text-anchor="start" x="330.72" y="-282" font-family="Helvetica,sans-Serif" font-size="10.00">src/cryptnox&#45;sdk&#45;cpp</text>
<text text-anchor="middle" x="382.22" y="-271" font-family="Helvetica,sans-Serif" font-size="10.00">/CW_Defs.h</text>
</a>
</g>
</g>
<!-- Node2 -->
<g id="Node000002" class="node">
<title>Node2</title>
<g id="a_Node000002"><a xlink:href="CryptnoxWallet_8h.html" target="_top" xlink:title="Umbrella include and module&#45;group anchor for the CryptnoxWallet Arduino library.">
<polygon fill="white" stroke="#666666" points="284.22,-24.5 166.22,-24.5 166.22,-5.5 284.22,-5.5 284.22,-24.5"/>
<text text-anchor="middle" x="225.22" y="-12.5" font-family="Helvetica,sans-Serif" font-size="10.00">src/CryptnoxWallet.h</text>
</a>
</g>
</g>
<!-- Node1&#45;&gt;Node2 -->
<g id="edge1_Node000001_Node000002" class="edge">
<title>Node1&#45;&gt;Node2</title>
<g id="a_edge1_Node000001_Node000002"><a xlink:title=" ">
<path fill="none" stroke="#63b8ff" d="M312.35,-273.71C254.48,-268.24 171.06,-255.87 103.22,-228 55.33,-208.32 31.32,-207.82 7.22,-162 -33.28,-85 108,-41.63 182.36,-24.57"/>
<polygon fill="#63b8ff" stroke="#63b8ff" points="312.21,-277.21 322.48,-274.62 312.84,-270.24 312.21,-277.21"/>
</a>
</g>
</g>
<!-- Node3 -->
<g id="Node000003" class="node">
<title>Node3</title>
<g id="a_Node000003"><a xlink:href="PN532Adapter_8h.html" target="_top" xlink:title="Concrete CW_NfcTransport over Adafruit_PN532 (SPI / I2C / UART).">
<polygon fill="white" stroke="#666666" points="224.22,-222.5 112.22,-222.5 112.22,-203.5 224.22,-203.5 224.22,-222.5"/>
<text text-anchor="middle" x="168.22" y="-210.5" font-family="Helvetica,sans-Serif" font-size="10.00">src/PN532Adapter.h</text>
</a>
</g>
</g>
<!-- Node1&#45;&gt;Node3 -->
<g id="edge2_Node000001_Node000003" class="edge">
<title>Node1&#45;&gt;Node3</title>
<g id="a_edge2_Node000001_Node000003"><a xlink:title=" ">
<path fill="none" stroke="#63b8ff" d="M325.54,-261.05C284.04,-248.64 229.45,-232.31 196.7,-222.52"/>
<polygon fill="#63b8ff" stroke="#63b8ff" points="324.67,-264.44 335.26,-263.95 326.68,-257.74 324.67,-264.44"/>
</a>
</g>
</g>
<!-- Node5 -->
<g id="Node000005" class="node">
<title>Node5</title>
<g id="a_Node000005"><a xlink:href="CW__CryptoProvider_8h.html" target="_top" xlink:title="Abstract cryptographic primitives interface.">
<polygon fill="white" stroke="#666666" points="443.22,-228 321.22,-228 321.22,-198 443.22,-198 443.22,-228"/>
<text text-anchor="start" x="329.22" y="-216" font-family="Helvetica,sans-Serif" font-size="10.00">src/cryptnox&#45;sdk&#45;cpp</text>
<text text-anchor="middle" x="382.22" y="-205" font-family="Helvetica,sans-Serif" font-size="10.00">/CW_CryptoProvider.h</text>
</a>
</g>
</g>
<!-- Node1&#45;&gt;Node5 -->
<g id="edge5_Node000001_Node000005" class="edge">
<title>Node1&#45;&gt;Node5</title>
<g id="a_edge5_Node000001_Node000005"><a xlink:title=" ">
<path fill="none" stroke="#63b8ff" d="M382.22,-253.54C382.22,-244.96 382.22,-235.61 382.22,-228.16"/>
<polygon fill="#63b8ff" stroke="#63b8ff" points="378.72,-253.8 382.22,-263.8 385.72,-253.8 378.72,-253.8"/>
</a>
</g>
</g>
<!-- Node8 -->
<g id="Node000008" class="node">
<title>Node8</title>
<g id="a_Node000008"><a xlink:href="CW__SecureChannel_8h.html" target="_top" xlink:title="Cryptnox secure channel protocol over NFC.">
<polygon fill="white" stroke="#666666" points="615.72,-162 492.72,-162 492.72,-132 615.72,-132 615.72,-162"/>
<text text-anchor="start" x="500.72" y="-150" font-family="Helvetica,sans-Serif" font-size="10.00">src/cryptnox&#45;sdk&#45;cpp</text>
<text text-anchor="middle" x="554.22" y="-139" font-family="Helvetica,sans-Serif" font-size="10.00">/CW_SecureChannel.h</text>
</a>
</g>
</g>
<!-- Node1&#45;&gt;Node8 -->
<g id="edge19_Node000001_Node000008" class="edge">
<title>Node1&#45;&gt;Node8</title>
<g id="a_edge19_Node000001_Node000008"><a xlink:title=" ">
<path fill="none" stroke="#63b8ff" d="M411,-257.88C423.72,-248.87 438.81,-238.04 452.22,-228 482.31,-205.47 516.54,-178.29 536.72,-162.12"/>
<polygon fill="#63b8ff" stroke="#63b8ff" points="408.77,-255.17 402.61,-263.8 412.8,-260.89 408.77,-255.17"/>
</a>
</g>
</g>
<!-- Node11 -->
<g id="Node000011" class="node">
<title>Node11</title>
<g id="a_Node000011"><a xlink:href="cryptnox-sdk-cpp_2CryptnoxWallet_8h.html" target="_top" xlink:title="High&#45;level API for interacting with a Cryptnox Hardware Wallet over NFC.">
<polygon fill="white" stroke="#666666" points="839.72,-96 720.72,-96 720.72,-66 839.72,-66 839.72,-96"/>
<text text-anchor="start" x="728.72" y="-84" font-family="Helvetica,sans-Serif" font-size="10.00">src/cryptnox&#45;sdk&#45;cpp</text>
<text text-anchor="middle" x="780.22" y="-73" font-family="Helvetica,sans-Serif" font-size="10.00">/CryptnoxWallet.h</text>
</a>
</g>
</g>
<!-- Node1&#45;&gt;Node11 -->
<g id="edge20_Node000001_Node000011" class="edge">
<title>Node1&#45;&gt;Node11</title>
<g id="a_edge20_Node000001_Node000011"><a xlink:title=" ">
<path fill="none" stroke="#63b8ff" d="M421.83,-259.55C470.08,-236.97 553.98,-197.38 625.22,-162 670.51,-139.51 722.67,-112.32 753.47,-96.13"/>
<polygon fill="#63b8ff" stroke="#63b8ff" points="420.25,-256.43 412.67,-263.83 423.21,-262.77 420.25,-256.43"/>
</a>
</g>
</g>
<!-- Node3&#45;&gt;Node2 -->
<g id="edge3_Node000003_Node000002" class="edge">
<title>Node3&#45;&gt;Node2</title>
<g id="a_edge3_Node000003_Node000002"><a xlink:title=" ">
<path fill="none" stroke="#63b8ff" d="M168.81,-193.34C170.24,-164.92 175.18,-109.52 192.22,-66 198.44,-50.12 210.23,-34.06 217.91,-24.58"/>
<polygon fill="#63b8ff" stroke="#63b8ff" points="165.3,-193.31 168.39,-203.44 172.3,-193.6 165.3,-193.31"/>
</a>
</g>
</g>
<!-- Node4 -->
<g id="Node000004" class="node">
<title>Node4</title>
<g id="a_Node000004"><a xlink:href="PN532Adapter_8cpp.html" target="_top" xlink:title="Implementation of the PN532 transport adapter.">
<polygon fill="white" stroke="#666666" points="139.72,-156.5 16.72,-156.5 16.72,-137.5 139.72,-137.5 139.72,-156.5"/>
<text text-anchor="middle" x="78.22" y="-144.5" font-family="Helvetica,sans-Serif" font-size="10.00">src/PN532Adapter.cpp</text>
</a>
</g>
</g>
<!-- Node3&#45;&gt;Node4 -->
<g id="edge4_Node000003_Node000004" class="edge">
<title>Node3&#45;&gt;Node4</title>
<g id="a_edge4_Node000003_Node000004"><a xlink:title=" ">
<path fill="none" stroke="#63b8ff" d="M147.6,-197.33C129.94,-184.78 105.12,-167.13 90.45,-156.7"/>
<polygon fill="#63b8ff" stroke="#63b8ff" points="145.9,-200.43 156.08,-203.37 149.96,-194.72 145.9,-200.43"/>
</a>
</g>
</g>
<!-- Node5&#45;&gt;Node2 -->
<g id="edge9_Node000005_Node000002" class="edge">
<title>Node5&#45;&gt;Node2</title>
<g id="a_edge9_Node000005_Node000002"><a xlink:title=" ">
<path fill="none" stroke="#63b8ff" d="M320.76,-194.24C302.46,-186.62 283.5,-176.14 269.22,-162 229.71,-122.89 225.41,-49.7 225.14,-24.66"/>
<polygon fill="#63b8ff" stroke="#63b8ff" points="319.66,-197.56 330.24,-197.96 322.21,-191.05 319.66,-197.56"/>
</a>
</g>
</g>
<!-- Node6 -->
<g id="Node000006" class="node">
<title>Node6</title>
<g id="a_Node000006"><a xlink:href="ArduinoCryptoProvider_8h.html" target="_top" xlink:title="Concrete CW_CryptoProvider for the Arduino UNO R4 (RA4M1).">
<polygon fill="white" stroke="#666666" points="430.22,-156.5 278.22,-156.5 278.22,-137.5 430.22,-137.5 430.22,-156.5"/>
<text text-anchor="middle" x="354.22" y="-144.5" font-family="Helvetica,sans-Serif" font-size="10.00">src/ArduinoCryptoProvider.h</text>
</a>
</g>
</g>
<!-- Node5&#45;&gt;Node6 -->
<g id="edge6_Node000005_Node000006" class="edge">
<title>Node5&#45;&gt;Node6</title>
<g id="a_edge6_Node000005_Node000006"><a xlink:title=" ">
<path fill="none" stroke="#63b8ff" d="M371.99,-188.61C367.15,-177.56 361.67,-165.03 358.09,-156.84"/>
<polygon fill="#63b8ff" stroke="#63b8ff" points="368.79,-190.04 376.01,-197.8 375.2,-187.23 368.79,-190.04"/>
</a>
</g>
</g>
<!-- Node5&#45;&gt;Node8 -->
<g id="edge10_Node000005_Node000008" class="edge">
<title>Node5&#45;&gt;Node8</title>
<g id="a_edge10_Node000005_Node000008"><a xlink:title=" ">
<path fill="none" stroke="#63b8ff" d="M429.37,-194.46C456.81,-184.25 490.93,-171.55 516.56,-162.01"/>
<polygon fill="#63b8ff" stroke="#63b8ff" points="428.12,-191.19 419.97,-197.95 430.56,-197.75 428.12,-191.19"/>
</a>
</g>
</g>
<!-- Node10 -->
<g id="Node000010" class="node">
<title>Node10</title>
<g id="a_Node000010"><a xlink:href="fuzz__der_8cpp.html" target="_top" xlink:title=" ">
<polygon fill="white" stroke="#666666" points="599.72,-30 480.72,-30 480.72,0 599.72,0 599.72,-30"/>
<text text-anchor="start" x="488.72" y="-18" font-family="Helvetica,sans-Serif" font-size="10.00">src/cryptnox&#45;sdk&#45;cpp</text>
<text text-anchor="middle" x="540.22" y="-7" font-family="Helvetica,sans-Serif" font-size="10.00">/fuzz/fuzz_der.cpp</text>
</a>
</g>
</g>
<!-- Node5&#45;&gt;Node10 -->
<g id="edge18_Node000005_Node000010" class="edge">
<title>Node5&#45;&gt;Node10</title>
<g id="a_edge18_Node000005_Node000010"><a xlink:title=" ">
<path fill="none" stroke="#63b8ff" d="M408.28,-191.47C418.46,-182.88 429.89,-172.47 439.22,-162 478.8,-117.59 516.11,-57.16 532.07,-30.11"/>
<polygon fill="#63b8ff" stroke="#63b8ff" points="405.94,-188.87 400.46,-197.94 410.4,-194.27 405.94,-188.87"/>
</a>
</g>
</g>
<!-- Node6&#45;&gt;Node2 -->
<g id="edge8_Node000006_Node000002" class="edge">
<title>Node6&#45;&gt;Node2</title>
<g id="a_edge8_Node000006_Node000002"><a xlink:title=" ">
<path fill="none" stroke="#63b8ff" d="M320.1,-133.37C301.4,-125.07 278.91,-112.64 263.22,-96 243.07,-74.63 231.84,-40.62 227.43,-24.72"/>
<polygon fill="#63b8ff" stroke="#63b8ff" points="318.9,-136.67 329.47,-137.34 321.63,-130.22 318.9,-136.67"/>
</a>
</g>
</g>
<!-- Node7 -->
<g id="Node000007" class="node">
<title>Node7</title>
<g id="a_Node000007"><a xlink:href="ArduinoCryptoProvider_8cpp.html" target="_top" xlink:title="Implementation of the Arduino UNO R4 concrete crypto provider.">
<polygon fill="white" stroke="#666666" points="436.22,-90.5 272.22,-90.5 272.22,-71.5 436.22,-71.5 436.22,-90.5"/>
<text text-anchor="middle" x="354.22" y="-78.5" font-family="Helvetica,sans-Serif" font-size="10.00">src/ArduinoCryptoProvider.cpp</text>
</a>
</g>
</g>
<!-- Node6&#45;&gt;Node7 -->
<g id="edge7_Node000006_Node000007" class="edge">
<title>Node6&#45;&gt;Node7</title>
<g id="a_edge7_Node000006_Node000007"><a xlink:title=" ">
<path fill="none" stroke="#63b8ff" d="M354.22,-127.08C354.22,-115.13 354.22,-100.22 354.22,-90.91"/>
<polygon fill="#63b8ff" stroke="#63b8ff" points="350.72,-127.37 354.22,-137.37 357.72,-127.37 350.72,-127.37"/>
</a>
</g>
</g>
<!-- Node8&#45;&gt;Node2 -->
<g id="edge11_Node000008_Node000002" class="edge">
<title>Node8&#45;&gt;Node2</title>
<g id="a_edge11_Node000008_Node000002"><a xlink:title=" ">
<path fill="none" stroke="#63b8ff" d="M531.6,-125.03C510.7,-106.78 478.02,-80.98 445.22,-66 393.56,-42.41 329.84,-29.5 284.3,-22.74"/>
<polygon fill="#63b8ff" stroke="#63b8ff" points="529.47,-127.82 539.27,-131.86 534.12,-122.59 529.47,-127.82"/>
</a>
</g>
</g>
<!-- Node9 -->
<g id="Node000009" class="node">
<title>Node9</title>
<g id="a_Node000009"><a xlink:href="CW__SecureChannel_8cpp.html" target="_top" xlink:title="Implementation of the Cryptnox secure channel protocol.">
<polygon fill="white" stroke="#666666" points="702.22,-96 568.22,-96 568.22,-66 702.22,-66 702.22,-96"/>
<text text-anchor="start" x="576.22" y="-84" font-family="Helvetica,sans-Serif" font-size="10.00">src/cryptnox&#45;sdk&#45;cpp</text>
<text text-anchor="middle" x="635.22" y="-73" font-family="Helvetica,sans-Serif" font-size="10.00">/CW_SecureChannel.cpp</text>
</a>
</g>
</g>
<!-- Node8&#45;&gt;Node9 -->
<g id="edge12_Node000008_Node000009" class="edge">
<title>Node8&#45;&gt;Node9</title>
<g id="a_edge12_Node000008_Node000009"><a xlink:title=" ">
<path fill="none" stroke="#63b8ff" d="M580.19,-125.48C592.3,-115.91 606.4,-104.77 617.29,-96.16"/>
<polygon fill="#63b8ff" stroke="#63b8ff" points="577.87,-122.85 572.2,-131.8 582.21,-128.34 577.87,-122.85"/>
</a>
</g>
</g>
<!-- Node8&#45;&gt;Node10 -->
<g id="edge17_Node000008_Node000010" class="edge">
<title>Node8&#45;&gt;Node10</title>
<g id="a_edge17_Node000008_Node000010"><a xlink:title=" ">
<path fill="none" stroke="#63b8ff" d="M551.6,-121.68C548.7,-94.7 544.11,-52.11 541.74,-30.14"/>
<polygon fill="#63b8ff" stroke="#63b8ff" points="548.14,-122.27 552.69,-131.84 555.1,-121.52 548.14,-122.27"/>
</a>
</g>
</g>
<!-- Node8&#45;&gt;Node11 -->
<g id="edge14_Node000008_Node000011" class="edge">
<title>Node8&#45;&gt;Node11</title>
<g id="a_edge14_Node000008_Node000011"><a xlink:title=" ">
<path fill="none" stroke="#63b8ff" d="M613.82,-129.12C650.26,-118.8 696.32,-105.76 730.74,-96.01"/>
<polygon fill="#63b8ff" stroke="#63b8ff" points="612.48,-125.86 603.82,-131.95 614.39,-132.6 612.48,-125.86"/>
</a>
</g>
</g>
<!-- Node9&#45;&gt;Node10 -->
<g id="edge13_Node000009_Node000010" class="edge">
<title>Node9&#45;&gt;Node10</title>
<g id="a_edge13_Node000009_Node000010"><a xlink:title=" ">
<path fill="none" stroke="#63b8ff" d="M605.57,-60.03C591.2,-50.34 574.27,-38.94 561.24,-30.16"/>
<polygon fill="#63b8ff" stroke="#63b8ff" points="603.89,-63.11 614.14,-65.8 607.8,-57.31 603.89,-63.11"/>
</a>
</g>
</g>
<!-- Node11&#45;&gt;Node2 -->
<g id="edge15_Node000011_Node000002" class="edge">
<title>Node11&#45;&gt;Node2</title>
<g id="a_edge15_Node000011_Node000002"><a xlink:title=" ">
<path fill="none" stroke="#63b8ff" d="M710.44,-65.98C550.77,-42.03 374.47,-27.04 284.56,-20.23"/>
<polygon fill="#63b8ff" stroke="#63b8ff" points="710.03,-69.46 720.44,-67.5 711.08,-62.54 710.03,-69.46"/>
</a>
</g>
</g>
<!-- Node12 -->
<g id="Node000012" class="node">
<title>Node12</title>
<g id="a_Node000012"><a xlink:href="CryptnoxWallet_8cpp.html" target="_top" xlink:title="Implementation of the high&#45;level CryptnoxWallet API.">
<polygon fill="white" stroke="#666666" points="839.72,-30 720.72,-30 720.72,0 839.72,0 839.72,-30"/>
<text text-anchor="start" x="728.72" y="-18" font-family="Helvetica,sans-Serif" font-size="10.00">src/cryptnox&#45;sdk&#45;cpp</text>
<text text-anchor="middle" x="780.22" y="-7" font-family="Helvetica,sans-Serif" font-size="10.00">/CryptnoxWallet.cpp</text>
</a>
</g>
</g>
<!-- Node11&#45;&gt;Node12 -->
<g id="edge16_Node000011_Node000012" class="edge">
<title>Node11&#45;&gt;Node12</title>
<g id="a_edge16_Node000011_Node000012"><a xlink:title=" ">
<path fill="none" stroke="#63b8ff" d="M780.22,-55.54C780.22,-46.96 780.22,-37.61 780.22,-30.16"/>
<polygon fill="#63b8ff" stroke="#63b8ff" points="776.72,-55.8 780.22,-65.8 783.72,-55.8 776.72,-55.8"/>
</a>
</g>
</g>
</g>
</svg>
