<?xml version="1.0" encoding="UTF-8" standalone="no"?>
<!DOCTYPE svg PUBLIC "-//W3C//DTD SVG 1.1//EN"
 "http://www.w3.org/Graphics/SVG/1.1/DTD/svg11.dtd">
<!-- Generated by graphviz version 2.43.0 (0)
 -->
<!-- Title: src/cryptnox&#45;sdk&#45;cpp/CW_Utils.h Pages: 1 -->
<svg width="906pt" height="368pt"
 viewBox="0.00 0.00 905.57 368.00" xmlns="http://www.w3.org/2000/svg" xmlns:xlink="http://www.w3.org/1999/xlink">
<g id="graph0" class="graph" transform="scale(1 1) rotate(0) translate(4 364)">
<title>src/cryptnox&#45;sdk&#45;cpp/CW_Utils.h</title>
<!-- Node1 -->
<g id="Node000001" class="node">
<title>Node1</title>
<g id="a_Node000001"><a xlink:title="Platform&#45;independent security and memory utilities.">
<polygon fill="#999999" stroke="#666666" points="760.5,-360 641.5,-360 641.5,-330 760.5,-330 760.5,-360"/>
<text text-anchor="start" x="649.5" y="-348" font-family="Helvetica,sans-Serif" font-size="10.00">src/cryptnox&#45;sdk&#45;cpp</text>
<text text-anchor="middle" x="701" y="-337" font-family="Helvetica,sans-Serif" font-size="10.00">/CW_Utils.h</text>
</a>
</g>
</g>
<!-- Node2 -->
<g id="Node000002" class="node">
<title>Node2</title>
<g id="a_Node000002"><a xlink:href="CryptnoxWallet_8h.html" target="_top" xlink:title="Umbrella include and module&#45;group anchor for the CryptnoxWallet Arduino library.">
<polygon fill="white" stroke="#666666" points="241,-24.5 123,-24.5 123,-5.5 241,-5.5 241,-24.5"/>
<text text-anchor="middle" x="182" y="-12.5" font-family="Helvetica,sans-Serif" font-size="10.00">src/CryptnoxWallet.h</text>
</a>
</g>
</g>
<!-- Node1&#45;&gt;Node2 -->
<g id="edge1_Node000001_Node000002" class="edge">
<title>Node1&#45;&gt;Node2</title>
<g id="a_edge1_Node000001_Node000002"><a xlink:title=" ">
<path fill="none" stroke="#63b8ff" d="M631.23,-338.36C453.92,-323.08 0,-277.75 0,-214 0,-214 0,-214 0,-146 0,-75.33 91.99,-39.44 145.17,-24.59"/>
<polygon fill="#63b8ff" stroke="#63b8ff" points="630.97,-341.85 641.23,-339.21 631.57,-334.87 630.97,-341.85"/>
</a>
</g>
</g>
<!-- Node3 -->
<g id="Node000003" class="node">
<title>Node3</title>
<g id="a_Node000003"><a xlink:href="CW__Defs_8h.html" target="_top" xlink:title="Shared constants, error codes, and session state for the SDK.">
<polygon fill="white" stroke="#666666" points="568.5,-294 449.5,-294 449.5,-264 568.5,-264 568.5,-294"/>
<text text-anchor="start" x="457.5" y="-282" font-family="Helvetica,sans-Serif" font-size="10.00">src/cryptnox&#45;sdk&#45;cpp</text>
<text text-anchor="middle" x="509" y="-271" font-family="Helvetica,sans-Serif" font-size="10.00">/CW_Defs.h</text>
</a>
</g>
</g>
<!-- Node1&#45;&gt;Node3 -->
<g id="edge2_Node000001_Node000003" class="edge">
<title>Node1&#45;&gt;Node3</title>
<g id="a_edge2_Node000001_Node000003"><a xlink:title=" ">
<path fill="none" stroke="#63b8ff" d="M649.17,-326.72C618.41,-316.47 579.9,-303.63 551.04,-294.01"/>
<polygon fill="#63b8ff" stroke="#63b8ff" points="648.27,-330.11 658.86,-329.95 650.48,-323.47 648.27,-330.11"/>
</a>
</g>
</g>
<!-- Node10 -->
<g id="Node000010" class="node">
<title>Node10</title>
<g id="a_Node000010"><a xlink:href="CW__SecureChannel_8cpp.html" target="_top" xlink:title="Implementation of the Cryptnox secure channel protocol.">
<polygon fill="white" stroke="#666666" points="816,-96 682,-96 682,-66 816,-66 816,-96"/>
<text text-anchor="start" x="690" y="-84" font-family="Helvetica,sans-Serif" font-size="10.00">src/cryptnox&#45;sdk&#45;cpp</text>
<text text-anchor="middle" x="749" y="-73" font-family="Helvetica,sans-Serif" font-size="10.00">/CW_SecureChannel.cpp</text>
</a>
</g>
</g>
<!-- Node1&#45;&gt;Node10 -->
<g id="edge23_Node000001_Node000010" class="edge">
<title>Node1&#45;&gt;Node10</title>
<g id="a_edge23_Node000001_Node000010"><a xlink:title=" ">
<path fill="none" stroke="#63b8ff" d="M705.4,-319.96C715.21,-266.43 738.59,-138.81 746.41,-96.16"/>
<polygon fill="#63b8ff" stroke="#63b8ff" points="701.94,-319.45 703.58,-329.91 708.83,-320.71 701.94,-319.45"/>
</a>
</g>
</g>
<!-- Node12 -->
<g id="Node000012" class="node">
<title>Node12</title>
<g id="a_Node000012"><a xlink:href="cryptnox-sdk-cpp_2CryptnoxWallet_8h.html" target="_top" xlink:title="High&#45;level API for interacting with a Cryptnox Hardware Wallet over NFC.">
<polygon fill="white" stroke="#666666" points="663.5,-96 544.5,-96 544.5,-66 663.5,-66 663.5,-96"/>
<text text-anchor="start" x="552.5" y="-84" font-family="Helvetica,sans-Serif" font-size="10.00">src/cryptnox&#45;sdk&#45;cpp</text>
<text text-anchor="middle" x="604" y="-73" font-family="Helvetica,sans-Serif" font-size="10.00">/CryptnoxWallet.h</text>
</a>
</g>
</g>
<!-- Node1&#45;&gt;Node12 -->
<g id="edge27_Node000001_Node000012" class="edge">
<title>Node1&#45;&gt;Node12</title>
<g id="a_edge27_Node000001_Node000012"><a xlink:title=" ">
<path fill="none" stroke="#63b8ff" d="M696.84,-319.76C689.3,-279.32 671.19,-196.22 640,-132 633.65,-118.91 623.88,-105.62 616.13,-96.03"/>
<polygon fill="#63b8ff" stroke="#63b8ff" points="693.43,-320.54 698.65,-329.75 700.31,-319.29 693.43,-320.54"/>
</a>
</g>
</g>
<!-- Node13 -->
<g id="Node000013" class="node">
<title>Node13</title>
<g id="a_Node000013"><a xlink:href="CryptnoxWallet_8cpp.html" target="_top" xlink:title="Implementation of the high&#45;level CryptnoxWallet API.">
<polygon fill="white" stroke="#666666" points="897.5,-30 778.5,-30 778.5,0 897.5,0 897.5,-30"/>
<text text-anchor="start" x="786.5" y="-18" font-family="Helvetica,sans-Serif" font-size="10.00">src/cryptnox&#45;sdk&#45;cpp</text>
<text text-anchor="middle" x="838" y="-7" font-family="Helvetica,sans-Serif" font-size="10.00">/CryptnoxWallet.cpp</text>
</a>
</g>
</g>
<!-- Node1&#45;&gt;Node13 -->
<g id="edge26_Node000001_Node000013" class="edge">
<title>Node1&#45;&gt;Node13</title>
<g id="a_edge26_Node000001_Node000013"><a xlink:title=" ">
<path fill="none" stroke="#63b8ff" d="M770.73,-340.62C807.09,-335.23 849.59,-322.63 877,-294 902.27,-267.6 896,-250.54 896,-214 896,-214 896,-214 896,-146 896,-100.53 866.04,-53.26 849.18,-30.27"/>
<polygon fill="#63b8ff" stroke="#63b8ff" points="770.1,-337.18 760.65,-341.96 771.02,-344.11 770.1,-337.18"/>
</a>
</g>
</g>
<!-- Node14 -->
<g id="Node000014" class="node">
<title>Node14</title>
<g id="a_Node000014"><a xlink:href="CW__Utils_8cpp.html" target="_top" xlink:title="Implementation of the platform&#45;independent utility helpers.">
<polygon fill="white" stroke="#666666" points="867.5,-294 748.5,-294 748.5,-264 867.5,-264 867.5,-294"/>
<text text-anchor="start" x="756.5" y="-282" font-family="Helvetica,sans-Serif" font-size="10.00">src/cryptnox&#45;sdk&#45;cpp</text>
<text text-anchor="middle" x="808" y="-271" font-family="Helvetica,sans-Serif" font-size="10.00">/CW_Utils.cpp</text>
</a>
</g>
</g>
<!-- Node1&#45;&gt;Node14 -->
<g id="edge24_Node000001_Node000014" class="edge">
<title>Node1&#45;&gt;Node14</title>
<g id="a_edge24_Node000001_Node000014"><a xlink:title=" ">
<path fill="none" stroke="#63b8ff" d="M733.28,-324.69C749.79,-314.82 769.53,-303.01 784.57,-294.01"/>
<polygon fill="#63b8ff" stroke="#63b8ff" points="731.27,-321.82 724.48,-329.95 734.86,-327.83 731.27,-321.82"/>
</a>
</g>
</g>
<!-- Node3&#45;&gt;Node2 -->
<g id="edge3_Node000003_Node000002" class="edge">
<title>Node3&#45;&gt;Node2</title>
<g id="a_edge3_Node000003_Node000002"><a xlink:title=" ">
<path fill="none" stroke="#63b8ff" d="M439.08,-278.97C335.58,-278.87 148.67,-272.33 101,-228 48.19,-178.89 66.78,-123.72 110,-66 124.05,-47.24 147.25,-32.96 163.51,-24.55"/>
<polygon fill="#63b8ff" stroke="#63b8ff" points="439.14,-282.47 449.13,-278.96 439.13,-275.47 439.14,-282.47"/>
</a>
</g>
</g>
<!-- Node4 -->
<g id="Node000004" class="node">
<title>Node4</title>
<g id="a_Node000004"><a xlink:href="PN532Adapter_8h.html" target="_top" xlink:title="Concrete CW_NfcTransport over Adafruit_PN532 (SPI / I2C / UART).">
<polygon fill="white" stroke="#666666" points="222,-222.5 110,-222.5 110,-203.5 222,-203.5 222,-222.5"/>
<text text-anchor="middle" x="166" y="-210.5" font-family="Helvetica,sans-Serif" font-size="10.00">src/PN532Adapter.h</text>
</a>
</g>
</g>
<!-- Node3&#45;&gt;Node4 -->
<g id="edge4_Node000003_Node000004" class="edge">
<title>Node3&#45;&gt;Node4</title>
<g id="a_edge4_Node000003_Node000004"><a xlink:title=" ">
<path fill="none" stroke="#63b8ff" d="M439.06,-264.95C371.09,-252.27 269.85,-233.38 211.64,-222.52"/>
<polygon fill="#63b8ff" stroke="#63b8ff" points="438.78,-268.46 449.25,-266.85 440.07,-261.58 438.78,-268.46"/>
</a>
</g>
</g>
<!-- Node6 -->
<g id="Node000006" class="node">
<title>Node6</title>
<g id="a_Node000006"><a xlink:href="CW__CryptoProvider_8h.html" target="_top" xlink:title="Abstract cryptographic primitives interface.">
<polygon fill="white" stroke="#666666" points="525,-228 403,-228 403,-198 525,-198 525,-228"/>
<text text-anchor="start" x="411" y="-216" font-family="Helvetica,sans-Serif" font-size="10.00">src/cryptnox&#45;sdk&#45;cpp</text>
<text text-anchor="middle" x="464" y="-205" font-family="Helvetica,sans-Serif" font-size="10.00">/CW_CryptoProvider.h</text>
</a>
</g>
</g>
<!-- Node3&#45;&gt;Node6 -->
<g id="edge7_Node000003_Node000006" class="edge">
<title>Node3&#45;&gt;Node6</title>
<g id="a_edge7_Node000003_Node000006"><a xlink:title=" ">
<path fill="none" stroke="#63b8ff" d="M493.2,-255.53C486.8,-246.43 479.61,-236.19 473.96,-228.16"/>
<polygon fill="#63b8ff" stroke="#63b8ff" points="490.4,-257.63 499.01,-263.8 496.12,-253.6 490.4,-257.63"/>
</a>
</g>
</g>
<!-- Node9 -->
<g id="Node000009" class="node">
<title>Node9</title>
<g id="a_Node000009"><a xlink:href="CW__SecureChannel_8h.html" target="_top" xlink:title="Cryptnox secure channel protocol over NFC.">
<polygon fill="white" stroke="#666666" points="615.5,-162 492.5,-162 492.5,-132 615.5,-132 615.5,-162"/>
<text text-anchor="start" x="500.5" y="-150" font-family="Helvetica,sans-Serif" font-size="10.00">src/cryptnox&#45;sdk&#45;cpp</text>
<text text-anchor="middle" x="554" y="-139" font-family="Helvetica,sans-Serif" font-size="10.00">/CW_SecureChannel.h</text>
</a>
</g>
</g>
<!-- Node3&#45;&gt;Node9 -->
<g id="edge21_Node000003_Node000009" class="edge">
<title>Node3&#45;&gt;Node9</title>
<g id="a_edge21_Node000003_Node000009"><a xlink:title=" ">
<path fill="none" stroke="#63b8ff" d="M521.89,-254.86C526.16,-246.57 530.66,-237.03 534,-228 542.29,-205.58 548.28,-178.36 551.44,-162.15"/>
<polygon fill="#63b8ff" stroke="#63b8ff" points="518.67,-253.46 517.08,-263.93 524.86,-256.74 518.67,-253.46"/>
</a>
</g>
</g>
<!-- Node3&#45;&gt;Node12 -->
<g id="edge22_Node000003_Node000012" class="edge">
<title>Node3&#45;&gt;Node12</title>
<g id="a_edge22_Node000003_Node000012"><a xlink:title=" ">
<path fill="none" stroke="#63b8ff" d="M540.07,-257.82C568.25,-237.49 607.91,-203.25 625,-162 634.18,-139.85 622.44,-112.55 613.18,-96.25"/>
<polygon fill="#63b8ff" stroke="#63b8ff" points="537.9,-255.07 531.73,-263.68 541.92,-260.8 537.9,-255.07"/>
</a>
</g>
</g>
<!-- Node4&#45;&gt;Node2 -->
<g id="edge5_Node000004_Node000002" class="edge">
<title>Node4&#45;&gt;Node2</title>
<g id="a_edge5_Node000004_Node000002"><a xlink:title=" ">
<path fill="none" stroke="#63b8ff" d="M135.18,-198.78C120.15,-190.56 103.51,-178.4 95,-162 88.86,-150.16 90.78,-144.65 95,-132 110.52,-85.43 152.88,-42.5 172.18,-24.69"/>
<polygon fill="#63b8ff" stroke="#63b8ff" points="133.74,-201.97 144.24,-203.39 136.91,-195.73 133.74,-201.97"/>
</a>
</g>
</g>
<!-- Node5 -->
<g id="Node000005" class="node">
<title>Node5</title>
<g id="a_Node000005"><a xlink:href="PN532Adapter_8cpp.html" target="_top" xlink:title="Implementation of the PN532 transport adapter.">
<polygon fill="white" stroke="#666666" points="227.5,-156.5 104.5,-156.5 104.5,-137.5 227.5,-137.5 227.5,-156.5"/>
<text text-anchor="middle" x="166" y="-144.5" font-family="Helvetica,sans-Serif" font-size="10.00">src/PN532Adapter.cpp</text>
</a>
</g>
</g>
<!-- Node4&#45;&gt;Node5 -->
<g id="edge6_Node000004_Node000005" class="edge">
<title>Node4&#45;&gt;Node5</title>
<g id="a_edge6_Node000004_Node000005"><a xlink:title=" ">
<path fill="none" stroke="#63b8ff" d="M166,-193.08C166,-181.13 166,-166.22 166,-156.91"/>
<polygon fill="#63b8ff" stroke="#63b8ff" points="162.5,-193.37 166,-203.37 169.5,-193.37 162.5,-193.37"/>
</a>
</g>
</g>
<!-- Node6&#45;&gt;Node2 -->
<g id="edge11_Node000006_Node000002" class="edge">
<title>Node6&#45;&gt;Node2</title>
<g id="a_edge11_Node000006_Node000002"><a xlink:title=" ">
<path fill="none" stroke="#63b8ff" d="M457.39,-188.21C447.05,-155.56 423.89,-97.35 383,-66 342.19,-34.71 284.26,-22.78 241.06,-18.34"/>
<polygon fill="#63b8ff" stroke="#63b8ff" points="454.06,-189.29 460.3,-197.85 460.76,-187.26 454.06,-189.29"/>
</a>
</g>
</g>
<!-- Node7 -->
<g id="Node000007" class="node">
<title>Node7</title>
<g id="a_Node000007"><a xlink:href="ArduinoCryptoProvider_8h.html" target="_top" xlink:title="Concrete CW_CryptoProvider for the Arduino UNO R4 (RA4M1).">
<polygon fill="white" stroke="#666666" points="398,-156.5 246,-156.5 246,-137.5 398,-137.5 398,-156.5"/>
<text text-anchor="middle" x="322" y="-144.5" font-family="Helvetica,sans-Serif" font-size="10.00">src/ArduinoCryptoProvider.h</text>
</a>
</g>
</g>
<!-- Node6&#45;&gt;Node7 -->
<g id="edge8_Node000006_Node000007" class="edge">
<title>Node6&#45;&gt;Node7</title>
<g id="a_edge8_Node000006_Node000007"><a xlink:title=" ">
<path fill="none" stroke="#63b8ff" d="M423.58,-193.78C396.42,-181.54 361.9,-165.98 340.9,-156.52"/>
<polygon fill="#63b8ff" stroke="#63b8ff" points="422.28,-197.04 432.84,-197.95 425.16,-190.65 422.28,-197.04"/>
</a>
</g>
</g>
<!-- Node6&#45;&gt;Node9 -->
<g id="edge12_Node000006_Node000009" class="edge">
<title>Node6&#45;&gt;Node9</title>
<g id="a_edge12_Node000006_Node000009"><a xlink:title=" ">
<path fill="none" stroke="#63b8ff" d="M492.47,-191.75C506.01,-182.13 521.86,-170.86 534.08,-162.16"/>
<polygon fill="#63b8ff" stroke="#63b8ff" points="490.1,-189.15 483.97,-197.8 494.15,-194.85 490.1,-189.15"/>
</a>
</g>
</g>
<!-- Node11 -->
<g id="Node000011" class="node">
<title>Node11</title>
<g id="a_Node000011"><a xlink:href="fuzz__der_8cpp.html" target="_top" xlink:title=" ">
<polygon fill="white" stroke="#666666" points="632.5,-30 513.5,-30 513.5,0 632.5,0 632.5,-30"/>
<text text-anchor="start" x="521.5" y="-18" font-family="Helvetica,sans-Serif" font-size="10.00">src/cryptnox&#45;sdk&#45;cpp</text>
<text text-anchor="middle" x="573" y="-7" font-family="Helvetica,sans-Serif" font-size="10.00">/fuzz/fuzz_der.cpp</text>
</a>
</g>
</g>
<!-- Node6&#45;&gt;Node11 -->
<g id="edge20_Node000006_Node000011" class="edge">
<title>Node6&#45;&gt;Node11</title>
<g id="a_edge20_Node000006_Node000011"><a xlink:title=" ">
<path fill="none" stroke="#63b8ff" d="M467.35,-187.6C470.16,-171.35 475.04,-149.78 483,-132 501.54,-90.59 537.81,-50.68 558.19,-30.21"/>
<polygon fill="#63b8ff" stroke="#63b8ff" points="463.83,-187.47 465.72,-197.9 470.74,-188.57 463.83,-187.47"/>
</a>
</g>
</g>
<!-- Node7&#45;&gt;Node2 -->
<g id="edge10_Node000007_Node000002" class="edge">
<title>Node7&#45;&gt;Node2</title>
<g id="a_edge10_Node000007_Node000002"><a xlink:title=" ">
<path fill="none" stroke="#63b8ff" d="M265.35,-134.55C242.35,-127.17 217.39,-115.22 201,-96 183.22,-75.14 181.42,-40.57 181.63,-24.59"/>
<polygon fill="#63b8ff" stroke="#63b8ff" points="264.48,-137.94 275.06,-137.44 266.47,-131.23 264.48,-137.94"/>
</a>
</g>
</g>
<!-- Node8 -->
<g id="Node000008" class="node">
<title>Node8</title>
<g id="a_Node000008"><a xlink:href="ArduinoCryptoProvider_8cpp.html" target="_top" xlink:title="Implementation of the Arduino UNO R4 concrete crypto provider.">
<polygon fill="white" stroke="#666666" points="374,-90.5 210,-90.5 210,-71.5 374,-71.5 374,-90.5"/>
<text text-anchor="middle" x="292" y="-78.5" font-family="Helvetica,sans-Serif" font-size="10.00">src/ArduinoCryptoProvider.cpp</text>
</a>
</g>
</g>
<!-- Node7&#45;&gt;Node8 -->
<g id="edge9_Node000007_Node000008" class="edge">
<title>Node7&#45;&gt;Node8</title>
<g id="a_edge9_Node000007_Node000008"><a xlink:title=" ">
<path fill="none" stroke="#63b8ff" d="M313.65,-128.18C307.96,-116.05 300.68,-100.51 296.17,-90.91"/>
<polygon fill="#63b8ff" stroke="#63b8ff" points="310.54,-129.8 317.95,-137.37 316.88,-126.83 310.54,-129.8"/>
</a>
</g>
</g>
<!-- Node9&#45;&gt;Node2 -->
<g id="edge13_Node000009_Node000002" class="edge">
<title>Node9&#45;&gt;Node2</title>
<g id="a_edge13_Node000009_Node000002"><a xlink:title=" ">
<path fill="none" stroke="#63b8ff" d="M525.9,-126.14C498.92,-107.96 456.39,-81.57 416,-66 358.63,-43.89 289.39,-30.63 241.17,-23.38"/>
<polygon fill="#63b8ff" stroke="#63b8ff" points="524.2,-129.22 534.43,-131.97 528.15,-123.44 524.2,-129.22"/>
</a>
</g>
</g>
<!-- Node9&#45;&gt;Node10 -->
<g id="edge14_Node000009_Node000010" class="edge">
<title>Node9&#45;&gt;Node10</title>
<g id="a_edge14_Node000009_Node000010"><a xlink:title=" ">
<path fill="none" stroke="#63b8ff" d="M606.64,-128.72C637.89,-118.47 676.99,-105.63 706.31,-96.01"/>
<polygon fill="#63b8ff" stroke="#63b8ff" points="605.2,-125.51 596.79,-131.95 607.39,-132.16 605.2,-125.51"/>
</a>
</g>
</g>
<!-- Node9&#45;&gt;Node11 -->
<g id="edge19_Node000009_Node000011" class="edge">
<title>Node9&#45;&gt;Node11</title>
<g id="a_edge19_Node000009_Node000011"><a xlink:title=" ">
<path fill="none" stroke="#63b8ff" d="M541.65,-122.68C534.75,-106.55 528.7,-84.71 535,-66 539.59,-52.36 549.55,-39.49 558.12,-30.23"/>
<polygon fill="#63b8ff" stroke="#63b8ff" points="538.55,-124.32 545.95,-131.91 544.89,-121.36 538.55,-124.32"/>
</a>
</g>
</g>
<!-- Node9&#45;&gt;Node12 -->
<g id="edge16_Node000009_Node000012" class="edge">
<title>Node9&#45;&gt;Node12</title>
<g id="a_edge16_Node000009_Node000012"><a xlink:title=" ">
<path fill="none" stroke="#63b8ff" d="M571.34,-123.81C578.5,-114.64 586.6,-104.28 592.93,-96.16"/>
<polygon fill="#63b8ff" stroke="#63b8ff" points="568.5,-121.76 565.1,-131.8 574.01,-126.07 568.5,-121.76"/>
</a>
</g>
</g>
<!-- Node10&#45;&gt;Node11 -->
<g id="edge15_Node000010_Node000011" class="edge">
<title>Node10&#45;&gt;Node11</title>
<g id="a_edge15_Node000010_Node000011"><a xlink:title=" ">
<path fill="none" stroke="#63b8ff" d="M700.76,-62.46C672.68,-52.25 637.76,-39.55 611.53,-30.01"/>
<polygon fill="#63b8ff" stroke="#63b8ff" points="699.78,-65.83 710.38,-65.95 702.17,-59.25 699.78,-65.83"/>
</a>
</g>
</g>
<!-- Node12&#45;&gt;Node2 -->
<g id="edge17_Node000012_Node000002" class="edge">
<title>Node12&#45;&gt;Node2</title>
<g id="a_edge17_Node000012_Node000002"><a xlink:title=" ">
<path fill="none" stroke="#63b8ff" d="M534.35,-69.44C451.47,-56.87 314.71,-36.13 238.23,-24.53"/>
<polygon fill="#63b8ff" stroke="#63b8ff" points="534.02,-72.93 544.43,-70.97 535.07,-66.01 534.02,-72.93"/>
</a>
</g>
</g>
<!-- Node12&#45;&gt;Node13 -->
<g id="edge18_Node000012_Node000013" class="edge">
<title>Node12&#45;&gt;Node13</title>
<g id="a_edge18_Node000012_Node000013"><a xlink:title=" ">
<path fill="none" stroke="#63b8ff" d="M665.23,-63.25C703.03,-52.91 750.98,-39.8 786.77,-30.01"/>
<polygon fill="#63b8ff" stroke="#63b8ff" points="664.07,-59.94 655.35,-65.95 665.92,-66.69 664.07,-59.94"/>
</a>
</g>
</g>
<!-- Node14&#45;&gt;Node11 -->
<g id="edge25_Node000014_Node000011" class="edge">
<title>Node14&#45;&gt;Node11</title>
<g id="a_edge25_Node000014_Node000011"><a xlink:title=" ">
<path fill="none" stroke="#63b8ff" d="M819.34,-254.6C838.21,-211.86 869.79,-120.55 825,-66 801.12,-36.91 699.22,-24.45 632.54,-19.33"/>
<polygon fill="#63b8ff" stroke="#63b8ff" points="816.06,-253.35 815.09,-263.9 822.43,-256.25 816.06,-253.35"/>
</a>
</g>
</g>
</g>
</svg>
