<?xml version="1.0" encoding="UTF-8" standalone="no"?>
<!DOCTYPE svg PUBLIC "-//W3C//DTD SVG 1.1//EN"
 "http://www.w3.org/Graphics/SVG/1.1/DTD/svg11.dtd">
<!-- Generated by graphviz version 2.43.0 (0)
 -->
<!-- Title: src/cryptnox&#45;sdk&#45;cpp/CW_Platform.h Pages: 1 -->
<svg width="634pt" height="236pt"
 viewBox="0.00 0.00 633.50 236.00" xmlns="http://www.w3.org/2000/svg" xmlns:xlink="http://www.w3.org/1999/xlink">
<g id="graph0" class="graph" transform="scale(1 1) rotate(0) translate(4 232)">
<title>src/cryptnox&#45;sdk&#45;cpp/CW_Platform.h</title>
<!-- Node1 -->
<g id="Node000001" class="node">
<title>Node1</title>
<g id="a_Node000001"><a xlink:title="Abstract platform interface for timing primitives.">
<polygon fill="#999999" stroke="#666666" points="341.5,-228 222.5,-228 222.5,-198 341.5,-198 341.5,-228"/>
<text text-anchor="start" x="230.5" y="-216" font-family="Helvetica,sans-Serif" font-size="10.00">src/cryptnox&#45;sdk&#45;cpp</text>
<text text-anchor="middle" x="282" y="-205" font-family="Helvetica,sans-Serif" font-size="10.00">/CW_Platform.h</text>
</a>
</g>
</g>
<!-- Node2 -->
<g id="Node000002" class="node">
<title>Node2</title>
<g id="a_Node000002"><a xlink:href="ArduinoPlatform_8h.html" target="_top" xlink:title="Concrete CW_Platform over Arduino&#39;s delay().">
<polygon fill="white" stroke="#666666" points="172,-156.5 50,-156.5 50,-137.5 172,-137.5 172,-156.5"/>
<text text-anchor="middle" x="111" y="-144.5" font-family="Helvetica,sans-Serif" font-size="10.00">src/ArduinoPlatform.h</text>
</a>
</g>
</g>
<!-- Node1&#45;&gt;Node2 -->
<g id="edge1_Node000001_Node000002" class="edge">
<title>Node1&#45;&gt;Node2</title>
<g id="a_edge1_Node000001_Node000002"><a xlink:title=" ">
<path fill="none" stroke="#63b8ff" d="M235.02,-194.42C202.08,-182.09 159.49,-166.15 133.76,-156.52"/>
<polygon fill="#63b8ff" stroke="#63b8ff" points="233.88,-197.73 244.47,-197.95 236.33,-191.17 233.88,-197.73"/>
</a>
</g>
</g>
<!-- Node4 -->
<g id="Node000004" class="node">
<title>Node4</title>
<g id="a_Node000004"><a xlink:href="CryptnoxWallet_8h.html" target="_top" xlink:title="Umbrella include and module&#45;group anchor for the CryptnoxWallet Arduino library.">
<polygon fill="white" stroke="#666666" points="259,-24.5 141,-24.5 141,-5.5 259,-5.5 259,-24.5"/>
<text text-anchor="middle" x="200" y="-12.5" font-family="Helvetica,sans-Serif" font-size="10.00">src/CryptnoxWallet.h</text>
</a>
</g>
</g>
<!-- Node1&#45;&gt;Node4 -->
<g id="edge4_Node000001_Node000004" class="edge">
<title>Node1&#45;&gt;Node4</title>
<g id="a_edge4_Node000001_Node000004"><a xlink:title=" ">
<path fill="none" stroke="#63b8ff" d="M269.74,-188.98C257.7,-165.87 239.28,-129.05 226,-96 215.77,-70.52 206.54,-39.32 202.36,-24.54"/>
<polygon fill="#63b8ff" stroke="#63b8ff" points="266.72,-190.77 274.47,-197.99 272.92,-187.51 266.72,-190.77"/>
</a>
</g>
</g>
<!-- Node5 -->
<g id="Node000005" class="node">
<title>Node5</title>
<g id="a_Node000005"><a xlink:href="CW__SecureChannel_8h.html" target="_top" xlink:title="Cryptnox secure channel protocol over NFC.">
<polygon fill="white" stroke="#666666" points="433.5,-162 310.5,-162 310.5,-132 433.5,-132 433.5,-162"/>
<text text-anchor="start" x="318.5" y="-150" font-family="Helvetica,sans-Serif" font-size="10.00">src/cryptnox&#45;sdk&#45;cpp</text>
<text text-anchor="middle" x="372" y="-139" font-family="Helvetica,sans-Serif" font-size="10.00">/CW_SecureChannel.h</text>
</a>
</g>
</g>
<!-- Node1&#45;&gt;Node5 -->
<g id="edge5_Node000001_Node000005" class="edge">
<title>Node1&#45;&gt;Node5</title>
<g id="a_edge5_Node000001_Node000005"><a xlink:title=" ">
<path fill="none" stroke="#63b8ff" d="M310.47,-191.75C324.01,-182.13 339.86,-170.86 352.08,-162.16"/>
<polygon fill="#63b8ff" stroke="#63b8ff" points="308.1,-189.15 301.97,-197.8 312.15,-194.85 308.1,-189.15"/>
</a>
</g>
</g>
<!-- Node7 -->
<g id="Node000007" class="node">
<title>Node7</title>
<g id="a_Node000007"><a xlink:href="fuzz__der_8cpp.html" target="_top" xlink:title=" ">
<polygon fill="white" stroke="#666666" points="625.5,-30 506.5,-30 506.5,0 625.5,0 625.5,-30"/>
<text text-anchor="start" x="514.5" y="-18" font-family="Helvetica,sans-Serif" font-size="10.00">src/cryptnox&#45;sdk&#45;cpp</text>
<text text-anchor="middle" x="566" y="-7" font-family="Helvetica,sans-Serif" font-size="10.00">/fuzz/fuzz_der.cpp</text>
</a>
</g>
</g>
<!-- Node1&#45;&gt;Node7 -->
<g id="edge14_Node000001_Node000007" class="edge">
<title>Node1&#45;&gt;Node7</title>
<g id="a_edge14_Node000001_Node000007"><a xlink:title=" ">
<path fill="none" stroke="#63b8ff" d="M351.5,-206.6C420.82,-196.98 523.24,-170.24 568,-96 580.19,-75.77 575.31,-47.13 570.65,-30.17"/>
<polygon fill="#63b8ff" stroke="#63b8ff" points="350.99,-203.13 341.53,-207.9 351.89,-210.08 350.99,-203.13"/>
</a>
</g>
</g>
<!-- Node8 -->
<g id="Node000008" class="node">
<title>Node8</title>
<g id="a_Node000008"><a xlink:href="cryptnox-sdk-cpp_2CryptnoxWallet_8h.html" target="_top" xlink:title="High&#45;level API for interacting with a Cryptnox Hardware Wallet over NFC.">
<polygon fill="white" stroke="#666666" points="385.5,-96 266.5,-96 266.5,-66 385.5,-66 385.5,-96"/>
<text text-anchor="start" x="274.5" y="-84" font-family="Helvetica,sans-Serif" font-size="10.00">src/cryptnox&#45;sdk&#45;cpp</text>
<text text-anchor="middle" x="326" y="-73" font-family="Helvetica,sans-Serif" font-size="10.00">/CryptnoxWallet.h</text>
</a>
</g>
</g>
<!-- Node1&#45;&gt;Node8 -->
<g id="edge13_Node000001_Node000008" class="edge">
<title>Node1&#45;&gt;Node8</title>
<g id="a_edge13_Node000001_Node000008"><a xlink:title=" ">
<path fill="none" stroke="#63b8ff" d="M286.26,-187.66C289.45,-171.59 294.39,-150.21 301,-132 305.57,-119.41 312.48,-105.87 317.88,-96.05"/>
<polygon fill="#63b8ff" stroke="#63b8ff" points="282.76,-187.36 284.34,-197.84 289.64,-188.66 282.76,-187.36"/>
</a>
</g>
</g>
<!-- Node3 -->
<g id="Node000003" class="node">
<title>Node3</title>
<g id="a_Node000003"><a xlink:href="ArduinoPlatform_8cpp.html" target="_top" xlink:title="Implementation of the Arduino blocking&#45;delay platform adapter.">
<polygon fill="white" stroke="#666666" points="134,-90.5 0,-90.5 0,-71.5 134,-71.5 134,-90.5"/>
<text text-anchor="middle" x="67" y="-78.5" font-family="Helvetica,sans-Serif" font-size="10.00">src/ArduinoPlatform.cpp</text>
</a>
</g>
</g>
<!-- Node2&#45;&gt;Node3 -->
<g id="edge2_Node000002_Node000003" class="edge">
<title>Node2&#45;&gt;Node3</title>
<g id="a_edge2_Node000002_Node000003"><a xlink:title=" ">
<path fill="none" stroke="#63b8ff" d="M99.25,-128.91C90.84,-116.68 79.86,-100.7 73.12,-90.91"/>
<polygon fill="#63b8ff" stroke="#63b8ff" points="96.52,-131.11 105.07,-137.37 102.28,-127.15 96.52,-131.11"/>
</a>
</g>
</g>
<!-- Node2&#45;&gt;Node4 -->
<g id="edge3_Node000002_Node000004" class="edge">
<title>Node2&#45;&gt;Node4</title>
<g id="a_edge3_Node000002_Node000004"><a xlink:title=" ">
<path fill="none" stroke="#63b8ff" d="M122.57,-129.1C141.74,-101.1 179.42,-46.06 194.02,-24.73"/>
<polygon fill="#63b8ff" stroke="#63b8ff" points="119.6,-127.24 116.84,-137.47 125.38,-131.2 119.6,-127.24"/>
</a>
</g>
</g>
<!-- Node5&#45;&gt;Node4 -->
<g id="edge6_Node000005_Node000004" class="edge">
<title>Node5&#45;&gt;Node4</title>
<g id="a_edge6_Node000005_Node000004"><a xlink:title=" ">
<path fill="none" stroke="#63b8ff" d="M315.1,-128.32C295.4,-120.45 274.01,-109.78 257,-96 231.56,-75.39 212.22,-40.69 204.14,-24.64"/>
<polygon fill="#63b8ff" stroke="#63b8ff" points="314.02,-131.66 324.61,-131.97 316.52,-125.12 314.02,-131.66"/>
</a>
</g>
</g>
<!-- Node6 -->
<g id="Node000006" class="node">
<title>Node6</title>
<g id="a_Node000006"><a xlink:href="CW__SecureChannel_8cpp.html" target="_top" xlink:title="Implementation of the Cryptnox secure channel protocol.">
<polygon fill="white" stroke="#666666" points="538,-96 404,-96 404,-66 538,-66 538,-96"/>
<text text-anchor="start" x="412" y="-84" font-family="Helvetica,sans-Serif" font-size="10.00">src/cryptnox&#45;sdk&#45;cpp</text>
<text text-anchor="middle" x="471" y="-73" font-family="Helvetica,sans-Serif" font-size="10.00">/CW_SecureChannel.cpp</text>
</a>
</g>
</g>
<!-- Node5&#45;&gt;Node6 -->
<g id="edge7_Node000005_Node000006" class="edge">
<title>Node5&#45;&gt;Node6</title>
<g id="a_edge7_Node000005_Node000006"><a xlink:title=" ">
<path fill="none" stroke="#63b8ff" d="M402.47,-126.3C417.54,-116.56 435.39,-105.02 449.09,-96.16"/>
<polygon fill="#63b8ff" stroke="#63b8ff" points="400.47,-123.43 393.97,-131.8 404.27,-129.31 400.47,-123.43"/>
</a>
</g>
</g>
<!-- Node5&#45;&gt;Node7 -->
<g id="edge12_Node000005_Node000007" class="edge">
<title>Node5&#45;&gt;Node7</title>
<g id="a_edge12_Node000005_Node000007"><a xlink:title=" ">
<path fill="none" stroke="#63b8ff" d="M444.19,-142.08C479.7,-136.43 520.47,-123.75 547,-96 564.06,-78.15 566.74,-47.89 566.68,-30.15"/>
<polygon fill="#63b8ff" stroke="#63b8ff" points="443.25,-138.68 433.84,-143.56 444.24,-145.61 443.25,-138.68"/>
</a>
</g>
</g>
<!-- Node5&#45;&gt;Node8 -->
<g id="edge9_Node000005_Node000008" class="edge">
<title>Node5&#45;&gt;Node8</title>
<g id="a_edge9_Node000005_Node000008"><a xlink:title=" ">
<path fill="none" stroke="#63b8ff" d="M355.85,-123.53C349.31,-114.43 341.95,-104.19 336.18,-96.16"/>
<polygon fill="#63b8ff" stroke="#63b8ff" points="353.11,-125.72 361.79,-131.8 358.8,-121.63 353.11,-125.72"/>
</a>
</g>
</g>
<!-- Node6&#45;&gt;Node7 -->
<g id="edge8_Node000006_Node000007" class="edge">
<title>Node6&#45;&gt;Node7</title>
<g id="a_edge8_Node000006_Node000007"><a xlink:title=" ">
<path fill="none" stroke="#63b8ff" d="M500.65,-60.03C515.02,-50.34 531.95,-38.94 544.98,-30.16"/>
<polygon fill="#63b8ff" stroke="#63b8ff" points="498.42,-57.31 492.08,-65.8 502.33,-63.11 498.42,-57.31"/>
</a>
</g>
</g>
<!-- Node8&#45;&gt;Node4 -->
<g id="edge10_Node000008_Node000004" class="edge">
<title>Node8&#45;&gt;Node4</title>
<g id="a_edge10_Node000008_Node000004"><a xlink:title=" ">
<path fill="none" stroke="#63b8ff" d="M289.18,-61.3C265.24,-49.14 235.16,-33.86 216.77,-24.52"/>
<polygon fill="#63b8ff" stroke="#63b8ff" points="287.85,-64.55 298.35,-65.95 291.02,-58.31 287.85,-64.55"/>
</a>
</g>
</g>
<!-- Node9 -->
<g id="Node000009" class="node">
<title>Node9</title>
<g id="a_Node000009"><a xlink:href="CryptnoxWallet_8cpp.html" target="_top" xlink:title="Implementation of the high&#45;level CryptnoxWallet API.">
<polygon fill="white" stroke="#666666" points="396.5,-30 277.5,-30 277.5,0 396.5,0 396.5,-30"/>
<text text-anchor="start" x="285.5" y="-18" font-family="Helvetica,sans-Serif" font-size="10.00">src/cryptnox&#45;sdk&#45;cpp</text>
<text text-anchor="middle" x="337" y="-7" font-family="Helvetica,sans-Serif" font-size="10.00">/CryptnoxWallet.cpp</text>
</a>
</g>
</g>
<!-- Node8&#45;&gt;Node9 -->
<g id="edge11_Node000008_Node000009" class="edge">
<title>Node8&#45;&gt;Node9</title>
<g id="a_edge11_Node000008_Node000009"><a xlink:title=" ">
<path fill="none" stroke="#63b8ff" d="M330.16,-55.83C331.64,-47.17 333.27,-37.7 334.57,-30.16"/>
<polygon fill="#63b8ff" stroke="#63b8ff" points="326.69,-55.35 328.44,-65.8 333.58,-56.53 326.69,-55.35"/>
</a>
</g>
</g>
</g>
</svg>
