<?xml version="1.0" encoding="UTF-8" standalone="no"?>
<!DOCTYPE svg PUBLIC "-//W3C//DTD SVG 1.1//EN"
 "http://www.w3.org/Graphics/SVG/1.1/DTD/svg11.dtd">
<!-- Generated by graphviz version 2.43.0 (0)
 -->
<!-- Title: src/cryptnox&#45;sdk&#45;cpp/CW_SecureChannel.h Pages: 1 -->
<svg width="409pt" height="170pt"
 viewBox="0.00 0.00 408.50 170.00" xmlns="http://www.w3.org/2000/svg" xmlns:xlink="http://www.w3.org/1999/xlink">
<g id="graph0" class="graph" transform="scale(1 1) rotate(0) translate(4 166)">
<title>src/cryptnox&#45;sdk&#45;cpp/CW_SecureChannel.h</title>
<!-- Node1 -->
<g id="Node000001" class="node">
<title>Node1</title>
<g id="a_Node000001"><a xlink:title="Cryptnox secure channel protocol over NFC.">
<polygon fill="#999999" stroke="#666666" points="242.5,-162 119.5,-162 119.5,-132 242.5,-132 242.5,-162"/>
<text text-anchor="start" x="127.5" y="-150" font-family="Helvetica,sans-Serif" font-size="10.00">src/cryptnox&#45;sdk&#45;cpp</text>
<text text-anchor="middle" x="181" y="-139" font-family="Helvetica,sans-Serif" font-size="10.00">/CW_SecureChannel.h</text>
</a>
</g>
</g>
<!-- Node2 -->
<g id="Node000002" class="node">
<title>Node2</title>
<g id="a_Node000002"><a xlink:href="CryptnoxWallet_8h.html" target="_top" xlink:title="Umbrella include and module&#45;group anchor for the CryptnoxWallet Arduino library.">
<polygon fill="white" stroke="#666666" points="263,-24.5 145,-24.5 145,-5.5 263,-5.5 263,-24.5"/>
<text text-anchor="middle" x="204" y="-12.5" font-family="Helvetica,sans-Serif" font-size="10.00">src/CryptnoxWallet.h</text>
</a>
</g>
</g>
<!-- Node1&#45;&gt;Node2 -->
<g id="edge1_Node000001_Node000002" class="edge">
<title>Node1&#45;&gt;Node2</title>
<g id="a_edge1_Node000001_Node000002"><a xlink:title=" ">
<path fill="none" stroke="#63b8ff" d="M185.25,-121.96C190.45,-92.59 198.98,-44.39 202.45,-24.75"/>
<polygon fill="#63b8ff" stroke="#63b8ff" points="181.8,-121.38 183.51,-131.84 188.69,-122.6 181.8,-121.38"/>
</a>
</g>
</g>
<!-- Node3 -->
<g id="Node000003" class="node">
<title>Node3</title>
<g id="a_Node000003"><a xlink:href="CW__SecureChannel_8cpp.html" target="_top" xlink:title="Implementation of the Cryptnox secure channel protocol.">
<polygon fill="white" stroke="#666666" points="134,-96 0,-96 0,-66 134,-66 134,-96"/>
<text text-anchor="start" x="8" y="-84" font-family="Helvetica,sans-Serif" font-size="10.00">src/cryptnox&#45;sdk&#45;cpp</text>
<text text-anchor="middle" x="67" y="-73" font-family="Helvetica,sans-Serif" font-size="10.00">/CW_SecureChannel.cpp</text>
</a>
</g>
</g>
<!-- Node1&#45;&gt;Node3 -->
<g id="edge2_Node000001_Node000003" class="edge">
<title>Node1&#45;&gt;Node3</title>
<g id="a_edge2_Node000001_Node000003"><a xlink:title=" ">
<path fill="none" stroke="#63b8ff" d="M147.1,-126.97C129.4,-117.03 108.13,-105.09 91.96,-96.01"/>
<polygon fill="#63b8ff" stroke="#63b8ff" points="145.55,-130.11 155.98,-131.95 148.98,-124.01 145.55,-130.11"/>
</a>
</g>
</g>
<!-- Node4 -->
<g id="Node000004" class="node">
<title>Node4</title>
<g id="a_Node000004"><a xlink:href="fuzz__der_8cpp.html" target="_top" xlink:title=" ">
<polygon fill="white" stroke="#666666" points="126.5,-30 7.5,-30 7.5,0 126.5,0 126.5,-30"/>
<text text-anchor="start" x="15.5" y="-18" font-family="Helvetica,sans-Serif" font-size="10.00">src/cryptnox&#45;sdk&#45;cpp</text>
<text text-anchor="middle" x="67" y="-7" font-family="Helvetica,sans-Serif" font-size="10.00">/fuzz/fuzz_der.cpp</text>
</a>
</g>
</g>
<!-- Node1&#45;&gt;Node4 -->
<g id="edge7_Node000001_Node000004" class="edge">
<title>Node1&#45;&gt;Node4</title>
<g id="a_edge7_Node000001_Node000004"><a xlink:title=" ">
<path fill="none" stroke="#63b8ff" d="M173.58,-122.19C167.4,-105.16 157.29,-82.42 143,-66 130.04,-51.11 111.62,-38.84 96.15,-30.18"/>
<polygon fill="#63b8ff" stroke="#63b8ff" points="170.37,-123.63 176.92,-131.96 177,-121.36 170.37,-123.63"/>
</a>
</g>
</g>
<!-- Node5 -->
<g id="Node000005" class="node">
<title>Node5</title>
<g id="a_Node000005"><a xlink:href="cryptnox-sdk-cpp_2CryptnoxWallet_8h.html" target="_top" xlink:title="High&#45;level API for interacting with a Cryptnox Hardware Wallet over NFC.">
<polygon fill="white" stroke="#666666" points="347.5,-96 228.5,-96 228.5,-66 347.5,-66 347.5,-96"/>
<text text-anchor="start" x="236.5" y="-84" font-family="Helvetica,sans-Serif" font-size="10.00">src/cryptnox&#45;sdk&#45;cpp</text>
<text text-anchor="middle" x="288" y="-73" font-family="Helvetica,sans-Serif" font-size="10.00">/CryptnoxWallet.h</text>
</a>
</g>
</g>
<!-- Node1&#45;&gt;Node5 -->
<g id="edge4_Node000001_Node000005" class="edge">
<title>Node1&#45;&gt;Node5</title>
<g id="a_edge4_Node000001_Node000005"><a xlink:title=" ">
<path fill="none" stroke="#63b8ff" d="M213.28,-126.69C229.79,-116.82 249.53,-105.01 264.57,-96.01"/>
<polygon fill="#63b8ff" stroke="#63b8ff" points="211.27,-123.82 204.48,-131.95 214.86,-129.83 211.27,-123.82"/>
</a>
</g>
</g>
<!-- Node3&#45;&gt;Node4 -->
<g id="edge3_Node000003_Node000004" class="edge">
<title>Node3&#45;&gt;Node4</title>
<g id="a_edge3_Node000003_Node000004"><a xlink:title=" ">
<path fill="none" stroke="#63b8ff" d="M67,-55.54C67,-46.96 67,-37.61 67,-30.16"/>
<polygon fill="#63b8ff" stroke="#63b8ff" points="63.5,-55.8 67,-65.8 70.5,-55.8 63.5,-55.8"/>
</a>
</g>
</g>
<!-- Node5&#45;&gt;Node2 -->
<g id="edge5_Node000005_Node000002" class="edge">
<title>Node5&#45;&gt;Node2</title>
<g id="a_edge5_Node000005_Node000002"><a xlink:title=" ">
<path fill="none" stroke="#63b8ff" d="M261.21,-59.58C245.84,-47.87 227.33,-33.77 215.61,-24.84"/>
<polygon fill="#63b8ff" stroke="#63b8ff" points="259.28,-62.52 269.36,-65.8 263.52,-56.95 259.28,-62.52"/>
</a>
</g>
</g>
<!-- Node6 -->
<g id="Node000006" class="node">
<title>Node6</title>
<g id="a_Node000006"><a xlink:href="CryptnoxWallet_8cpp.html" target="_top" xlink:title="Implementation of the high&#45;level CryptnoxWallet API.">
<polygon fill="white" stroke="#666666" points="400.5,-30 281.5,-30 281.5,0 400.5,0 400.5,-30"/>
<text text-anchor="start" x="289.5" y="-18" font-family="Helvetica,sans-Serif" font-size="10.00">src/cryptnox&#45;sdk&#45;cpp</text>
<text text-anchor="middle" x="341" y="-7" font-family="Helvetica,sans-Serif" font-size="10.00">/CryptnoxWallet.cpp</text>
</a>
</g>
</g>
<!-- Node5&#45;&gt;Node6 -->
<g id="edge6_Node000005_Node000006" class="edge">
<title>Node5&#45;&gt;Node6</title>
<g id="a_edge6_Node000005_Node000006"><a xlink:title=" ">
<path fill="none" stroke="#63b8ff" d="M306.15,-58.09C313.8,-48.85 322.48,-38.36 329.27,-30.16"/>
<polygon fill="#63b8ff" stroke="#63b8ff" points="303.44,-55.86 299.76,-65.8 308.84,-60.33 303.44,-55.86"/>
</a>
</g>
</g>
</g>
</svg>
