<?xml version="1.0" encoding="UTF-8" standalone="no"?>
<!DOCTYPE svg PUBLIC "-//W3C//DTD SVG 1.1//EN"
 "http://www.w3.org/Graphics/SVG/1.1/DTD/svg11.dtd">
<!-- Generated by graphviz version 2.43.0 (0)
 -->
<!-- Title: Graphical Class Hierarchy Pages: 1 -->
<svg width="240pt" height="101pt"
 viewBox="0.00 0.00 240.00 101.00" xmlns="http://www.w3.org/2000/svg" xmlns:xlink="http://www.w3.org/1999/xlink">
<g id="graph0" class="graph" transform="scale(1 1) rotate(0) translate(4 97)">
<title>Graphical Class Hierarchy</title>
<!-- Node0 -->
<g id="Node000000" class="node">
<title>Node0</title>
<g id="a_Node000000"><a xlink:href="classCW__Logger.html" target="_top" xlink:title="Abstract interface for serial/debug output.">
<polygon fill="white" stroke="#666666" points="71,-56 0,-56 0,-37 71,-37 71,-56"/>
<text text-anchor="middle" x="35.5" y="-44" font-family="Helvetica,sans-Serif" font-size="10.00">CW_Logger</text>
</a>
</g>
</g>
<!-- Node1 -->
<g id="Node000001" class="node">
<title>Node1</title>
<g id="a_Node000001"><a xlink:href="classArduinoLoggerAdapter.html" target="_top" xlink:title="CW_Logger implementation wrapping Arduino&#39;s HardwareSerial.">
<polygon fill="white" stroke="#666666" points="232,-93 107,-93 107,-74 232,-74 232,-93"/>
<text text-anchor="middle" x="169.5" y="-81" font-family="Helvetica,sans-Serif" font-size="10.00">ArduinoLoggerAdapter</text>
</a>
</g>
</g>
<!-- Node0&#45;&gt;Node1 -->
<g id="edge3_Node000000_Node000001" class="edge">
<title>Node0&#45;&gt;Node1</title>
<g id="a_edge3_Node000000_Node000001"><a xlink:title=" ">
<path fill="none" stroke="#63b8ff" d="M80.47,-58.83C97.96,-63.73 117.77,-69.28 134.16,-73.88"/>
<polygon fill="#63b8ff" stroke="#63b8ff" points="81.07,-55.36 70.49,-56.03 79.18,-62.1 81.07,-55.36"/>
</a>
</g>
</g>
<!-- Node2 -->
<g id="Node000002" class="node">
<title>Node2</title>
<g id="a_Node000002"><a xlink:href="classNullLoggerAdapter.html" target="_top" xlink:title="No&#45;op CW_Logger — guarantees nothing reaches the serial port.">
<polygon fill="white" stroke="#666666" points="223,-56 116,-56 116,-37 223,-37 223,-56"/>
<text text-anchor="middle" x="169.5" y="-44" font-family="Helvetica,sans-Serif" font-size="10.00">NullLoggerAdapter</text>
</a>
</g>
</g>
<!-- Node0&#45;&gt;Node2 -->
<g id="edge4_Node000000_Node000002" class="edge">
<title>Node0&#45;&gt;Node2</title>
<g id="a_edge4_Node000000_Node000002"><a xlink:title=" ">
<path fill="none" stroke="#63b8ff" d="M81.48,-46.5C92.55,-46.5 104.5,-46.5 115.9,-46.5"/>
<polygon fill="#63b8ff" stroke="#63b8ff" points="81.18,-43 71.18,-46.5 81.18,-50 81.18,-43"/>
</a>
</g>
</g>
<!-- Node3 -->
<g id="Node000003" class="node">
<title>Node3</title>
<g id="a_Node000003"><a xlink:href="classStubLogger.html" target="_top" xlink:title=" ">
<polygon fill="white" stroke="#666666" points="205,-19 134,-19 134,0 205,0 205,-19"/>
<text text-anchor="middle" x="169.5" y="-7" font-family="Helvetica,sans-Serif" font-size="10.00">StubLogger</text>
</a>
</g>
</g>
<!-- Node0&#45;&gt;Node3 -->
<g id="edge5_Node000000_Node000003" class="edge">
<title>Node0&#45;&gt;Node3</title>
<g id="a_edge5_Node000000_Node000003"><a xlink:title=" ">
<path fill="none" stroke="#63b8ff" d="M80.47,-34.17C97.96,-29.27 117.77,-23.72 134.16,-19.12"/>
<polygon fill="#63b8ff" stroke="#63b8ff" points="79.18,-30.9 70.49,-36.97 81.07,-37.64 79.18,-30.9"/>
</a>
</g>
</g>
</g>
</svg>
