<?xml version="1.0" encoding="UTF-8" standalone="no"?>
<!DOCTYPE svg PUBLIC "-//W3C//DTD SVG 1.1//EN"
 "http://www.w3.org/Graphics/SVG/1.1/DTD/svg11.dtd">
<!-- Generated by graphviz version 2.43.0 (0)
 -->
<!-- Title: Graphical Class Hierarchy Pages: 1 -->
<svg width="282pt" height="64pt"
 viewBox="0.00 0.00 282.00 64.00" xmlns="http://www.w3.org/2000/svg" xmlns:xlink="http://www.w3.org/1999/xlink">
<g id="graph0" class="graph" transform="scale(1 1) rotate(0) translate(4 60)">
<title>Graphical Class Hierarchy</title>
<!-- Node0 -->
<g id="Node000000" class="node">
<title>Node0</title>
<g id="a_Node000000"><a xlink:href="classCW__CryptoProvider.html" target="_top" xlink:title="Abstract interface for cryptographic operations used by CW_SecureChannel.">
<polygon fill="white" stroke="#666666" points="111,-37 0,-37 0,-18 111,-18 111,-37"/>
<text text-anchor="middle" x="55.5" y="-25" font-family="Helvetica,sans-Serif" font-size="10.00">CW_CryptoProvider</text>
</a>
</g>
</g>
<!-- Node1 -->
<g id="Node000001" class="node">
<title>Node1</title>
<g id="a_Node000001"><a xlink:href="classArduinoCryptoProvider.html" target="_top" xlink:title="CW_CryptoProvider implementation for the Arduino UNO R4 (RA4M1).">
<polygon fill="white" stroke="#666666" points="274,-56 147,-56 147,-37 274,-37 274,-56"/>
<text text-anchor="middle" x="210.5" y="-44" font-family="Helvetica,sans-Serif" font-size="10.00">ArduinoCryptoProvider</text>
</a>
</g>
</g>
<!-- Node0&#45;&gt;Node1 -->
<g id="edge1_Node000000_Node000001" class="edge">
<title>Node0&#45;&gt;Node1</title>
<g id="a_edge1_Node000000_Node000001"><a xlink:title=" ">
<path fill="none" stroke="#63b8ff" d="M121.42,-35.56C129.81,-36.6 138.39,-37.67 146.75,-38.71"/>
<polygon fill="#63b8ff" stroke="#63b8ff" points="121.66,-32.06 111.3,-34.31 120.8,-39.01 121.66,-32.06"/>
</a>
</g>
</g>
<!-- Node2 -->
<g id="Node000002" class="node">
<title>Node2</title>
<g id="a_Node000002"><a xlink:href="classStubCrypto.html" target="_top" xlink:title=" ">
<polygon fill="white" stroke="#666666" points="246,-19 175,-19 175,0 246,0 246,-19"/>
<text text-anchor="middle" x="210.5" y="-7" font-family="Helvetica,sans-Serif" font-size="10.00">StubCrypto</text>
</a>
</g>
</g>
<!-- Node0&#45;&gt;Node2 -->
<g id="edge2_Node000000_Node000002" class="edge">
<title>Node0&#45;&gt;Node2</title>
<g id="a_edge2_Node000000_Node000002"><a xlink:title=" ">
<path fill="none" stroke="#63b8ff" d="M121.34,-19.87C139.62,-17.72 158.81,-15.46 174.61,-13.61"/>
<polygon fill="#63b8ff" stroke="#63b8ff" points="120.83,-16.41 111.3,-21.05 121.64,-23.36 120.83,-16.41"/>
</a>
</g>
</g>
</g>
</svg>
