<?xml version="1.0" encoding="UTF-8" standalone="no"?>
<!DOCTYPE svg PUBLIC "-//W3C//DTD SVG 1.1//EN"
 "http://www.w3.org/Graphics/SVG/1.1/DTD/svg11.dtd">
<!-- Generated by graphviz version 2.43.0 (0)
 -->
<!-- Title: Graphical Class Hierarchy Pages: 1 -->
<svg width="230pt" height="64pt"
 viewBox="0.00 0.00 230.00 64.00" xmlns="http://www.w3.org/2000/svg" xmlns:xlink="http://www.w3.org/1999/xlink">
<g id="graph0" class="graph" transform="scale(1 1) rotate(0) translate(4 60)">
<title>Graphical Class Hierarchy</title>
<!-- Node0 -->
<g id="Node000000" class="node">
<title>Node0</title>
<g id="a_Node000000"><a xlink:href="classCW__NfcTransport.html" target="_top" xlink:title="Abstract interface for NFC transport operations.">
<polygon fill="white" stroke="#666666" points="100,-37 0,-37 0,-18 100,-18 100,-37"/>
<text text-anchor="middle" x="50" y="-25" font-family="Helvetica,sans-Serif" font-size="10.00">CW_NfcTransport</text>
</a>
</g>
</g>
<!-- Node1 -->
<g id="Node000001" class="node">
<title>Node1</title>
<g id="a_Node000001"><a xlink:href="classPN532Adapter.html" target="_top" xlink:title="CW_NfcTransport implementation over the Adafruit_PN532 driver.">
<polygon fill="white" stroke="#666666" points="222,-56 136,-56 136,-37 222,-37 222,-56"/>
<text text-anchor="middle" x="179" y="-44" font-family="Helvetica,sans-Serif" font-size="10.00">PN532Adapter</text>
</a>
</g>
</g>
<!-- Node0&#45;&gt;Node1 -->
<g id="edge6_Node000000_Node000001" class="edge">
<title>Node0&#45;&gt;Node1</title>
<g id="a_edge6_Node000000_Node000001"><a xlink:title=" ">
<path fill="none" stroke="#63b8ff" d="M110.12,-36.34C118.73,-37.63 127.45,-38.94 135.64,-40.16"/>
<polygon fill="#63b8ff" stroke="#63b8ff" points="110.51,-32.86 100.1,-34.85 109.47,-39.79 110.51,-32.86"/>
</a>
</g>
</g>
<!-- Node2 -->
<g id="Node000002" class="node">
<title>Node2</title>
<g id="a_Node000002"><a xlink:href="classStubNfc.html" target="_top" xlink:title=" ">
<polygon fill="white" stroke="#666666" points="206.5,-19 151.5,-19 151.5,0 206.5,0 206.5,-19"/>
<text text-anchor="middle" x="179" y="-7" font-family="Helvetica,sans-Serif" font-size="10.00">StubNfc</text>
</a>
</g>
</g>
<!-- Node0&#45;&gt;Node2 -->
<g id="edge7_Node000000_Node000002" class="edge">
<title>Node0&#45;&gt;Node2</title>
<g id="a_edge7_Node000000_Node000002"><a xlink:title=" ">
<path fill="none" stroke="#63b8ff" d="M110.04,-19.13C124.52,-17.08 139.32,-14.98 151.39,-13.27"/>
<polygon fill="#63b8ff" stroke="#63b8ff" points="109.51,-15.67 100.1,-20.54 110.49,-22.6 109.51,-15.67"/>
</a>
</g>
</g>
</g>
</svg>
