<?xml version="1.0" encoding="UTF-8" standalone="no"?>
<!DOCTYPE svg PUBLIC "-//W3C//DTD SVG 1.1//EN"
 "http://www.w3.org/Graphics/SVG/1.1/DTD/svg11.dtd">
<!-- Generated by graphviz version 2.43.0 (0)
 -->
<!-- Title: src/cryptnox&#45;sdk&#45;cpp/platform_compat.h Pages: 1 -->
<svg width="1684pt" height="434pt"
 viewBox="0.00 0.00 1684.24 434.00" xmlns="http://www.w3.org/2000/svg" xmlns:xlink="http://www.w3.org/1999/xlink">
<g id="graph0" class="graph" transform="scale(1 1) rotate(0) translate(4 430)">
<title>src/cryptnox&#45;sdk&#45;cpp/platform_compat.h</title>
<!-- Node1 -->
<g id="Node000001" class="node">
<title>Node1</title>
<g id="a_Node000001"><a xlink:title="Arduino compatibility shims for non&#45;Arduino (plain C++) builds.">
<polygon fill="#999999" stroke="#666666" points="1242.24,-426 1123.24,-426 1123.24,-396 1242.24,-396 1242.24,-426"/>
<text text-anchor="start" x="1131.24" y="-414" font-family="Helvetica,sans-Serif" font-size="10.00">src/cryptnox&#45;sdk&#45;cpp</text>
<text text-anchor="middle" x="1182.74" y="-403" font-family="Helvetica,sans-Serif" font-size="10.00">/platform_compat.h</text>
</a>
</g>
</g>
<!-- Node2 -->
<g id="Node000002" class="node">
<title>Node2</title>
<g id="a_Node000002"><a xlink:href="CW__CryptoProvider_8h.html" target="_top" xlink:title="Abstract cryptographic primitives interface.">
<polygon fill="white" stroke="#666666" points="1160.74,-228 1038.74,-228 1038.74,-198 1160.74,-198 1160.74,-228"/>
<text text-anchor="start" x="1046.74" y="-216" font-family="Helvetica,sans-Serif" font-size="10.00">src/cryptnox&#45;sdk&#45;cpp</text>
<text text-anchor="middle" x="1099.74" y="-205" font-family="Helvetica,sans-Serif" font-size="10.00">/CW_CryptoProvider.h</text>
</a>
</g>
</g>
<!-- Node1&#45;&gt;Node2 -->
<g id="edge1_Node000001_Node000002" class="edge">
<title>Node1&#45;&gt;Node2</title>
<g id="a_edge1_Node000001_Node000002"><a xlink:title=" ">
<path fill="none" stroke="#63b8ff" d="M1166.07,-387.67C1150.14,-365.18 1126.68,-328.91 1113.74,-294 1105.56,-271.92 1102.09,-244.6 1100.67,-228.28"/>
<polygon fill="#63b8ff" stroke="#63b8ff" points="1163.29,-389.79 1171.98,-395.86 1168.97,-385.7 1163.29,-389.79"/>
</a>
</g>
</g>
<!-- Node6 -->
<g id="Node000006" class="node">
<title>Node6</title>
<g id="a_Node000006"><a xlink:href="CW__SecureChannel_8h.html" target="_top" xlink:title="Cryptnox secure channel protocol over NFC.">
<polygon fill="white" stroke="#666666" points="1242.24,-162 1119.24,-162 1119.24,-132 1242.24,-132 1242.24,-162"/>
<text text-anchor="start" x="1127.24" y="-150" font-family="Helvetica,sans-Serif" font-size="10.00">src/cryptnox&#45;sdk&#45;cpp</text>
<text text-anchor="middle" x="1180.74" y="-139" font-family="Helvetica,sans-Serif" font-size="10.00">/CW_SecureChannel.h</text>
</a>
</g>
</g>
<!-- Node1&#45;&gt;Node6 -->
<g id="edge47_Node000001_Node000006" class="edge">
<title>Node1&#45;&gt;Node6</title>
<g id="a_edge47_Node000001_Node000006"><a xlink:title=" ">
<path fill="none" stroke="#63b8ff" d="M1204.05,-388.13C1228.5,-360.32 1263.64,-310.34 1250.74,-264 1239.45,-223.44 1209.72,-182.89 1192.86,-162.16"/>
<polygon fill="#63b8ff" stroke="#63b8ff" points="1201.32,-385.94 1197.19,-395.7 1206.5,-390.65 1201.32,-385.94"/>
</a>
</g>
</g>
<!-- Node9 -->
<g id="Node000009" class="node">
<title>Node9</title>
<g id="a_Node000009"><a xlink:href="cryptnox-sdk-cpp_2CryptnoxWallet_8h.html" target="_top" xlink:title="High&#45;level API for interacting with a Cryptnox Hardware Wallet over NFC.">
<polygon fill="white" stroke="#666666" points="1321.24,-96 1202.24,-96 1202.24,-66 1321.24,-66 1321.24,-96"/>
<text text-anchor="start" x="1210.24" y="-84" font-family="Helvetica,sans-Serif" font-size="10.00">src/cryptnox&#45;sdk&#45;cpp</text>
<text text-anchor="middle" x="1261.74" y="-73" font-family="Helvetica,sans-Serif" font-size="10.00">/CryptnoxWallet.h</text>
</a>
</g>
</g>
<!-- Node1&#45;&gt;Node9 -->
<g id="edge58_Node000001_Node000009" class="edge">
<title>Node1&#45;&gt;Node9</title>
<g id="a_edge58_Node000001_Node000009"><a xlink:title=" ">
<path fill="none" stroke="#63b8ff" d="M1221.37,-390.8C1258.41,-369.35 1308.74,-330.85 1308.74,-280 1308.74,-280 1308.74,-280 1308.74,-212 1308.74,-167.6 1284.19,-119.48 1270.58,-96.21"/>
<polygon fill="#63b8ff" stroke="#63b8ff" points="1219.3,-387.95 1212.28,-395.88 1222.72,-394.06 1219.3,-387.95"/>
</a>
</g>
</g>
<!-- Node11 -->
<g id="Node000011" class="node">
<title>Node11</title>
<g id="a_Node000011"><a xlink:href="CW__Defs_8h.html" target="_top" xlink:title="Shared constants, error codes, and session state for the SDK.">
<polygon fill="white" stroke="#666666" points="1242.24,-294 1123.24,-294 1123.24,-264 1242.24,-264 1242.24,-294"/>
<text text-anchor="start" x="1131.24" y="-282" font-family="Helvetica,sans-Serif" font-size="10.00">src/cryptnox&#45;sdk&#45;cpp</text>
<text text-anchor="middle" x="1182.74" y="-271" font-family="Helvetica,sans-Serif" font-size="10.00">/CW_Defs.h</text>
</a>
</g>
</g>
<!-- Node1&#45;&gt;Node11 -->
<g id="edge15_Node000001_Node000011" class="edge">
<title>Node1&#45;&gt;Node11</title>
<g id="a_edge15_Node000001_Node000011"><a xlink:title=" ">
<path fill="none" stroke="#63b8ff" d="M1182.74,-385.68C1182.74,-358.7 1182.74,-316.11 1182.74,-294.14"/>
<polygon fill="#63b8ff" stroke="#63b8ff" points="1179.24,-385.84 1182.74,-395.84 1186.24,-385.84 1179.24,-385.84"/>
</a>
</g>
</g>
<!-- Node14 -->
<g id="Node000014" class="node">
<title>Node14</title>
<g id="a_Node000014"><a xlink:href="CW__Logger_8h.html" target="_top" xlink:title="Abstract logging interface.">
<polygon fill="white" stroke="#666666" points="664.24,-228 545.24,-228 545.24,-198 664.24,-198 664.24,-228"/>
<text text-anchor="start" x="553.24" y="-216" font-family="Helvetica,sans-Serif" font-size="10.00">src/cryptnox&#45;sdk&#45;cpp</text>
<text text-anchor="middle" x="604.74" y="-205" font-family="Helvetica,sans-Serif" font-size="10.00">/CW_Logger.h</text>
</a>
</g>
</g>
<!-- Node1&#45;&gt;Node14 -->
<g id="edge23_Node000001_Node000014" class="edge">
<title>Node1&#45;&gt;Node14</title>
<g id="a_edge23_Node000001_Node000014"><a xlink:title=" ">
<path fill="none" stroke="#63b8ff" d="M1131.37,-392.58C1018.29,-354.24 749.72,-263.16 646.32,-228.1"/>
<polygon fill="#63b8ff" stroke="#63b8ff" points="1130.58,-396.01 1141.17,-395.9 1132.82,-389.38 1130.58,-396.01"/>
</a>
</g>
</g>
<!-- Node18 -->
<g id="Node000018" class="node">
<title>Node18</title>
<g id="a_Node000018"><a xlink:href="CW__NfcTransport_8h.html" target="_top" xlink:title="Abstract NFC transport interface.">
<polygon fill="white" stroke="#666666" points="527.24,-228 408.24,-228 408.24,-198 527.24,-198 527.24,-228"/>
<text text-anchor="start" x="416.24" y="-216" font-family="Helvetica,sans-Serif" font-size="10.00">src/cryptnox&#45;sdk&#45;cpp</text>
<text text-anchor="middle" x="467.74" y="-205" font-family="Helvetica,sans-Serif" font-size="10.00">/CW_NfcTransport.h</text>
</a>
</g>
</g>
<!-- Node1&#45;&gt;Node18 -->
<g id="edge34_Node000001_Node000018" class="edge">
<title>Node1&#45;&gt;Node18</title>
<g id="a_edge34_Node000001_Node000018"><a xlink:title=" ">
<path fill="none" stroke="#63b8ff" d="M1113.21,-396.46C1067.18,-387.12 1005.59,-373.93 951.74,-360 786.89,-317.37 593.94,-255.51 510.15,-228.04"/>
<polygon fill="#63b8ff" stroke="#63b8ff" points="1112.59,-399.9 1123.08,-398.45 1113.97,-393.04 1112.59,-399.9"/>
</a>
</g>
</g>
<!-- Node19 -->
<g id="Node000019" class="node">
<title>Node19</title>
<g id="a_Node000019"><a xlink:href="CW__Platform_8h.html" target="_top" xlink:title="Abstract platform interface for timing primitives.">
<polygon fill="white" stroke="#666666" points="1020.24,-228 901.24,-228 901.24,-198 1020.24,-198 1020.24,-228"/>
<text text-anchor="start" x="909.24" y="-216" font-family="Helvetica,sans-Serif" font-size="10.00">src/cryptnox&#45;sdk&#45;cpp</text>
<text text-anchor="middle" x="960.74" y="-205" font-family="Helvetica,sans-Serif" font-size="10.00">/CW_Platform.h</text>
</a>
</g>
</g>
<!-- Node1&#45;&gt;Node19 -->
<g id="edge39_Node000001_Node000019" class="edge">
<title>Node1&#45;&gt;Node19</title>
<g id="a_edge39_Node000001_Node000019"><a xlink:title=" ">
<path fill="none" stroke="#63b8ff" d="M1159.21,-389.22C1113.89,-349.21 1015.56,-262.4 976.86,-228.23"/>
<polygon fill="#63b8ff" stroke="#63b8ff" points="1156.96,-391.91 1166.77,-395.9 1161.59,-386.66 1156.96,-391.91"/>
</a>
</g>
</g>
<!-- Node22 -->
<g id="Node000022" class="node">
<title>Node22</title>
<g id="a_Node000022"><a xlink:href="CW__TrustedKeys_8h.html" target="_top" xlink:title="Cryptnox CA public keys used for offline certificate verification.">
<polygon fill="white" stroke="#666666" points="1676.24,-360 1557.24,-360 1557.24,-330 1676.24,-330 1676.24,-360"/>
<text text-anchor="start" x="1565.24" y="-348" font-family="Helvetica,sans-Serif" font-size="10.00">src/cryptnox&#45;sdk&#45;cpp</text>
<text text-anchor="middle" x="1616.74" y="-337" font-family="Helvetica,sans-Serif" font-size="10.00">/CW_TrustedKeys.h</text>
</a>
</g>
</g>
<!-- Node1&#45;&gt;Node22 -->
<g id="edge48_Node000001_Node000022" class="edge">
<title>Node1&#45;&gt;Node22</title>
<g id="a_edge48_Node000001_Node000022"><a xlink:title=" ">
<path fill="none" stroke="#63b8ff" d="M1252.64,-399.69C1337.05,-387.24 1477.59,-366.52 1557.11,-354.79"/>
<polygon fill="#63b8ff" stroke="#63b8ff" points="1252.01,-396.25 1242.63,-401.17 1253.03,-403.17 1252.01,-396.25"/>
</a>
</g>
</g>
<!-- Node23 -->
<g id="Node000023" class="node">
<title>Node23</title>
<g id="a_Node000023"><a xlink:href="CW__Utils_8h.html" target="_top" xlink:title="Platform&#45;independent security and memory utilities.">
<polygon fill="white" stroke="#666666" points="1482.24,-360 1363.24,-360 1363.24,-330 1482.24,-330 1482.24,-360"/>
<text text-anchor="start" x="1371.24" y="-348" font-family="Helvetica,sans-Serif" font-size="10.00">src/cryptnox&#45;sdk&#45;cpp</text>
<text text-anchor="middle" x="1422.74" y="-337" font-family="Helvetica,sans-Serif" font-size="10.00">/CW_Utils.h</text>
</a>
</g>
</g>
<!-- Node1&#45;&gt;Node23 -->
<g id="edge50_Node000001_Node000023" class="edge">
<title>Node1&#45;&gt;Node23</title>
<g id="a_edge50_Node000001_Node000023"><a xlink:title=" ">
<path fill="none" stroke="#63b8ff" d="M1245.54,-393.25C1284.31,-382.91 1333.49,-369.8 1370.19,-360.01"/>
<polygon fill="#63b8ff" stroke="#63b8ff" points="1244.17,-390 1235.41,-395.95 1245.97,-396.76 1244.17,-390"/>
</a>
</g>
</g>
<!-- Node3 -->
<g id="Node000003" class="node">
<title>Node3</title>
<g id="a_Node000003"><a xlink:href="ArduinoCryptoProvider_8h.html" target="_top" xlink:title="Concrete CW_CryptoProvider for the Arduino UNO R4 (RA4M1).">
<polygon fill="white" stroke="#666666" points="986.74,-156.5 834.74,-156.5 834.74,-137.5 986.74,-137.5 986.74,-156.5"/>
<text text-anchor="middle" x="910.74" y="-144.5" font-family="Helvetica,sans-Serif" font-size="10.00">src/ArduinoCryptoProvider.h</text>
</a>
</g>
</g>
<!-- Node2&#45;&gt;Node3 -->
<g id="edge2_Node000002_Node000003" class="edge">
<title>Node2&#45;&gt;Node3</title>
<g id="a_edge2_Node000002_Node000003"><a xlink:title=" ">
<path fill="none" stroke="#63b8ff" d="M1048.75,-194.74C1012.22,-182.36 964.57,-166.23 935.89,-156.52"/>
<polygon fill="#63b8ff" stroke="#63b8ff" points="1047.67,-198.06 1058.26,-197.95 1049.91,-191.43 1047.67,-198.06"/>
</a>
</g>
</g>
<!-- Node5 -->
<g id="Node000005" class="node">
<title>Node5</title>
<g id="a_Node000005"><a xlink:href="CryptnoxWallet_8h.html" target="_top" xlink:title="Umbrella include and module&#45;group anchor for the CryptnoxWallet Arduino library.">
<polygon fill="white" stroke="#666666" points="784.74,-24.5 666.74,-24.5 666.74,-5.5 784.74,-5.5 784.74,-24.5"/>
<text text-anchor="middle" x="725.74" y="-12.5" font-family="Helvetica,sans-Serif" font-size="10.00">src/CryptnoxWallet.h</text>
</a>
</g>
</g>
<!-- Node2&#45;&gt;Node5 -->
<g id="edge5_Node000002_Node000005" class="edge">
<title>Node2&#45;&gt;Node5</title>
<g id="a_edge5_Node000002_Node000005"><a xlink:title=" ">
<path fill="none" stroke="#63b8ff" d="M1028.54,-198.11C936.12,-183.2 899.45,-210.97 825.74,-162 783.43,-133.89 792.9,-107.58 763.74,-66 753.35,-51.18 740.45,-34.56 732.67,-24.7"/>
<polygon fill="#63b8ff" stroke="#63b8ff" points="1028.11,-201.59 1038.56,-199.86 1029.31,-194.69 1028.11,-201.59"/>
</a>
</g>
</g>
<!-- Node2&#45;&gt;Node6 -->
<g id="edge6_Node000002_Node000006" class="edge">
<title>Node2&#45;&gt;Node6</title>
<g id="a_edge6_Node000002_Node000006"><a xlink:title=" ">
<path fill="none" stroke="#63b8ff" d="M1125.71,-191.48C1137.82,-181.91 1151.92,-170.77 1162.81,-162.16"/>
<polygon fill="#63b8ff" stroke="#63b8ff" points="1123.39,-188.85 1117.71,-197.8 1127.73,-194.34 1123.39,-188.85"/>
</a>
</g>
</g>
<!-- Node8 -->
<g id="Node000008" class="node">
<title>Node8</title>
<g id="a_Node000008"><a xlink:href="fuzz__der_8cpp.html" target="_top" xlink:title=" ">
<polygon fill="white" stroke="#666666" points="1233.24,-30 1114.24,-30 1114.24,0 1233.24,0 1233.24,-30"/>
<text text-anchor="start" x="1122.24" y="-18" font-family="Helvetica,sans-Serif" font-size="10.00">src/cryptnox&#45;sdk&#45;cpp</text>
<text text-anchor="middle" x="1173.74" y="-7" font-family="Helvetica,sans-Serif" font-size="10.00">/fuzz/fuzz_der.cpp</text>
</a>
</g>
</g>
<!-- Node2&#45;&gt;Node8 -->
<g id="edge14_Node000002_Node000008" class="edge">
<title>Node2&#45;&gt;Node8</title>
<g id="a_edge14_Node000002_Node000008"><a xlink:title=" ">
<path fill="none" stroke="#63b8ff" d="M1170.77,-200.06C1227.25,-186.15 1301.32,-156.76 1329.74,-96 1350.17,-52.3 1285.5,-32.05 1233.28,-22.96"/>
<polygon fill="#63b8ff" stroke="#63b8ff" points="1169.74,-196.71 1160.8,-202.4 1171.34,-203.52 1169.74,-196.71"/>
</a>
</g>
</g>
<!-- Node4 -->
<g id="Node000004" class="node">
<title>Node4</title>
<g id="a_Node000004"><a xlink:href="ArduinoCryptoProvider_8cpp.html" target="_top" xlink:title="Implementation of the Arduino UNO R4 concrete crypto provider.">
<polygon fill="white" stroke="#666666" points="1069.74,-90.5 905.74,-90.5 905.74,-71.5 1069.74,-71.5 1069.74,-90.5"/>
<text text-anchor="middle" x="987.74" y="-78.5" font-family="Helvetica,sans-Serif" font-size="10.00">src/ArduinoCryptoProvider.cpp</text>
</a>
</g>
</g>
<!-- Node3&#45;&gt;Node4 -->
<g id="edge3_Node000003_Node000004" class="edge">
<title>Node3&#45;&gt;Node4</title>
<g id="a_edge3_Node000003_Node000004"><a xlink:title=" ">
<path fill="none" stroke="#63b8ff" d="M929.17,-130.68C944.12,-118.26 964.66,-101.18 977.02,-90.91"/>
<polygon fill="#63b8ff" stroke="#63b8ff" points="926.58,-128.28 921.12,-137.37 931.05,-133.67 926.58,-128.28"/>
</a>
</g>
</g>
<!-- Node3&#45;&gt;Node5 -->
<g id="edge4_Node000003_Node000005" class="edge">
<title>Node3&#45;&gt;Node5</title>
<g id="a_edge4_Node000003_Node000005"><a xlink:title=" ">
<path fill="none" stroke="#63b8ff" d="M894.29,-130.44C875.94,-113.51 844.99,-86.16 815.74,-66 791.9,-49.57 762.19,-33.91 743.59,-24.63"/>
<polygon fill="#63b8ff" stroke="#63b8ff" points="892.08,-133.17 901.78,-137.43 896.85,-128.05 892.08,-133.17"/>
</a>
</g>
</g>
<!-- Node6&#45;&gt;Node5 -->
<g id="edge7_Node000006_Node000005" class="edge">
<title>Node6&#45;&gt;Node5</title>
<g id="a_edge7_Node000006_Node000005"><a xlink:title=" ">
<path fill="none" stroke="#63b8ff" d="M1160.5,-124.74C1141.33,-106.01 1110.76,-79.65 1078.74,-66 981.51,-24.56 856.94,-16.16 784.76,-15.16"/>
<polygon fill="#63b8ff" stroke="#63b8ff" points="1158.21,-127.4 1167.76,-132 1163.16,-122.45 1158.21,-127.4"/>
</a>
</g>
</g>
<!-- Node7 -->
<g id="Node000007" class="node">
<title>Node7</title>
<g id="a_Node000007"><a xlink:href="CW__SecureChannel_8cpp.html" target="_top" xlink:title="Implementation of the Cryptnox secure channel protocol.">
<polygon fill="white" stroke="#666666" points="1549.74,-96 1415.74,-96 1415.74,-66 1549.74,-66 1549.74,-96"/>
<text text-anchor="start" x="1423.74" y="-84" font-family="Helvetica,sans-Serif" font-size="10.00">src/cryptnox&#45;sdk&#45;cpp</text>
<text text-anchor="middle" x="1482.74" y="-73" font-family="Helvetica,sans-Serif" font-size="10.00">/CW_SecureChannel.cpp</text>
</a>
</g>
</g>
<!-- Node6&#45;&gt;Node7 -->
<g id="edge8_Node000006_Node000007" class="edge">
<title>Node6&#45;&gt;Node7</title>
<g id="a_edge8_Node000006_Node000007"><a xlink:title=" ">
<path fill="none" stroke="#63b8ff" d="M1252.62,-130.77C1302.36,-120.22 1368.07,-106.3 1416.53,-96.03"/>
<polygon fill="#63b8ff" stroke="#63b8ff" points="1251.64,-127.4 1242.58,-132.89 1253.09,-134.24 1251.64,-127.4"/>
</a>
</g>
</g>
<!-- Node6&#45;&gt;Node8 -->
<g id="edge13_Node000006_Node000008" class="edge">
<title>Node6&#45;&gt;Node8</title>
<g id="a_edge13_Node000006_Node000008"><a xlink:title=" ">
<path fill="none" stroke="#63b8ff" d="M1179.43,-121.68C1177.98,-94.7 1175.68,-52.11 1174.5,-30.14"/>
<polygon fill="#63b8ff" stroke="#63b8ff" points="1175.94,-122.04 1179.98,-131.84 1182.93,-121.67 1175.94,-122.04"/>
</a>
</g>
</g>
<!-- Node6&#45;&gt;Node9 -->
<g id="edge10_Node000006_Node000009" class="edge">
<title>Node6&#45;&gt;Node9</title>
<g id="a_edge10_Node000006_Node000009"><a xlink:title=" ">
<path fill="none" stroke="#63b8ff" d="M1206.71,-125.48C1218.82,-115.91 1232.92,-104.77 1243.81,-96.16"/>
<polygon fill="#63b8ff" stroke="#63b8ff" points="1204.39,-122.85 1198.71,-131.8 1208.73,-128.34 1204.39,-122.85"/>
</a>
</g>
</g>
<!-- Node7&#45;&gt;Node8 -->
<g id="edge9_Node000007_Node000008" class="edge">
<title>Node7&#45;&gt;Node8</title>
<g id="a_edge9_Node000007_Node000008"><a xlink:title=" ">
<path fill="none" stroke="#63b8ff" d="M1405.6,-64.02C1352.28,-52.98 1282.4,-38.51 1233.35,-28.35"/>
<polygon fill="#63b8ff" stroke="#63b8ff" points="1405.19,-67.51 1415.69,-66.11 1406.61,-60.66 1405.19,-67.51"/>
</a>
</g>
</g>
<!-- Node9&#45;&gt;Node5 -->
<g id="edge11_Node000009_Node000005" class="edge">
<title>Node9&#45;&gt;Node5</title>
<g id="a_edge11_Node000009_Node000005"><a xlink:title=" ">
<path fill="none" stroke="#63b8ff" d="M1192.09,-71.22C1178.07,-69.47 1163.43,-67.66 1149.74,-66 1019.5,-50.18 866.67,-32.33 784.74,-22.83"/>
<polygon fill="#63b8ff" stroke="#63b8ff" points="1191.81,-74.71 1202.17,-72.48 1192.68,-67.76 1191.81,-74.71"/>
</a>
</g>
</g>
<!-- Node10 -->
<g id="Node000010" class="node">
<title>Node10</title>
<g id="a_Node000010"><a xlink:href="CryptnoxWallet_8cpp.html" target="_top" xlink:title="Implementation of the high&#45;level CryptnoxWallet API.">
<polygon fill="white" stroke="#666666" points="1533.24,-30 1414.24,-30 1414.24,0 1533.24,0 1533.24,-30"/>
<text text-anchor="start" x="1422.24" y="-18" font-family="Helvetica,sans-Serif" font-size="10.00">src/cryptnox&#45;sdk&#45;cpp</text>
<text text-anchor="middle" x="1473.74" y="-7" font-family="Helvetica,sans-Serif" font-size="10.00">/CryptnoxWallet.cpp</text>
</a>
</g>
</g>
<!-- Node9&#45;&gt;Node10 -->
<g id="edge12_Node000009_Node000010" class="edge">
<title>Node9&#45;&gt;Node10</title>
<g id="a_edge12_Node000009_Node000010"><a xlink:title=" ">
<path fill="none" stroke="#63b8ff" d="M1318.09,-62.99C1352.2,-52.69 1395.18,-39.72 1427.32,-30.01"/>
<polygon fill="#63b8ff" stroke="#63b8ff" points="1316.82,-59.71 1308.26,-65.95 1318.85,-66.42 1316.82,-59.71"/>
</a>
</g>
</g>
<!-- Node11&#45;&gt;Node2 -->
<g id="edge20_Node000011_Node000002" class="edge">
<title>Node11&#45;&gt;Node2</title>
<g id="a_edge20_Node000011_Node000002"><a xlink:title=" ">
<path fill="none" stroke="#63b8ff" d="M1156.12,-257.48C1143.72,-247.91 1129.27,-236.77 1118.11,-228.16"/>
<polygon fill="#63b8ff" stroke="#63b8ff" points="1154.26,-260.46 1164.32,-263.8 1158.54,-254.92 1154.26,-260.46"/>
</a>
</g>
</g>
<!-- Node11&#45;&gt;Node5 -->
<g id="edge16_Node000011_Node000005" class="edge">
<title>Node11&#45;&gt;Node5</title>
<g id="a_edge16_Node000011_Node000005"><a xlink:title=" ">
<path fill="none" stroke="#63b8ff" d="M1112.97,-272.44C1053,-266.16 964.9,-253.31 891.74,-228 833.48,-207.85 811.79,-207.08 769.74,-162 731.81,-121.35 726.5,-49.15 725.82,-24.51"/>
<polygon fill="#63b8ff" stroke="#63b8ff" points="1112.78,-275.94 1123.08,-273.46 1113.49,-268.97 1112.78,-275.94"/>
</a>
</g>
</g>
<!-- Node11&#45;&gt;Node6 -->
<g id="edge21_Node000011_Node000006" class="edge">
<title>Node11&#45;&gt;Node6</title>
<g id="a_edge21_Node000011_Node000006"><a xlink:title=" ">
<path fill="none" stroke="#63b8ff" d="M1182.36,-253.68C1181.95,-226.7 1181.29,-184.11 1180.96,-162.14"/>
<polygon fill="#63b8ff" stroke="#63b8ff" points="1178.87,-253.9 1182.52,-263.84 1185.87,-253.79 1178.87,-253.9"/>
</a>
</g>
</g>
<!-- Node11&#45;&gt;Node9 -->
<g id="edge22_Node000011_Node000009" class="edge">
<title>Node11&#45;&gt;Node9</title>
<g id="a_edge22_Node000011_Node000009"><a xlink:title=" ">
<path fill="none" stroke="#63b8ff" d="M1199.42,-255.72C1215.33,-233.28 1238.6,-197.05 1250.74,-162 1258.4,-139.88 1260.75,-112.57 1261.45,-96.26"/>
<polygon fill="#63b8ff" stroke="#63b8ff" points="1196.54,-253.74 1193.52,-263.9 1202.21,-257.84 1196.54,-253.74"/>
</a>
</g>
</g>
<!-- Node12 -->
<g id="Node000012" class="node">
<title>Node12</title>
<g id="a_Node000012"><a xlink:href="PN532Adapter_8h.html" target="_top" xlink:title="Concrete CW_NfcTransport over Adafruit_PN532 (SPI / I2C / UART).">
<polygon fill="white" stroke="#666666" points="125.74,-156.5 13.74,-156.5 13.74,-137.5 125.74,-137.5 125.74,-156.5"/>
<text text-anchor="middle" x="69.74" y="-144.5" font-family="Helvetica,sans-Serif" font-size="10.00">src/PN532Adapter.h</text>
</a>
</g>
</g>
<!-- Node11&#45;&gt;Node12 -->
<g id="edge17_Node000011_Node000012" class="edge">
<title>Node11&#45;&gt;Node12</title>
<g id="a_edge17_Node000011_Node000012"><a xlink:title=" ">
<path fill="none" stroke="#63b8ff" d="M1112.45,-277.62C974.71,-275.98 659.92,-267.77 398.74,-228 285.42,-210.74 153.84,-173.36 97.57,-156.52"/>
<polygon fill="#63b8ff" stroke="#63b8ff" points="1112.82,-281.13 1122.85,-277.74 1112.89,-274.13 1112.82,-281.13"/>
</a>
</g>
</g>
<!-- Node12&#45;&gt;Node5 -->
<g id="edge18_Node000012_Node000005" class="edge">
<title>Node12&#45;&gt;Node5</title>
<g id="a_edge18_Node000012_Node000005"><a xlink:title=" ">
<path fill="none" stroke="#63b8ff" d="M55.32,-129.09C41.96,-111.32 26.42,-83.55 42.74,-66 84.78,-20.77 508.39,-16.02 666.58,-15.84"/>
<polygon fill="#63b8ff" stroke="#63b8ff" points="52.95,-131.73 61.93,-137.37 58.42,-127.37 52.95,-131.73"/>
</a>
</g>
</g>
<!-- Node13 -->
<g id="Node000013" class="node">
<title>Node13</title>
<g id="a_Node000013"><a xlink:href="PN532Adapter_8cpp.html" target="_top" xlink:title="Implementation of the PN532 transport adapter.">
<polygon fill="white" stroke="#666666" points="175.24,-90.5 52.24,-90.5 52.24,-71.5 175.24,-71.5 175.24,-90.5"/>
<text text-anchor="middle" x="113.74" y="-78.5" font-family="Helvetica,sans-Serif" font-size="10.00">src/PN532Adapter.cpp</text>
</a>
</g>
</g>
<!-- Node12&#45;&gt;Node13 -->
<g id="edge19_Node000012_Node000013" class="edge">
<title>Node12&#45;&gt;Node13</title>
<g id="a_edge19_Node000012_Node000013"><a xlink:title=" ">
<path fill="none" stroke="#63b8ff" d="M81.49,-128.91C89.9,-116.68 100.88,-100.7 107.62,-90.91"/>
<polygon fill="#63b8ff" stroke="#63b8ff" points="78.45,-127.15 75.67,-137.37 84.22,-131.11 78.45,-127.15"/>
</a>
</g>
</g>
<!-- Node14&#45;&gt;Node5 -->
<g id="edge27_Node000014_Node000005" class="edge">
<title>Node14&#45;&gt;Node5</title>
<g id="a_edge27_Node000014_Node000005"><a xlink:title=" ">
<path fill="none" stroke="#63b8ff" d="M535.8,-194.44C520.02,-187.06 505.14,-176.65 495.74,-162 483,-142.14 497.63,-76.58 507.74,-66 529.3,-43.43 609.74,-29.49 666.61,-22.24"/>
<polygon fill="#63b8ff" stroke="#63b8ff" points="534.59,-197.73 545.16,-198.45 537.35,-191.3 534.59,-197.73"/>
</a>
</g>
</g>
<!-- Node14&#45;&gt;Node6 -->
<g id="edge31_Node000014_Node000006" class="edge">
<title>Node14&#45;&gt;Node6</title>
<g id="a_edge31_Node000014_Node000006"><a xlink:title=" ">
<path fill="none" stroke="#63b8ff" d="M674.71,-204.74C765.25,-195.28 927.83,-178.04 1066.74,-162 1083.77,-160.03 1102.23,-157.81 1119.23,-155.72"/>
<polygon fill="#63b8ff" stroke="#63b8ff" points="674.16,-201.28 664.57,-205.8 674.88,-208.24 674.16,-201.28"/>
</a>
</g>
</g>
<!-- Node14&#45;&gt;Node8 -->
<g id="edge33_Node000014_Node000008" class="edge">
<title>Node14&#45;&gt;Node8</title>
<g id="a_edge33_Node000014_Node000008"><a xlink:title=" ">
<path fill="none" stroke="#63b8ff" d="M635.99,-192.6C688.07,-161.16 796.79,-99.25 896.74,-66 969.54,-41.78 1057.23,-28.47 1114.16,-21.78"/>
<polygon fill="#63b8ff" stroke="#63b8ff" points="633.96,-189.74 627.24,-197.93 637.6,-195.72 633.96,-189.74"/>
</a>
</g>
</g>
<!-- Node14&#45;&gt;Node9 -->
<g id="edge32_Node000014_Node000009" class="edge">
<title>Node14&#45;&gt;Node9</title>
<g id="a_edge32_Node000014_Node000009"><a xlink:title=" ">
<path fill="none" stroke="#63b8ff" d="M674.66,-208.8C753.76,-203.87 885.87,-191.64 995.74,-162 1028.81,-153.08 1034.28,-142.95 1066.74,-132 1111.44,-116.92 1163.23,-103.84 1202.19,-94.84"/>
<polygon fill="#63b8ff" stroke="#63b8ff" points="674.11,-205.33 664.34,-209.42 674.53,-212.32 674.11,-205.33"/>
</a>
</g>
</g>
<!-- Node14&#45;&gt;Node12 -->
<g id="edge30_Node000014_Node000012" class="edge">
<title>Node14&#45;&gt;Node12</title>
<g id="a_edge30_Node000014_Node000012"><a xlink:title=" ">
<path fill="none" stroke="#63b8ff" d="M535.01,-198.02C356.93,-172.76 308.45,-188.4 134.74,-162 125.27,-160.56 115.1,-158.58 105.69,-156.57"/>
<polygon fill="#63b8ff" stroke="#63b8ff" points="534.57,-201.49 544.97,-199.45 535.57,-194.56 534.57,-201.49"/>
</a>
</g>
</g>
<!-- Node15 -->
<g id="Node000015" class="node">
<title>Node15</title>
<g id="a_Node000015"><a xlink:href="ArduinoLoggerAdapter_8h.html" target="_top" xlink:title="Concrete CW_Logger over HardwareSerial for development builds.">
<polygon fill="white" stroke="#666666" points="446.24,-156.5 295.24,-156.5 295.24,-137.5 446.24,-137.5 446.24,-156.5"/>
<text text-anchor="middle" x="370.74" y="-144.5" font-family="Helvetica,sans-Serif" font-size="10.00">src/ArduinoLoggerAdapter.h</text>
</a>
</g>
</g>
<!-- Node14&#45;&gt;Node15 -->
<g id="edge24_Node000014_Node000015" class="edge">
<title>Node14&#45;&gt;Node15</title>
<g id="a_edge24_Node000014_Node000015"><a xlink:title=" ">
<path fill="none" stroke="#63b8ff" d="M543.63,-195.29C498.14,-182.84 437.92,-166.37 401.88,-156.52"/>
<polygon fill="#63b8ff" stroke="#63b8ff" points="542.82,-198.69 553.39,-197.95 544.66,-191.94 542.82,-198.69"/>
</a>
</g>
</g>
<!-- Node17 -->
<g id="Node000017" class="node">
<title>Node17</title>
<g id="a_Node000017"><a xlink:href="NullLoggerAdapter_8h.html" target="_top" xlink:title="Silent CW_Logger for production firmware.">
<polygon fill="white" stroke="#666666" points="277.24,-156.5 144.24,-156.5 144.24,-137.5 277.24,-137.5 277.24,-156.5"/>
<text text-anchor="middle" x="210.74" y="-144.5" font-family="Helvetica,sans-Serif" font-size="10.00">src/NullLoggerAdapter.h</text>
</a>
</g>
</g>
<!-- Node14&#45;&gt;Node17 -->
<g id="edge28_Node000014_Node000017" class="edge">
<title>Node14&#45;&gt;Node17</title>
<g id="a_edge28_Node000014_Node000017"><a xlink:title=" ">
<path fill="none" stroke="#63b8ff" d="M534.97,-197.93C423.44,-178.9 393.36,-179.79 285.74,-162 275.68,-160.34 264.88,-158.41 254.71,-156.52"/>
<polygon fill="#63b8ff" stroke="#63b8ff" points="534.49,-201.4 544.94,-199.65 535.68,-194.5 534.49,-201.4"/>
</a>
</g>
</g>
<!-- Node15&#45;&gt;Node5 -->
<g id="edge26_Node000015_Node000005" class="edge">
<title>Node15&#45;&gt;Node5</title>
<g id="a_edge26_Node000015_Node000005"><a xlink:title=" ">
<path fill="none" stroke="#63b8ff" d="M330.28,-134.26C288.99,-120.33 234.44,-95.27 260.74,-66 287.39,-36.33 547.1,-22.75 666.38,-18.04"/>
<polygon fill="#63b8ff" stroke="#63b8ff" points="329.31,-137.63 339.9,-137.39 331.47,-130.97 329.31,-137.63"/>
</a>
</g>
</g>
<!-- Node16 -->
<g id="Node000016" class="node">
<title>Node16</title>
<g id="a_Node000016"><a xlink:href="ArduinoLoggerAdapter_8cpp.html" target="_top" xlink:title="Implementation of the HardwareSerial&#45;backed logger.">
<polygon fill="white" stroke="#666666" points="431.74,-90.5 269.74,-90.5 269.74,-71.5 431.74,-71.5 431.74,-90.5"/>
<text text-anchor="middle" x="350.74" y="-78.5" font-family="Helvetica,sans-Serif" font-size="10.00">src/ArduinoLoggerAdapter.cpp</text>
</a>
</g>
</g>
<!-- Node15&#45;&gt;Node16 -->
<g id="edge25_Node000015_Node000016" class="edge">
<title>Node15&#45;&gt;Node16</title>
<g id="a_edge25_Node000015_Node000016"><a xlink:title=" ">
<path fill="none" stroke="#63b8ff" d="M365.06,-127.82C361.28,-115.74 356.49,-100.41 353.52,-90.91"/>
<polygon fill="#63b8ff" stroke="#63b8ff" points="361.72,-128.87 368.04,-137.37 368.4,-126.78 361.72,-128.87"/>
</a>
</g>
</g>
<!-- Node17&#45;&gt;Node5 -->
<g id="edge29_Node000017_Node000005" class="edge">
<title>Node17&#45;&gt;Node5</title>
<g id="a_edge29_Node000017_Node000005"><a xlink:title=" ">
<path fill="none" stroke="#63b8ff" d="M214.5,-127.71C219.41,-108.91 229.93,-80.42 250.74,-66 316.68,-20.3 554.31,-15.12 666.42,-15.31"/>
<polygon fill="#63b8ff" stroke="#63b8ff" points="211.09,-126.94 212.23,-137.48 217.9,-128.53 211.09,-126.94"/>
</a>
</g>
</g>
<!-- Node18&#45;&gt;Node5 -->
<g id="edge35_Node000018_Node000005" class="edge">
<title>Node18&#45;&gt;Node5</title>
<g id="a_edge35_Node000018_Node000005"><a xlink:title=" ">
<path fill="none" stroke="#63b8ff" d="M398.11,-209.51C275.27,-204.4 30.51,-190.71 4.74,-162 -4.17,-152.08 2.17,-145.08 4.74,-132 10.85,-100.9 6.08,-84.6 31.74,-66 82.54,-29.18 507.93,-19.19 666.49,-16.73"/>
<polygon fill="#63b8ff" stroke="#63b8ff" points="398.04,-213.01 408.18,-209.92 398.33,-206.02 398.04,-213.01"/>
</a>
</g>
</g>
<!-- Node18&#45;&gt;Node6 -->
<g id="edge37_Node000018_Node000006" class="edge">
<title>Node18&#45;&gt;Node6</title>
<g id="a_edge37_Node000018_Node000006"><a xlink:title=" ">
<path fill="none" stroke="#63b8ff" d="M537.69,-198.19C606.55,-191.68 971.62,-163.87 1119.04,-152.68"/>
<polygon fill="#63b8ff" stroke="#63b8ff" points="536.94,-194.75 527.37,-199.28 537.68,-201.71 536.94,-194.75"/>
</a>
</g>
</g>
<!-- Node18&#45;&gt;Node8 -->
<g id="edge38_Node000018_Node000008" class="edge">
<title>Node18&#45;&gt;Node8</title>
<g id="a_edge38_Node000018_Node000008"><a xlink:title=" ">
<path fill="none" stroke="#63b8ff" d="M537.15,-195.55C567.98,-187.18 604.33,-175.83 635.74,-162 659.46,-151.55 662.95,-144.34 685.74,-132 744.82,-100.02 757.48,-85.63 821.74,-66 921.5,-35.53 1042.95,-23.5 1113.98,-18.84"/>
<polygon fill="#63b8ff" stroke="#63b8ff" points="536.11,-192.21 527.34,-198.17 537.91,-198.97 536.11,-192.21"/>
</a>
</g>
</g>
<!-- Node18&#45;&gt;Node12 -->
<g id="edge36_Node000018_Node000012" class="edge">
<title>Node18&#45;&gt;Node12</title>
<g id="a_edge36_Node000018_Node000012"><a xlink:title=" ">
<path fill="none" stroke="#63b8ff" d="M397.9,-202.82C330.38,-193.64 225.27,-178.53 134.74,-162 125.88,-160.38 116.39,-158.45 107.47,-156.55"/>
<polygon fill="#63b8ff" stroke="#63b8ff" points="397.62,-206.31 408,-204.19 398.56,-199.38 397.62,-206.31"/>
</a>
</g>
</g>
<!-- Node19&#45;&gt;Node5 -->
<g id="edge43_Node000019_Node000005" class="edge">
<title>Node19&#45;&gt;Node5</title>
<g id="a_edge43_Node000019_Node000005"><a xlink:title=" ">
<path fill="none" stroke="#63b8ff" d="M891.15,-204.72C858.13,-198.15 820.02,-185.68 792.74,-162 770.1,-142.35 738.23,-52.73 728.6,-24.52"/>
<polygon fill="#63b8ff" stroke="#63b8ff" points="890.75,-208.2 901.22,-206.57 892.02,-201.32 890.75,-208.2"/>
</a>
</g>
</g>
<!-- Node19&#45;&gt;Node6 -->
<g id="edge44_Node000019_Node000006" class="edge">
<title>Node19&#45;&gt;Node6</title>
<g id="a_edge44_Node000019_Node000006"><a xlink:title=" ">
<path fill="none" stroke="#63b8ff" d="M1018.76,-195.12C1054.23,-184.8 1099.07,-171.76 1132.57,-162.01"/>
<polygon fill="#63b8ff" stroke="#63b8ff" points="1017.64,-191.8 1009.02,-197.95 1019.6,-198.52 1017.64,-191.8"/>
</a>
</g>
</g>
<!-- Node19&#45;&gt;Node8 -->
<g id="edge46_Node000019_Node000008" class="edge">
<title>Node19&#45;&gt;Node8</title>
<g id="a_edge46_Node000019_Node000008"><a xlink:title=" ">
<path fill="none" stroke="#63b8ff" d="M983.59,-190.98C1027.19,-150.85 1121.21,-64.33 1158.27,-30.23"/>
<polygon fill="#63b8ff" stroke="#63b8ff" points="981.05,-188.56 976.06,-197.9 985.79,-193.71 981.05,-188.56"/>
</a>
</g>
</g>
<!-- Node19&#45;&gt;Node9 -->
<g id="edge45_Node000019_Node000009" class="edge">
<title>Node19&#45;&gt;Node9</title>
<g id="a_edge45_Node000019_Node000009"><a xlink:title=" ">
<path fill="none" stroke="#63b8ff" d="M1003.72,-193.71C1023.33,-184.87 1046.61,-173.66 1066.74,-162 1086.9,-150.32 1088.89,-142.42 1109.74,-132 1140.3,-116.72 1176.59,-104.58 1206.04,-96.09"/>
<polygon fill="#63b8ff" stroke="#63b8ff" points="1002.13,-190.59 994.42,-197.86 1004.98,-196.99 1002.13,-190.59"/>
</a>
</g>
</g>
<!-- Node20 -->
<g id="Node000020" class="node">
<title>Node20</title>
<g id="a_Node000020"><a xlink:href="ArduinoPlatform_8h.html" target="_top" xlink:title="Concrete CW_Platform over Arduino&#39;s delay().">
<polygon fill="white" stroke="#666666" points="626.74,-156.5 504.74,-156.5 504.74,-137.5 626.74,-137.5 626.74,-156.5"/>
<text text-anchor="middle" x="565.74" y="-144.5" font-family="Helvetica,sans-Serif" font-size="10.00">src/ArduinoPlatform.h</text>
</a>
</g>
</g>
<!-- Node19&#45;&gt;Node20 -->
<g id="edge40_Node000019_Node000020" class="edge">
<title>Node19&#45;&gt;Node20</title>
<g id="a_edge40_Node000019_Node000020"><a xlink:title=" ">
<path fill="none" stroke="#63b8ff" d="M890.97,-200.7C813.07,-188.07 688.73,-167.93 618.51,-156.55"/>
<polygon fill="#63b8ff" stroke="#63b8ff" points="890.74,-204.2 901.18,-202.35 891.86,-197.29 890.74,-204.2"/>
</a>
</g>
</g>
<!-- Node20&#45;&gt;Node5 -->
<g id="edge42_Node000020_Node000005" class="edge">
<title>Node20&#45;&gt;Node5</title>
<g id="a_edge42_Node000020_Node000005"><a xlink:title=" ">
<path fill="none" stroke="#63b8ff" d="M545.66,-131.19C525.6,-114.6 499.98,-87.24 516.74,-66 535.14,-42.68 611.52,-29.02 666.63,-22.03"/>
<polygon fill="#63b8ff" stroke="#63b8ff" points="543.49,-133.94 553.51,-137.4 547.83,-128.45 543.49,-133.94"/>
</a>
</g>
</g>
<!-- Node21 -->
<g id="Node000021" class="node">
<title>Node21</title>
<g id="a_Node000021"><a xlink:href="ArduinoPlatform_8cpp.html" target="_top" xlink:title="Implementation of the Arduino blocking&#45;delay platform adapter.">
<polygon fill="white" stroke="#666666" points="659.74,-90.5 525.74,-90.5 525.74,-71.5 659.74,-71.5 659.74,-90.5"/>
<text text-anchor="middle" x="592.74" y="-78.5" font-family="Helvetica,sans-Serif" font-size="10.00">src/ArduinoPlatform.cpp</text>
</a>
</g>
</g>
<!-- Node20&#45;&gt;Node21 -->
<g id="edge41_Node000020_Node000021" class="edge">
<title>Node20&#45;&gt;Node21</title>
<g id="a_edge41_Node000020_Node000021"><a xlink:title=" ">
<path fill="none" stroke="#63b8ff" d="M573.41,-127.82C578.5,-115.74 584.97,-100.41 588.98,-90.91"/>
<polygon fill="#63b8ff" stroke="#63b8ff" points="570.04,-126.79 569.38,-137.37 576.49,-129.52 570.04,-126.79"/>
</a>
</g>
</g>
<!-- Node22&#45;&gt;Node7 -->
<g id="edge49_Node000022_Node000007" class="edge">
<title>Node22&#45;&gt;Node7</title>
<g id="a_edge49_Node000022_Node000007"><a xlink:title=" ">
<path fill="none" stroke="#63b8ff" d="M1635.89,-321.97C1641.85,-313.75 1647.67,-303.98 1650.74,-294 1654.66,-281.26 1655.59,-276.42 1650.74,-264 1620.67,-187.11 1541.21,-123.18 1503.35,-96.02"/>
<polygon fill="#63b8ff" stroke="#63b8ff" points="1633.09,-319.87 1629.72,-329.92 1638.62,-324.16 1633.09,-319.87"/>
</a>
</g>
</g>
<!-- Node23&#45;&gt;Node5 -->
<g id="edge51_Node000023_Node000005" class="edge">
<title>Node23&#45;&gt;Node5</title>
<g id="a_edge51_Node000023_Node000005"><a xlink:title=" ">
<path fill="none" stroke="#63b8ff" d="M1423.16,-319.82C1422.66,-264.02 1412.67,-126.38 1329.74,-66 1286.33,-34.4 928.13,-21.4 784.74,-17.43"/>
<polygon fill="#63b8ff" stroke="#63b8ff" points="1419.66,-319.84 1423.15,-329.85 1426.66,-319.85 1419.66,-319.84"/>
</a>
</g>
</g>
<!-- Node23&#45;&gt;Node7 -->
<g id="edge53_Node000023_Node000007" class="edge">
<title>Node23&#45;&gt;Node7</title>
<g id="a_edge53_Node000023_Node000007"><a xlink:title=" ">
<path fill="none" stroke="#63b8ff" d="M1429.79,-319.92C1432.11,-311.73 1434.63,-302.49 1436.74,-294 1455.11,-219.98 1473.2,-130.41 1479.96,-96.21"/>
<polygon fill="#63b8ff" stroke="#63b8ff" points="1426.4,-319.04 1427.01,-329.62 1433.13,-320.97 1426.4,-319.04"/>
</a>
</g>
</g>
<!-- Node23&#45;&gt;Node9 -->
<g id="edge57_Node000023_Node000009" class="edge">
<title>Node23&#45;&gt;Node9</title>
<g id="a_edge57_Node000023_Node000009"><a xlink:title=" ">
<path fill="none" stroke="#63b8ff" d="M1415.41,-320.23C1401.87,-278.91 1369.94,-192.51 1322.74,-132 1311.71,-117.86 1295.99,-105.09 1283.27,-96"/>
<polygon fill="#63b8ff" stroke="#63b8ff" points="1412.14,-321.49 1418.52,-329.94 1418.8,-319.35 1412.14,-321.49"/>
</a>
</g>
</g>
<!-- Node23&#45;&gt;Node10 -->
<g id="edge56_Node000023_Node000010" class="edge">
<title>Node23&#45;&gt;Node10</title>
<g id="a_edge56_Node000023_Node000010"><a xlink:title=" ">
<path fill="none" stroke="#63b8ff" d="M1492.33,-333.9C1540.93,-325.45 1600.15,-311.9 1617.74,-294 1643.35,-267.93 1636.74,-250.54 1636.74,-214 1636.74,-214 1636.74,-214 1636.74,-146 1636.74,-85.37 1566.96,-48.43 1518.71,-30.13"/>
<polygon fill="#63b8ff" stroke="#63b8ff" points="1491.72,-330.45 1482.45,-335.57 1492.89,-337.36 1491.72,-330.45"/>
</a>
</g>
</g>
<!-- Node23&#45;&gt;Node11 -->
<g id="edge52_Node000023_Node000011" class="edge">
<title>Node23&#45;&gt;Node11</title>
<g id="a_edge52_Node000023_Node000011"><a xlink:title=" ">
<path fill="none" stroke="#63b8ff" d="M1359.94,-327.25C1321.17,-316.91 1271.99,-303.8 1235.28,-294.01"/>
<polygon fill="#63b8ff" stroke="#63b8ff" points="1359.5,-330.76 1370.07,-329.95 1361.31,-324 1359.5,-330.76"/>
</a>
</g>
</g>
<!-- Node24 -->
<g id="Node000024" class="node">
<title>Node24</title>
<g id="a_Node000024"><a xlink:href="CW__Utils_8cpp.html" target="_top" xlink:title="Implementation of the platform&#45;independent utility helpers.">
<polygon fill="white" stroke="#666666" points="1608.24,-294 1489.24,-294 1489.24,-264 1608.24,-264 1608.24,-294"/>
<text text-anchor="start" x="1497.24" y="-282" font-family="Helvetica,sans-Serif" font-size="10.00">src/cryptnox&#45;sdk&#45;cpp</text>
<text text-anchor="middle" x="1548.74" y="-271" font-family="Helvetica,sans-Serif" font-size="10.00">/CW_Utils.cpp</text>
</a>
</g>
</g>
<!-- Node23&#45;&gt;Node24 -->
<g id="edge54_Node000023_Node000024" class="edge">
<title>Node23&#45;&gt;Node24</title>
<g id="a_edge54_Node000023_Node000024"><a xlink:title=" ">
<path fill="none" stroke="#63b8ff" d="M1459.4,-325.38C1479.12,-315.36 1503.03,-303.22 1521.15,-294.01"/>
<polygon fill="#63b8ff" stroke="#63b8ff" points="1457.72,-322.31 1450.39,-329.95 1460.89,-328.55 1457.72,-322.31"/>
</a>
</g>
</g>
<!-- Node24&#45;&gt;Node8 -->
<g id="edge55_Node000024_Node000008" class="edge">
<title>Node24&#45;&gt;Node8</title>
<g id="a_edge55_Node000024_Node000008"><a xlink:title=" ">
<path fill="none" stroke="#63b8ff" d="M1559.15,-254.6C1576.57,-211.47 1605.34,-119.05 1558.74,-66 1537.64,-41.98 1336.3,-26.1 1233.51,-19.49"/>
<polygon fill="#63b8ff" stroke="#63b8ff" points="1555.86,-253.39 1555.23,-263.97 1562.32,-256.1 1555.86,-253.39"/>
</a>
</g>
</g>
</g>
</svg>
