<?xml version="1.0" encoding="UTF-8" standalone="no"?>
<!DOCTYPE svg PUBLIC "-//W3C//DTD SVG 1.1//EN"
 "http://www.w3.org/Graphics/SVG/1.1/DTD/svg11.dtd">
<!-- Generated by graphviz version 2.43.0 (0)
 -->
<!-- Title: src/PN532Adapter.cpp Pages: 1 -->
<svg width="444pt" height="324pt"
 viewBox="0.00 0.00 443.50 324.00" xmlns="http://www.w3.org/2000/svg" xmlns:xlink="http://www.w3.org/1999/xlink">
<g id="graph0" class="graph" transform="scale(1 1) rotate(0) translate(4 320)">
<title>src/PN532Adapter.cpp</title>
<!-- Node1 -->
<g id="Node000001" class="node">
<title>Node1</title>
<g id="a_Node000001"><a xlink:title="Implementation of the PN532 transport adapter.">
<polygon fill="#999999" stroke="#666666" points="272,-316 149,-316 149,-297 272,-297 272,-316"/>
<text text-anchor="middle" x="210.5" y="-304" font-family="Helvetica,sans-Serif" font-size="10.00">src/PN532Adapter.cpp</text>
</a>
</g>
</g>
<!-- Node2 -->
<g id="Node000002" class="node">
<title>Node2</title>
<g id="a_Node000002"><a xlink:href="PN532Adapter_8h.html" target="_top" xlink:title="Concrete CW_NfcTransport over Adafruit_PN532 (SPI / I2C / UART).">
<polygon fill="white" stroke="#666666" points="258,-261 163,-261 163,-242 258,-242 258,-261"/>
<text text-anchor="middle" x="210.5" y="-249" font-family="Helvetica,sans-Serif" font-size="10.00">PN532Adapter.h</text>
</a>
</g>
</g>
<!-- Node1&#45;&gt;Node2 -->
<g id="edge1_Node000001_Node000002" class="edge">
<title>Node1&#45;&gt;Node2</title>
<g id="a_edge1_Node000001_Node000002"><a xlink:title=" ">
<path fill="none" stroke="#63b8ff" d="M210.5,-296.75C210.5,-289.8 210.5,-279.85 210.5,-271.13"/>
<polygon fill="#63b8ff" stroke="#63b8ff" points="214,-271.09 210.5,-261.09 207,-271.09 214,-271.09"/>
</a>
</g>
</g>
<!-- Node3 -->
<g id="Node000003" class="node">
<title>Node3</title>
<g id="a_Node000003"><a xlink:title=" ">
<polygon fill="#e0e0e0" stroke="#999999" points="63,-200.5 0,-200.5 0,-181.5 63,-181.5 63,-200.5"/>
<text text-anchor="middle" x="31.5" y="-188.5" font-family="Helvetica,sans-Serif" font-size="10.00">Arduino.h</text>
</a>
</g>
</g>
<!-- Node2&#45;&gt;Node3 -->
<g id="edge2_Node000002_Node000003" class="edge">
<title>Node2&#45;&gt;Node3</title>
<g id="a_edge2_Node000002_Node000003"><a xlink:title=" ">
<path fill="none" stroke="#63b8ff" d="M183,-241.94C154.91,-233.13 110.06,-218.92 71.5,-206 69.4,-205.3 67.25,-204.57 65.07,-203.82"/>
<polygon fill="#63b8ff" stroke="#63b8ff" points="66.17,-200.5 55.58,-200.54 63.89,-207.12 66.17,-200.5"/>
</a>
</g>
</g>
<!-- Node4 -->
<g id="Node000004" class="node">
<title>Node4</title>
<g id="a_Node000004"><a xlink:title=" ">
<polygon fill="#e0e0e0" stroke="#999999" points="182,-200.5 81,-200.5 81,-181.5 182,-181.5 182,-200.5"/>
<text text-anchor="middle" x="131.5" y="-188.5" font-family="Helvetica,sans-Serif" font-size="10.00">Adafruit_PN532.h</text>
</a>
</g>
</g>
<!-- Node2&#45;&gt;Node4 -->
<g id="edge3_Node000002_Node000004" class="edge">
<title>Node2&#45;&gt;Node4</title>
<g id="a_edge3_Node000002_Node000004"><a xlink:title=" ">
<path fill="none" stroke="#63b8ff" d="M198.84,-241.87C186.36,-232.62 166.32,-217.78 151.34,-206.69"/>
<polygon fill="#63b8ff" stroke="#63b8ff" points="153.32,-203.81 143.2,-200.67 149.16,-209.43 153.32,-203.81"/>
</a>
</g>
</g>
<!-- Node5 -->
<g id="Node000005" class="node">
<title>Node5</title>
<g id="a_Node000005"><a xlink:href="CW__NfcTransport_8h.html" target="_top" xlink:title="Abstract NFC transport interface.">
<polygon fill="white" stroke="#666666" points="170,-140 49,-140 49,-110 170,-110 170,-140"/>
<text text-anchor="start" x="57" y="-128" font-family="Helvetica,sans-Serif" font-size="10.00">cryptnox&#45;sdk&#45;cpp/CW</text>
<text text-anchor="middle" x="109.5" y="-117" font-family="Helvetica,sans-Serif" font-size="10.00">_NfcTransport.h</text>
</a>
</g>
</g>
<!-- Node2&#45;&gt;Node5 -->
<g id="edge4_Node000002_Node000005" class="edge">
<title>Node2&#45;&gt;Node5</title>
<g id="a_edge4_Node000002_Node000005"><a xlink:title=" ">
<path fill="none" stroke="#63b8ff" d="M210.2,-241.8C209.27,-226.91 205.54,-196.19 190.5,-176 180.87,-163.06 166.8,-152.72 153.09,-144.88"/>
<polygon fill="#63b8ff" stroke="#63b8ff" points="154.64,-141.74 144.17,-140.08 151.32,-147.9 154.64,-141.74"/>
</a>
</g>
</g>
<!-- Node11 -->
<g id="Node000011" class="node">
<title>Node11</title>
<g id="a_Node000011"><a xlink:href="CW__Logger_8h.html" target="_top" xlink:title="Abstract logging interface.">
<polygon fill="white" stroke="#666666" points="309,-140 188,-140 188,-110 309,-110 309,-140"/>
<text text-anchor="start" x="196" y="-128" font-family="Helvetica,sans-Serif" font-size="10.00">cryptnox&#45;sdk&#45;cpp/CW</text>
<text text-anchor="middle" x="248.5" y="-117" font-family="Helvetica,sans-Serif" font-size="10.00">_Logger.h</text>
</a>
</g>
</g>
<!-- Node2&#45;&gt;Node11 -->
<g id="edge11_Node000002_Node000011" class="edge">
<title>Node2&#45;&gt;Node11</title>
<g id="a_edge11_Node000002_Node000011"><a xlink:title=" ">
<path fill="none" stroke="#63b8ff" d="M213.22,-241.98C216.06,-233.03 220.65,-218.54 224.5,-206 230.3,-187.13 236.72,-165.7 241.46,-149.77"/>
<polygon fill="#63b8ff" stroke="#63b8ff" points="244.82,-150.76 244.31,-140.18 238.11,-148.77 244.82,-150.76"/>
</a>
</g>
</g>
<!-- Node12 -->
<g id="Node000012" class="node">
<title>Node12</title>
<g id="a_Node000012"><a xlink:href="CW__Defs_8h.html" target="_top" xlink:title="Shared constants, error codes, and session state for the SDK.">
<polygon fill="white" stroke="#666666" points="398,-206 277,-206 277,-176 398,-176 398,-206"/>
<text text-anchor="start" x="285" y="-194" font-family="Helvetica,sans-Serif" font-size="10.00">cryptnox&#45;sdk&#45;cpp/CW</text>
<text text-anchor="middle" x="337.5" y="-183" font-family="Helvetica,sans-Serif" font-size="10.00">_Defs.h</text>
</a>
</g>
</g>
<!-- Node2&#45;&gt;Node12 -->
<g id="edge13_Node000002_Node000012" class="edge">
<title>Node2&#45;&gt;Node12</title>
<g id="a_edge13_Node000002_Node000012"><a xlink:title=" ">
<path fill="none" stroke="#63b8ff" d="M228.97,-241.99C246.86,-233.75 274.6,-220.98 297.55,-210.4"/>
<polygon fill="#63b8ff" stroke="#63b8ff" points="299.1,-213.54 306.72,-206.18 296.17,-207.18 299.1,-213.54"/>
</a>
</g>
</g>
<!-- Node6 -->
<g id="Node000006" class="node">
<title>Node6</title>
<g id="a_Node000006"><a xlink:href="platform__compat_8h.html" target="_top" xlink:title="Arduino compatibility shims for non&#45;Arduino (plain C++) builds.">
<polygon fill="white" stroke="#666666" points="306.5,-74 196.5,-74 196.5,-55 306.5,-55 306.5,-74"/>
<text text-anchor="middle" x="251.5" y="-62" font-family="Helvetica,sans-Serif" font-size="10.00">platform_compat.h</text>
</a>
</g>
</g>
<!-- Node5&#45;&gt;Node6 -->
<g id="edge5_Node000005_Node000006" class="edge">
<title>Node5&#45;&gt;Node6</title>
<g id="a_edge5_Node000005_Node000006"><a xlink:title=" ">
<path fill="none" stroke="#63b8ff" d="M143.51,-109.99C167.1,-100.27 198.24,-87.44 221.02,-78.06"/>
<polygon fill="#63b8ff" stroke="#63b8ff" points="222.62,-81.18 230.53,-74.14 219.95,-74.71 222.62,-81.18"/>
</a>
</g>
</g>
<!-- Node7 -->
<g id="Node000007" class="node">
<title>Node7</title>
<g id="a_Node000007"><a xlink:title=" ">
<polygon fill="#e0e0e0" stroke="#999999" points="136,-19 83,-19 83,0 136,0 136,-19"/>
<text text-anchor="middle" x="109.5" y="-7" font-family="Helvetica,sans-Serif" font-size="10.00">stdint.h</text>
</a>
</g>
</g>
<!-- Node5&#45;&gt;Node7 -->
<g id="edge10_Node000005_Node000007" class="edge">
<title>Node5&#45;&gt;Node7</title>
<g id="a_edge10_Node000005_Node000007"><a xlink:title=" ">
<path fill="none" stroke="#63b8ff" d="M109.5,-109.63C109.5,-89.21 109.5,-51.81 109.5,-29.24"/>
<polygon fill="#63b8ff" stroke="#63b8ff" points="113,-29.23 109.5,-19.23 106,-29.23 113,-29.23"/>
</a>
</g>
</g>
<!-- Node6&#45;&gt;Node7 -->
<g id="edge6_Node000006_Node000007" class="edge">
<title>Node6&#45;&gt;Node7</title>
<g id="a_edge6_Node000006_Node000007"><a xlink:title=" ">
<path fill="none" stroke="#63b8ff" d="M228.69,-54.98C205.33,-46.27 168.8,-32.63 142.33,-22.75"/>
<polygon fill="#63b8ff" stroke="#63b8ff" points="143.32,-19.39 132.73,-19.17 140.87,-25.95 143.32,-19.39"/>
</a>
</g>
</g>
<!-- Node8 -->
<g id="Node000008" class="node">
<title>Node8</title>
<g id="a_Node000008"><a xlink:title=" ">
<polygon fill="#e0e0e0" stroke="#999999" points="210.5,-19 154.5,-19 154.5,0 210.5,0 210.5,-19"/>
<text text-anchor="middle" x="182.5" y="-7" font-family="Helvetica,sans-Serif" font-size="10.00">stddef.h</text>
</a>
</g>
</g>
<!-- Node6&#45;&gt;Node8 -->
<g id="edge7_Node000006_Node000008" class="edge">
<title>Node6&#45;&gt;Node8</title>
<g id="a_edge7_Node000006_Node000008"><a xlink:title=" ">
<path fill="none" stroke="#63b8ff" d="M240.41,-54.98C230.01,-47 214.24,-34.88 201.78,-25.31"/>
<polygon fill="#63b8ff" stroke="#63b8ff" points="203.85,-22.49 193.79,-19.17 199.59,-28.04 203.85,-22.49"/>
</a>
</g>
</g>
<!-- Node9 -->
<g id="Node000009" class="node">
<title>Node9</title>
<g id="a_Node000009"><a xlink:title=" ">
<polygon fill="#e0e0e0" stroke="#999999" points="282,-19 229,-19 229,0 282,0 282,-19"/>
<text text-anchor="middle" x="255.5" y="-7" font-family="Helvetica,sans-Serif" font-size="10.00">string.h</text>
</a>
</g>
</g>
<!-- Node6&#45;&gt;Node9 -->
<g id="edge8_Node000006_Node000009" class="edge">
<title>Node6&#45;&gt;Node9</title>
<g id="a_edge8_Node000006_Node000009"><a xlink:title=" ">
<path fill="none" stroke="#63b8ff" d="M252.16,-54.75C252.68,-47.8 253.44,-37.85 254.09,-29.13"/>
<polygon fill="#63b8ff" stroke="#63b8ff" points="257.59,-29.32 254.85,-19.09 250.61,-28.8 257.59,-29.32"/>
</a>
</g>
</g>
<!-- Node10 -->
<g id="Node000010" class="node">
<title>Node10</title>
<g id="a_Node000010"><a xlink:title=" ">
<polygon fill="#e0e0e0" stroke="#999999" points="362.5,-19 300.5,-19 300.5,0 362.5,0 362.5,-19"/>
<text text-anchor="middle" x="331.5" y="-7" font-family="Helvetica,sans-Serif" font-size="10.00">stdbool.h</text>
</a>
</g>
</g>
<!-- Node6&#45;&gt;Node10 -->
<g id="edge9_Node000006_Node000010" class="edge">
<title>Node6&#45;&gt;Node10</title>
<g id="a_edge9_Node000006_Node000010"><a xlink:title=" ">
<path fill="none" stroke="#63b8ff" d="M264.35,-54.98C276.64,-46.84 295.41,-34.41 309.98,-24.76"/>
<polygon fill="#63b8ff" stroke="#63b8ff" points="312.01,-27.61 318.41,-19.17 308.14,-21.78 312.01,-27.61"/>
</a>
</g>
</g>
<!-- Node11&#45;&gt;Node6 -->
<g id="edge12_Node000011_Node000006" class="edge">
<title>Node11&#45;&gt;Node6</title>
<g id="a_edge12_Node000011_Node000006"><a xlink:title=" ">
<path fill="none" stroke="#63b8ff" d="M249.23,-109.84C249.62,-102.21 250.1,-92.7 250.53,-84.45"/>
<polygon fill="#63b8ff" stroke="#63b8ff" points="254.03,-84.43 251.05,-74.27 247.04,-84.07 254.03,-84.43"/>
</a>
</g>
</g>
<!-- Node12&#45;&gt;Node6 -->
<g id="edge14_Node000012_Node000006" class="edge">
<title>Node12&#45;&gt;Node6</title>
<g id="a_edge14_Node000012_Node000006"><a xlink:title=" ">
<path fill="none" stroke="#63b8ff" d="M336.97,-175.73C335.7,-158.67 331.47,-129.93 317.5,-110 308.25,-96.8 293.72,-86.38 280.64,-78.96"/>
<polygon fill="#63b8ff" stroke="#63b8ff" points="281.95,-75.69 271.48,-74.09 278.66,-81.87 281.95,-75.69"/>
</a>
</g>
</g>
<!-- Node13 -->
<g id="Node000013" class="node">
<title>Node13</title>
<g id="a_Node000013"><a xlink:href="CW__Utils_8h.html" target="_top" xlink:title="Platform&#45;independent security and memory utilities.">
<polygon fill="white" stroke="#666666" points="435.5,-134.5 365.5,-134.5 365.5,-115.5 435.5,-115.5 435.5,-134.5"/>
<text text-anchor="middle" x="400.5" y="-122.5" font-family="Helvetica,sans-Serif" font-size="10.00">CW_Utils.h</text>
</a>
</g>
</g>
<!-- Node12&#45;&gt;Node13 -->
<g id="edge15_Node000012_Node000013" class="edge">
<title>Node12&#45;&gt;Node13</title>
<g id="a_edge15_Node000012_Node000013"><a xlink:title=" ">
<path fill="none" stroke="#63b8ff" d="M351.48,-175.8C361.3,-165.82 374.46,-152.46 384.67,-142.09"/>
<polygon fill="#63b8ff" stroke="#63b8ff" points="387.27,-144.43 391.79,-134.84 382.28,-139.52 387.27,-144.43"/>
</a>
</g>
</g>
<!-- Node13&#45;&gt;Node6 -->
<g id="edge16_Node000013_Node000006" class="edge">
<title>Node13&#45;&gt;Node6</title>
<g id="a_edge16_Node000013_Node000006"><a xlink:title=" ">
<path fill="none" stroke="#63b8ff" d="M378.83,-115.49C353.56,-105.57 311.59,-89.09 282.78,-77.78"/>
<polygon fill="#63b8ff" stroke="#63b8ff" points="283.78,-74.41 273.19,-74.02 281.22,-80.93 283.78,-74.41"/>
</a>
</g>
</g>
</g>
</svg>
