<?xml version="1.0" encoding="UTF-8" standalone="no"?>
<!DOCTYPE svg PUBLIC "-//W3C//DTD SVG 1.1//EN"
 "http://www.w3.org/Graphics/SVG/1.1/DTD/svg11.dtd">
<!-- Generated by graphviz version 2.43.0 (0)
 -->
<!-- Title: examples/UsdcSigning/UsdcSigning.ino Pages: 1 -->
<svg width="684pt" height="148pt"
 viewBox="0.00 0.00 684.00 148.00" xmlns="http://www.w3.org/2000/svg" xmlns:xlink="http://www.w3.org/1999/xlink">
<g id="graph0" class="graph" transform="scale(1 1) rotate(0) translate(4 144)">
<title>examples/UsdcSigning/UsdcSigning.ino</title>
<!-- Node1 -->
<g id="Node000001" class="node">
<title>Node1</title>
<g id="a_Node000001"><a xlink:title=" ">
<polygon fill="#999999" stroke="#666666" points="353.5,-140 225.5,-140 225.5,-110 353.5,-110 353.5,-140"/>
<text text-anchor="start" x="233.5" y="-128" font-family="Helvetica,sans-Serif" font-size="10.00">examples/UsdcSigning</text>
<text text-anchor="middle" x="289.5" y="-117" font-family="Helvetica,sans-Serif" font-size="10.00">/UsdcSigning.ino</text>
</a>
</g>
</g>
<!-- Node2 -->
<g id="Node000002" class="node">
<title>Node2</title>
<g id="a_Node000002"><a xlink:title=" ">
<polygon fill="#e0e0e0" stroke="#999999" points="63,-74 0,-74 0,-55 63,-55 63,-74"/>
<text text-anchor="middle" x="31.5" y="-62" font-family="Helvetica,sans-Serif" font-size="10.00">Arduino.h</text>
</a>
</g>
</g>
<!-- Node1&#45;&gt;Node2 -->
<g id="edge1_Node000001_Node000002" class="edge">
<title>Node1&#45;&gt;Node2</title>
<g id="a_edge1_Node000001_Node000002"><a xlink:title=" ">
<path fill="none" stroke="#63b8ff" d="M227.7,-109.99C179.78,-99.12 114.68,-84.36 72.87,-74.88"/>
<polygon fill="#63b8ff" stroke="#63b8ff" points="73.55,-71.45 63.03,-72.65 72.01,-78.27 73.55,-71.45"/>
</a>
</g>
</g>
<!-- Node3 -->
<g id="Node000003" class="node">
<title>Node3</title>
<g id="a_Node000003"><a xlink:title=" ">
<polygon fill="#e0e0e0" stroke="#999999" points="122,-74 81,-74 81,-55 122,-55 122,-74"/>
<text text-anchor="middle" x="101.5" y="-62" font-family="Helvetica,sans-Serif" font-size="10.00">SPI.h</text>
</a>
</g>
</g>
<!-- Node1&#45;&gt;Node3 -->
<g id="edge2_Node000001_Node000003" class="edge">
<title>Node1&#45;&gt;Node3</title>
<g id="a_edge2_Node000001_Node000003"><a xlink:title=" ">
<path fill="none" stroke="#63b8ff" d="M244.47,-109.99C209.72,-99.18 162.6,-84.51 132.12,-75.03"/>
<polygon fill="#63b8ff" stroke="#63b8ff" points="133.05,-71.65 122.46,-72.02 130.97,-78.34 133.05,-71.65"/>
</a>
</g>
</g>
<!-- Node4 -->
<g id="Node000004" class="node">
<title>Node4</title>
<g id="a_Node000004"><a xlink:href="keccak256_8h.html" target="_top" xlink:title="Keccak&#45;256 (SHA3 variant) hash function for Ethereum.">
<polygon fill="white" stroke="#666666" points="217,-74 140,-74 140,-55 217,-55 217,-74"/>
<text text-anchor="middle" x="178.5" y="-62" font-family="Helvetica,sans-Serif" font-size="10.00">keccak256.h</text>
</a>
</g>
</g>
<!-- Node1&#45;&gt;Node4 -->
<g id="edge3_Node000001_Node000004" class="edge">
<title>Node1&#45;&gt;Node4</title>
<g id="a_edge3_Node000001_Node000004"><a xlink:title=" ">
<path fill="none" stroke="#63b8ff" d="M262.91,-109.99C245.05,-100.58 221.66,-88.24 204.02,-78.95"/>
<polygon fill="#63b8ff" stroke="#63b8ff" points="205.37,-75.71 194.89,-74.14 202.11,-81.9 205.37,-75.71"/>
</a>
</g>
</g>
<!-- Node7 -->
<g id="Node000007" class="node">
<title>Node7</title>
<g id="a_Node000007"><a xlink:title=" ">
<polygon fill="#e0e0e0" stroke="#999999" points="353,-74 294,-74 294,-55 353,-55 353,-74"/>
<text text-anchor="middle" x="323.5" y="-62" font-family="Helvetica,sans-Serif" font-size="10.00">WiFiS3.h</text>
</a>
</g>
</g>
<!-- Node1&#45;&gt;Node7 -->
<g id="edge6_Node000001_Node000007" class="edge">
<title>Node1&#45;&gt;Node7</title>
<g id="a_edge6_Node000001_Node000007"><a xlink:title=" ">
<path fill="none" stroke="#63b8ff" d="M297.73,-109.84C302.41,-101.78 308.32,-91.62 313.3,-83.06"/>
<polygon fill="#63b8ff" stroke="#63b8ff" points="316.41,-84.67 318.41,-74.27 310.35,-81.15 316.41,-84.67"/>
</a>
</g>
</g>
<!-- Node8 -->
<g id="Node000008" class="node">
<title>Node8</title>
<g id="a_Node000008"><a xlink:title=" ">
<polygon fill="#e0e0e0" stroke="#999999" points="484,-74 371,-74 371,-55 484,-55 484,-74"/>
<text text-anchor="middle" x="427.5" y="-62" font-family="Helvetica,sans-Serif" font-size="10.00">ArduinoHttpClient.h</text>
</a>
</g>
</g>
<!-- Node1&#45;&gt;Node8 -->
<g id="edge7_Node000001_Node000008" class="edge">
<title>Node1&#45;&gt;Node8</title>
<g id="a_edge7_Node000001_Node000008"><a xlink:title=" ">
<path fill="none" stroke="#63b8ff" d="M322.55,-109.99C345.48,-100.27 375.74,-87.44 397.88,-78.06"/>
<polygon fill="#63b8ff" stroke="#63b8ff" points="399.28,-81.26 407.12,-74.14 396.55,-74.82 399.28,-81.26"/>
</a>
</g>
</g>
<!-- Node9 -->
<g id="Node000009" class="node">
<title>Node9</title>
<g id="a_Node000009"><a xlink:href="util_8h.html" target="_top" xlink:title=" ">
<polygon fill="white" stroke="#666666" points="276,-74 235,-74 235,-55 276,-55 276,-74"/>
<text text-anchor="middle" x="255.5" y="-62" font-family="Helvetica,sans-Serif" font-size="10.00">util.h</text>
</a>
</g>
</g>
<!-- Node1&#45;&gt;Node9 -->
<g id="edge8_Node000001_Node000009" class="edge">
<title>Node1&#45;&gt;Node9</title>
<g id="a_edge8_Node000001_Node000009"><a xlink:title=" ">
<path fill="none" stroke="#63b8ff" d="M281.27,-109.84C276.59,-101.78 270.68,-91.62 265.7,-83.06"/>
<polygon fill="#63b8ff" stroke="#63b8ff" points="268.65,-81.15 260.59,-74.27 262.59,-84.67 268.65,-81.15"/>
</a>
</g>
</g>
<!-- Node10 -->
<g id="Node000010" class="node">
<title>Node10</title>
<g id="a_Node000010"><a xlink:title=" ">
<polygon fill="#e0e0e0" stroke="#999999" points="557,-74 502,-74 502,-55 557,-55 557,-74"/>
<text text-anchor="middle" x="529.5" y="-62" font-family="Helvetica,sans-Serif" font-size="10.00">config.h</text>
</a>
</g>
</g>
<!-- Node1&#45;&gt;Node10 -->
<g id="edge11_Node000001_Node000010" class="edge">
<title>Node1&#45;&gt;Node10</title>
<g id="a_edge11_Node000001_Node000010"><a xlink:title=" ">
<path fill="none" stroke="#63b8ff" d="M346.99,-109.99C391.92,-99.03 453.09,-84.13 491.94,-74.66"/>
<polygon fill="#63b8ff" stroke="#63b8ff" points="492.9,-78.02 501.79,-72.25 491.25,-71.22 492.9,-78.02"/>
</a>
</g>
</g>
<!-- Node11 -->
<g id="Node000011" class="node">
<title>Node11</title>
<g id="a_Node000011"><a xlink:title=" ">
<polygon fill="#e0e0e0" stroke="#999999" points="676,-74 575,-74 575,-55 676,-55 676,-74"/>
<text text-anchor="middle" x="625.5" y="-62" font-family="Helvetica,sans-Serif" font-size="10.00">CryptnoxWallet.h</text>
</a>
</g>
</g>
<!-- Node1&#45;&gt;Node11 -->
<g id="edge12_Node000001_Node000011" class="edge">
<title>Node1&#45;&gt;Node11</title>
<g id="a_edge12_Node000001_Node000011"><a xlink:title=" ">
<path fill="none" stroke="#63b8ff" d="M353.89,-112.79C415.31,-102.1 507.06,-86.12 566.59,-75.76"/>
<polygon fill="#63b8ff" stroke="#63b8ff" points="567.34,-79.18 576.59,-74.02 566.14,-72.28 567.34,-79.18"/>
</a>
</g>
</g>
<!-- Node5 -->
<g id="Node000005" class="node">
<title>Node5</title>
<g id="a_Node000005"><a xlink:title=" ">
<polygon fill="#e0e0e0" stroke="#999999" points="207,-19 154,-19 154,0 207,0 207,-19"/>
<text text-anchor="middle" x="180.5" y="-7" font-family="Helvetica,sans-Serif" font-size="10.00">stdint.h</text>
</a>
</g>
</g>
<!-- Node4&#45;&gt;Node5 -->
<g id="edge4_Node000004_Node000005" class="edge">
<title>Node4&#45;&gt;Node5</title>
<g id="a_edge4_Node000004_Node000005"><a xlink:title=" ">
<path fill="none" stroke="#63b8ff" d="M178.83,-54.75C179.09,-47.8 179.47,-37.85 179.8,-29.13"/>
<polygon fill="#63b8ff" stroke="#63b8ff" points="183.3,-29.21 180.18,-19.09 176.3,-28.95 183.3,-29.21"/>
</a>
</g>
</g>
<!-- Node6 -->
<g id="Node000006" class="node">
<title>Node6</title>
<g id="a_Node000006"><a xlink:title=" ">
<polygon fill="#e0e0e0" stroke="#999999" points="282.5,-19 226.5,-19 226.5,0 282.5,0 282.5,-19"/>
<text text-anchor="middle" x="254.5" y="-7" font-family="Helvetica,sans-Serif" font-size="10.00">stddef.h</text>
</a>
</g>
</g>
<!-- Node4&#45;&gt;Node6 -->
<g id="edge5_Node000004_Node000006" class="edge">
<title>Node4&#45;&gt;Node6</title>
<g id="a_edge5_Node000004_Node000006"><a xlink:title=" ">
<path fill="none" stroke="#63b8ff" d="M190.71,-54.98C202.28,-46.92 219.88,-34.65 233.66,-25.03"/>
<polygon fill="#63b8ff" stroke="#63b8ff" points="235.87,-27.76 242.07,-19.17 231.86,-22.02 235.87,-27.76"/>
</a>
</g>
</g>
<!-- Node9&#45;&gt;Node5 -->
<g id="edge9_Node000009_Node000005" class="edge">
<title>Node9&#45;&gt;Node5</title>
<g id="a_edge9_Node000009_Node000005"><a xlink:title=" ">
<path fill="none" stroke="#63b8ff" d="M243.45,-54.98C232.04,-46.92 214.67,-34.65 201.07,-25.03"/>
<polygon fill="#63b8ff" stroke="#63b8ff" points="202.96,-22.08 192.77,-19.17 198.92,-27.8 202.96,-22.08"/>
</a>
</g>
</g>
<!-- Node9&#45;&gt;Node6 -->
<g id="edge10_Node000009_Node000006" class="edge">
<title>Node9&#45;&gt;Node6</title>
<g id="a_edge10_Node000009_Node000006"><a xlink:title=" ">
<path fill="none" stroke="#63b8ff" d="M255.33,-54.75C255.2,-47.8 255.02,-37.85 254.85,-29.13"/>
<polygon fill="#63b8ff" stroke="#63b8ff" points="258.35,-29.02 254.66,-19.09 251.35,-29.15 258.35,-29.02"/>
</a>
</g>
</g>
</g>
</svg>
